<svg width="22" height="22" viewBox="0 0 22 22" fill="none" xmlns="http://www.w3.org/2000/svg">
<g clip-path="url(#clip0_1_1150)">
<path fill-rule="evenodd" clip-rule="evenodd" d="M9.64356 0.5H11.3936V4H9.64356V0.5ZM10.5186 11H7.01856V12.75H3.51855V14.5H1.76855V18H3.51855V19.75H12.2686V18H14.0186V14.5H12.2686V12.75H10.5186V11ZM10.5186 12.75V14.5H12.2686V18H3.51855V14.5H7.01856V16.25H8.76856V14.5H7.01856V12.75H10.5186ZM7.01856 5.75H12.2686V7.5H7.01856V5.75ZM7.01856 7.5V9.25H5.26856V7.5H7.01856ZM14.0186 9.25H12.2686V7.5H14.0186V9.25ZM14.0186 9.25H15.7686V11H14.0186V9.25ZM17.5186 2.25H19.2686V4H17.5186V2.25ZM17.5186 4V5.75H15.7686V4H17.5186ZM1.76855 2.25H3.51855V4H1.76855V2.25ZM3.51855 4H5.26856V5.75H3.51856L3.51855 4ZM21.0186 10.125H17.5186V11.875H21.0186V10.125Z" fill="black"/>
</g>
<defs>
<clipPath id="clip0_1_1150">
<rect width="21" height="21" fill="white" transform="translate(0.0185547 0.5)"/>
</clipPath>
</defs>
</svg>
