<svg width="49" height="40" viewBox="0 0 49 40" fill="none" xmlns="http://www.w3.org/2000/svg">
<path d="M39.0271 27.4164V25.4717H37.0137V14.5353H39.0271V12.5676H45.9824V14.5353H48.0187V17.6469H45.0901V15.7021H39.9194V18.4477H43.969V21.5364H39.9194V24.3048H45.0901V22.3372H48.0187V25.4717H45.9824V27.4164H39.0271Z" fill="#141414"/>
<path d="M28.6257 27.4164V25.4717H26.6123V21.5364H24.5989V12.5676H27.5046V20.3695H29.518V24.3048H30.6619V20.3695H32.6753V12.5676H35.6039V21.5364H33.5676V25.4717H31.5542V27.4164H28.6257Z" fill="#141414"/>
<path d="M2.0134 27.4164V25.4717H0V12.5676H2.9057V24.3048H8.07646V22.3372H11.005V25.4717H8.96876V27.4164H2.0134Z" fill="#141414"/>
<rect x="12.2141" y="14.5264" width="2.88077" height="3.11123" fill="#141414"/>
<rect x="20.165" y="14.5264" width="2.996" height="4.72446" fill="#141414"/>
<rect x="12.2141" y="22.3623" width="2.996" height="3.11123" fill="#141414"/>
<rect x="15.2102" y="19.2505" width="4.95492" height="3.11123" fill="#141414"/>
<rect x="14.2883" y="24.321" width="8.87277" height="3.11123" fill="#141414"/>
<rect x="14.1731" y="12.5676" width="7.02908" height="3.11123" fill="#141414"/>
</svg>
