<svg width="66" height="45" viewBox="0 0 66 45" fill="none" xmlns="http://www.w3.org/2000/svg">
<path d="M48.04 30.3836V27.9897H45.5616V14.5276H48.04V12.1056H56.6017V14.5276H59.1082V18.3579H55.5033V15.964H49.1384V19.3436H54.1233V23.1456H49.1384V26.5534H55.5033V24.1313H59.1082V27.9897H56.6017V30.3836H48.04Z" fill="#0AF0FF"/>
<path d="M35.2365 30.3836V27.9897H32.7582V23.1456H30.2798V12.1056H33.8565V21.7093H36.3349V26.5534H37.7431V21.7093H40.2215V12.1056H43.8264V23.1456H41.3198V27.9897H38.8415V30.3836H35.2365Z" fill="#0AF0FF"/>
<path d="M2.47838 30.3837V27.9899H0V12.1057H3.57675V26.5535H9.94167V24.1315H13.5466V27.9899H11.04V30.3837H2.47838Z" fill="#0AF0FF"/>
<rect x="15.0353" y="14.5167" width="3.54606" height="3.82975" fill="#0AF0FF"/>
<rect x="24.8224" y="14.5167" width="3.68791" height="5.81555" fill="#0AF0FF"/>
<rect x="15.0353" y="24.162" width="3.68791" height="3.82975" fill="#0AF0FF"/>
<rect x="18.7231" y="20.3324" width="6.09923" height="3.82975" fill="#0AF0FF"/>
<rect x="17.5884" y="26.5734" width="10.9219" height="3.82975" fill="#0AF0FF"/>
<rect x="17.4465" y="12.1055" width="8.6524" height="3.82975" fill="#0AF0FF"/>
<path d="M59.8452 9.47668V10.1908H59.7405V10.2035H59.0989V11.6572H59.8321V12.4224H60.5654V13.1365H61.2986V13.8506H62.1235V13.1365H62.8567V12.4224H63.59V11.619H64.3232V10.1908H63.5769V9.47668H62.0843V10.1908H61.3378V9.47668H59.8452Z" fill="#0AF0FF"/>
<path d="M49.1067 30.3836V27.9897H46.6283V14.5276H49.1067V12.1056H57.6683V14.5276H60.1749V18.3579H56.57V15.964H50.205V19.3436H55.19V23.1456H50.205V26.5534H56.57V24.1313H60.1749V27.9897H57.6683V30.3836H49.1067Z" fill="#FF00D6"/>
<path d="M36.3031 30.3836V27.9897H33.8247V23.1456H31.3463V12.1056H34.9231V21.7093H37.4014V26.5534H38.8096V21.7093H41.288V12.1056H44.8929V23.1456H42.3864V27.9897H39.908V30.3836H36.3031Z" fill="#FF00D6"/>
<path d="M3.5449 30.3837V27.9899H1.06653V12.1057H4.64328V26.5535H11.0082V24.1315H14.6131V27.9899H12.1066V30.3837H3.5449Z" fill="#FF00D6"/>
<rect x="16.1017" y="14.5167" width="3.54606" height="3.82975" fill="#FF00D6"/>
<rect x="25.8888" y="14.5167" width="3.68791" height="5.81555" fill="#FF00D6"/>
<rect x="16.1017" y="24.162" width="3.68791" height="3.82975" fill="#FF00D6"/>
<rect x="19.7896" y="20.3324" width="6.09923" height="3.82975" fill="#FF00D6"/>
<rect x="18.6548" y="26.5734" width="10.9219" height="3.82975" fill="#FF00D6"/>
<rect x="18.5129" y="12.1055" width="8.6524" height="3.82975" fill="#FF00D6"/>
<path d="M60.9117 9.47668V10.1908H60.807V10.2035H60.1654V11.6572H60.8986V12.4224H61.6319V13.1365H62.3651V13.8506H63.19V13.1365H63.9233V12.4224H64.6565V11.619H65.3897V10.1908H64.6434V9.47668H63.1508V10.1908H62.4043V9.47668H60.9117Z" fill="#FF00D6"/>
<path d="M48.8398 30.3836V27.9897H46.3615V14.5276H48.8398V12.1056H57.4015V14.5276H59.908V18.3579H56.3031V15.964H49.9382V19.3436H54.9231V23.1456H49.9382V26.5534H56.3031V24.1313H59.908V27.9897H57.4015V30.3836H48.8398Z" fill="black"/>
<path d="M36.0363 30.3836V27.9897H33.558V23.1456H31.0796V12.1056H34.6563V21.7093H37.1347V26.5534H38.5429V21.7093H41.0213V12.1056H44.6262V23.1456H42.1196V27.9897H39.6413V30.3836H36.0363Z" fill="black"/>
<path d="M3.2783 30.3837V27.9899H0.799927V12.1057H4.37667V26.5535H10.7416V24.1315H14.3465V27.9899H11.84V30.3837H3.2783Z" fill="black"/>
<rect x="15.8351" y="14.5167" width="3.54606" height="3.82975" fill="black"/>
<rect x="25.6222" y="14.5167" width="3.68791" height="5.81555" fill="black"/>
<rect x="15.8351" y="24.162" width="3.68791" height="3.82975" fill="black"/>
<rect x="19.5229" y="20.3324" width="6.09923" height="3.82975" fill="black"/>
<rect x="18.3882" y="26.5734" width="10.9219" height="3.82975" fill="black"/>
<rect x="18.2463" y="12.1055" width="8.6524" height="3.82975" fill="black"/>
<path d="M60.6451 9.47668V10.1908H60.5404V10.2035H59.8988V11.6572H60.632V12.4224H61.3653V13.1365H62.0985V13.8506H62.9234V13.1365H63.6567V12.4224H64.3899V11.619H65.1231V10.1908H64.3768V9.47668H62.8842V10.1908H62.1377V9.47668H60.6451Z" fill="black"/>
<path d="M51.2804 0H50.4242V0.856214H51.2804V0Z" fill="#00D1FF"/>
<path d="M52.1366 0H51.2804V0.856214H52.1366V0Z" fill="#00D1FF"/>
<path d="M52.9929 0H52.1367V0.856214H52.9929V0Z" fill="#00D1FF"/>
<path d="M53.849 0H52.9928V0.856214H53.849V0Z" fill="#00D1FF"/>
<path d="M49.5681 0.856323H48.7119V1.71254H49.5681V0.856323Z" fill="#00D1FF"/>
<path d="M50.4243 0.856323H49.5681V1.71254H50.4243V0.856323Z" fill="#00D1FF"/>
<path d="M51.2804 0.856323H50.4242V1.71254H51.2804V0.856323Z" fill="#00D1FF"/>
<path d="M52.1366 0.856323H51.2804V1.71254H52.1366V0.856323Z" fill="#00D1FF"/>
<path d="M52.9929 0.856323H52.1367V1.71254H52.9929V0.856323Z" fill="#00D1FF"/>
<path d="M53.849 0.856323H52.9928V1.71254H53.849V0.856323Z" fill="#00D1FF"/>
<path d="M47.8556 1.71265H46.9994V2.56886H47.8556V1.71265Z" fill="#00D1FF"/>
<path d="M48.7117 1.71265H47.8555V2.56886H48.7117V1.71265Z" fill="#00D1FF"/>
<path d="M49.5681 1.71265H48.7119V2.56886H49.5681V1.71265Z" fill="#00D1FF"/>
<path d="M50.4243 1.71265H49.5681V2.56886H50.4243V1.71265Z" fill="#00D1FF"/>
<path d="M51.2804 1.71265H50.4242V2.56886H51.2804V1.71265Z" fill="#00D1FF"/>
<path d="M52.1366 1.71265H51.2804V2.56886H52.1366V1.71265Z" fill="#00D1FF"/>
<path d="M52.9929 1.71265H52.1367V2.56886H52.9929V1.71265Z" fill="#00D1FF"/>
<path d="M53.849 1.71265H52.9928V2.56886H53.849V1.71265Z" fill="#00D1FF"/>
<path d="M46.9994 2.56873H46.1432V3.42494H46.9994V2.56873Z" fill="#00D1FF"/>
<path d="M47.8556 2.56873H46.9994V3.42494H47.8556V2.56873Z" fill="#00D1FF"/>
<path d="M50.4243 2.56873H49.5681V3.42494H50.4243V2.56873Z" fill="#00D1FF"/>
<path d="M51.2804 2.56873H50.4242V3.42494H51.2804V2.56873Z" fill="#00D1FF"/>
<path d="M52.1366 2.56873H51.2804V3.42494H52.1366V2.56873Z" fill="#00D1FF"/>
<path d="M52.9929 2.56873H52.1367V3.42494H52.9929V2.56873Z" fill="#00D1FF"/>
<path d="M45.2868 3.4248H44.4305V4.28102H45.2868V3.4248Z" fill="#00D1FF"/>
<path d="M50.4243 3.4248H49.5681V4.28102H50.4243V3.4248Z" fill="#00D1FF"/>
<path d="M51.2804 3.4248H50.4242V4.28102H51.2804V3.4248Z" fill="#00D1FF"/>
<path d="M52.1366 3.4248H51.2804V4.28102H52.1366V3.4248Z" fill="#00D1FF"/>
<path d="M52.9929 3.4248H52.1367V4.28102H52.9929V3.4248Z" fill="#00D1FF"/>
<path d="M50.4243 4.28101H49.5681V5.13722H50.4243V4.28101Z" fill="#00D1FF"/>
<path d="M51.2804 4.28101H50.4242V5.13722H51.2804V4.28101Z" fill="#00D1FF"/>
<path d="M52.1366 4.28101H51.2804V5.13722H52.1366V4.28101Z" fill="#00D1FF"/>
<path d="M42.7184 5.13745H41.8622V5.99366H42.7184V5.13745Z" fill="#00D1FF"/>
<path d="M49.5681 5.13745H48.7119V5.99366H49.5681V5.13745Z" fill="#00D1FF"/>
<path d="M50.4243 5.13745H49.5681V5.99366H50.4243V5.13745Z" fill="#00D1FF"/>
<path d="M51.2804 5.13745H50.4242V5.99366H51.2804V5.13745Z" fill="#00D1FF"/>
<path d="M52.1366 5.13745H51.2804V5.99366H52.1366V5.13745Z" fill="#00D1FF"/>
<path d="M49.5681 5.99353H48.7119V6.84974H49.5681V5.99353Z" fill="#00D1FF"/>
<path d="M50.4243 5.99353H49.5681V6.84974H50.4243V5.99353Z" fill="#00D1FF"/>
<path d="M51.2804 5.99353H50.4242V6.84974H51.2804V5.99353Z" fill="#00D1FF"/>
<path d="M48.7117 6.84973H47.8555V7.70595H48.7117V6.84973Z" fill="#00D1FF"/>
<path d="M49.5681 6.84973H48.7119V7.70595H49.5681V6.84973Z" fill="#00D1FF"/>
<path d="M50.4243 6.84973H49.5681V7.70595H50.4243V6.84973Z" fill="#00D1FF"/>
<path d="M47.8556 7.70593H46.9994V8.56215H47.8556V7.70593Z" fill="#00D1FF"/>
<path d="M48.7117 7.70593H47.8555V8.56215H48.7117V7.70593Z" fill="#00D1FF"/>
<path d="M49.5681 7.70593H48.7119V8.56215H49.5681V7.70593Z" fill="#00D1FF"/>
<path d="M50.4243 7.70593H49.5681V8.56215H50.4243V7.70593Z" fill="#00D1FF"/>
<path d="M47.8556 8.56213H46.9994V9.41835H47.8556V8.56213Z" fill="#00D1FF"/>
<path d="M48.7117 8.56213H47.8555V9.41835H48.7117V8.56213Z" fill="#00D1FF"/>
<path d="M49.5681 8.56213H48.7119V9.41835H49.5681V8.56213Z" fill="#00D1FF"/>
<path d="M46.9994 9.41833H46.1432V10.2745H46.9994V9.41833Z" fill="#00D1FF"/>
<path d="M47.8556 9.41833H46.9994V10.2745H47.8556V9.41833Z" fill="#00D1FF"/>
<path d="M48.7117 9.41833H47.8555V10.2745H48.7117V9.41833Z" fill="#00D1FF"/>
<path d="M49.5681 9.41833H48.7119V10.2745H49.5681V9.41833Z" fill="#00D1FF"/>
<path d="M46.1432 10.2747H45.287V11.1309H46.1432V10.2747Z" fill="#00D1FF"/>
<path d="M46.9994 10.2747H46.1432V11.1309H46.9994V10.2747Z" fill="#0F61FF"/>
<path d="M47.8556 10.2747H46.9994V11.1309H47.8556V10.2747Z" fill="#00D1FF"/>
<path d="M48.7117 10.2747H47.8555V11.1309H48.7117V10.2747Z" fill="#00D1FF"/>
<path d="M45.2868 11.1307H44.4305V11.987H45.2868V11.1307Z" fill="#00D1FF"/>
<path d="M46.1432 11.1307H45.287V11.987H46.1432V11.1307Z" fill="#0F61FF"/>
<path d="M46.9994 11.1307H46.1432V11.987H46.9994V11.1307Z" fill="#00D1FF"/>
<path d="M47.8556 11.1307H46.9994V11.987H47.8556V11.1307Z" fill="#0F61FF"/>
<path d="M44.4307 11.9872H43.5745V12.8434H44.4307V11.9872Z" fill="#00D1FF"/>
<path d="M45.2868 11.9872H44.4305V12.8434H45.2868V11.9872Z" fill="#0F61FF"/>
<path d="M46.1432 11.9872H45.287V12.8434H46.1432V11.9872Z" fill="#0F61FF"/>
<path d="M46.9994 11.9872H46.1432V12.8434H46.9994V11.9872Z" fill="#00D1FF"/>
<path d="M44.4307 12.8431H43.5745V13.6994H44.4307V12.8431Z" fill="#0F61FF"/>
<path d="M45.2868 12.8431H44.4305V13.6994H45.2868V12.8431Z" fill="#00D1FF"/>
<path d="M46.1432 12.8431H45.287V13.6994H46.1432V12.8431Z" fill="#00D1FF"/>
<path d="M43.5745 13.6995H42.7183V14.5557H43.5745V13.6995Z" fill="#00D1FF"/>
<path d="M44.4307 13.6995H43.5745V14.5557H44.4307V13.6995Z" fill="#00D1FF"/>
<path d="M45.2868 13.6995H44.4305V14.5557H45.2868V13.6995Z" fill="#00D1FF"/>
<path d="M42.7184 14.5557H41.8622V15.4119H42.7184V14.5557Z" fill="#0F61FF"/>
<path d="M43.5745 14.5557H42.7183V15.4119H43.5745V14.5557Z" fill="#00D1FF"/>
<path d="M44.4307 14.5557H43.5745V15.4119H44.4307V14.5557Z" fill="#00D1FF"/>
<path d="M41.8621 15.4119H41.0059V16.2681H41.8621V15.4119Z" fill="#00D1FF"/>
<path d="M42.7184 15.4119H41.8622V16.2681H42.7184V15.4119Z" fill="#0F61FF"/>
<path d="M43.5745 15.4119H42.7183V16.2681H43.5745V15.4119Z" fill="#00D1FF"/>
<path d="M41.0059 16.2681H40.1497V17.1243H41.0059V16.2681Z" fill="#0F61FF"/>
<path d="M41.8621 16.2681H41.0059V17.1243H41.8621V16.2681Z" fill="#00D1FF"/>
<path d="M42.7184 16.2681H41.8622V17.1243H42.7184V16.2681Z" fill="#00D1FF"/>
<path d="M40.1497 17.1243H39.2935V17.9805H40.1497V17.1243Z" fill="#00D1FF"/>
<path d="M41.0059 17.1243H40.1497V17.9805H41.0059V17.1243Z" fill="#0F61FF"/>
<path d="M41.8621 17.1243H41.0059V17.9805H41.8621V17.1243Z" fill="#0F61FF"/>
<path d="M39.2935 17.9806H38.4373V18.8368H39.2935V17.9806Z" fill="#00D1FF"/>
<path d="M40.1497 17.9806H39.2935V18.8368H40.1497V17.9806Z" fill="#0F61FF"/>
<path d="M41.0059 17.9806H40.1497V18.8368H41.0059V17.9806Z" fill="#00D1FF"/>
<path d="M38.4373 18.8367H37.5811V19.6929H38.4373V18.8367Z" fill="#0F61FF"/>
<path d="M39.2935 18.8367H38.4373V19.6929H39.2935V18.8367Z" fill="#00D1FF"/>
<path d="M40.1497 18.8367H39.2935V19.6929H40.1497V18.8367Z" fill="#0F61FF"/>
<path d="M37.5809 19.6929H36.7247V20.5491H37.5809V19.6929Z" fill="#0F61FF"/>
<path d="M38.4373 19.6929H37.5811V20.5491H38.4373V19.6929Z" fill="#00D1FF"/>
<path d="M39.2935 19.6929H38.4373V20.5491H39.2935V19.6929Z" fill="#0F61FF"/>
<path d="M36.7247 20.5493H35.8685V21.4055H36.7247V20.5493Z" fill="#00D1FF"/>
<path d="M37.5809 20.5493H36.7247V21.4055H37.5809V20.5493Z" fill="#0F61FF"/>
<path d="M38.4373 20.5493H37.5811V21.4055H38.4373V20.5493Z" fill="#00D1FF"/>
<path d="M35.8687 21.4054H35.0125V22.2616H35.8687V21.4054Z" fill="#0F61FF"/>
<path d="M36.7247 21.4054H35.8685V22.2616H36.7247V21.4054Z" fill="#0F61FF"/>
<path d="M37.5809 21.4054H36.7247V22.2616H37.5809V21.4054Z" fill="#0F61FF"/>
<path d="M35.0125 22.2616H34.1562V23.1178H35.0125V22.2616Z" fill="#0F61FF"/>
<path d="M35.8687 22.2616H35.0125V23.1178H35.8687V22.2616Z" fill="#00D1FF"/>
<path d="M36.7247 22.2616H35.8685V23.1178H36.7247V22.2616Z" fill="#0F61FF"/>
<path d="M34.1561 23.1178H33.2999V23.974H34.1561V23.1178Z" fill="#0F61FF"/>
<path d="M35.0125 23.1178H34.1562V23.974H35.0125V23.1178Z" fill="#0F61FF"/>
<path d="M35.8687 23.1178H35.0125V23.974H35.8687V23.1178Z" fill="#0F61FF"/>
<path d="M33.2999 23.9741H32.4437V24.8303H33.2999V23.9741Z" fill="#0F61FF"/>
<path d="M34.1561 23.9741H33.2999V24.8303H34.1561V23.9741Z" fill="#00D1FF"/>
<path d="M35.0125 23.9741H34.1562V24.8303H35.0125V23.9741Z" fill="#0F61FF"/>
<path d="M32.4437 24.8302H31.5875V25.6864H32.4437V24.8302Z" fill="#0F61FF"/>
<path d="M33.2999 24.8302H32.4437V25.6864H33.2999V24.8302Z" fill="#0F61FF"/>
<path d="M34.1561 24.8302H33.2999V25.6864H34.1561V24.8302Z" fill="#0F61FF"/>
<path d="M31.5875 25.6864H30.7313V26.5426H31.5875V25.6864Z" fill="#0F61FF"/>
<path d="M32.4437 25.6864H31.5875V26.5426H32.4437V25.6864Z" fill="#0F61FF"/>
<path d="M33.2999 25.6864H32.4437V26.5426H33.2999V25.6864Z" fill="#00D1FF"/>
<path d="M30.7312 26.5428H29.875V27.399H30.7312V26.5428Z" fill="#0F61FF"/>
<path d="M31.5875 26.5428H30.7313V27.399H31.5875V26.5428Z" fill="#00D1FF"/>
<path d="M32.4437 26.5428H31.5875V27.399H32.4437V26.5428Z" fill="#0F61FF"/>
<path d="M29.875 27.3989H29.0188V28.2551H29.875V27.3989Z" fill="#0F61FF"/>
<path d="M30.7312 27.3989H29.875V28.2551H30.7312V27.3989Z" fill="#0F61FF"/>
<path d="M31.5875 27.3989H30.7313V28.2551H31.5875V27.3989Z" fill="#0F61FF"/>
<path d="M29.0188 28.2551H28.1626V29.1113H29.0188V28.2551Z" fill="#0F61FF"/>
<path d="M29.875 28.2551H29.0188V29.1113H29.875V28.2551Z" fill="#0F61FF"/>
<path d="M30.7312 28.2551H29.875V29.1113H30.7312V28.2551Z" fill="#00D1FF"/>
<path d="M27.3064 29.1113H26.4502V29.9675H27.3064V29.1113Z" fill="#0F61FF"/>
<path d="M28.1627 29.1113H27.3065V29.9675H28.1627V29.1113Z" fill="#00D1FF"/>
<path d="M29.0188 29.1113H28.1626V29.9675H29.0188V29.1113Z" fill="#0F61FF"/>
<path d="M29.875 29.1113H29.0188V29.9675H29.875V29.1113Z" fill="#0F61FF"/>
<path d="M26.4502 29.9677H25.594V30.8239H26.4502V29.9677Z" fill="#0F61FF"/>
<path d="M27.3064 29.9677H26.4502V30.8239H27.3064V29.9677Z" fill="#0F61FF"/>
<path d="M28.1627 29.9677H27.3065V30.8239H28.1627V29.9677Z" fill="#0F61FF"/>
<path d="M29.0188 29.9677H28.1626V30.8239H29.0188V29.9677Z" fill="#0F61FF"/>
<path d="M25.594 30.8237H24.7378V31.6799H25.594V30.8237Z" fill="#0F61FF"/>
<path d="M26.4502 30.8237H25.594V31.6799H26.4502V30.8237Z" fill="#0F61FF"/>
<path d="M27.3064 30.8237H26.4502V31.6799H27.3064V30.8237Z" fill="#0F61FF"/>
<path d="M28.1627 30.8237H27.3065V31.6799H28.1627V30.8237Z" fill="#0F61FF"/>
<path d="M24.7378 31.68H23.8816V32.5362H24.7378V31.68Z" fill="#0F61FF"/>
<path d="M25.594 31.68H24.7378V32.5362H25.594V31.68Z" fill="#0F61FF"/>
<path d="M26.4502 31.68H25.594V32.5362H26.4502V31.68Z" fill="#0F61FF"/>
<path d="M27.3064 31.68H26.4502V32.5362H27.3064V31.68Z" fill="#0F61FF"/>
<path d="M13.6071 32.5362H12.7509V33.3924H13.6071V32.5362Z" fill="#0F61FF"/>
<path d="M23.8815 32.5362H23.0253V33.3924H23.8815V32.5362Z" fill="#0F61FF"/>
<path d="M24.7378 32.5362H23.8816V33.3924H24.7378V32.5362Z" fill="#0F61FF"/>
<path d="M25.594 32.5362H24.7378V33.3924H25.594V32.5362Z" fill="#0F61FF"/>
<path d="M26.4502 32.5362H25.594V33.3924H26.4502V32.5362Z" fill="#00D1FF"/>
<path d="M22.1691 33.3923H21.3129V34.2485H22.1691V33.3923Z" fill="#0F61FF"/>
<path d="M23.0253 33.3923H22.1691V34.2485H23.0253V33.3923Z" fill="#0F61FF"/>
<path d="M23.8815 33.3923H23.0253V34.2485H23.8815V33.3923Z" fill="#0F61FF"/>
<path d="M24.7378 33.3923H23.8816V34.2485H24.7378V33.3923Z" fill="#0F61FF"/>
<path d="M21.3129 34.2486H20.4567V35.1048H21.3129V34.2486Z" fill="#0F61FF"/>
<path d="M22.1691 34.2486H21.3129V35.1048H22.1691V34.2486Z" fill="#0F61FF"/>
<path d="M23.0253 34.2486H22.1691V35.1048H23.0253V34.2486Z" fill="#0F61FF"/>
<path d="M23.8815 34.2486H23.0253V35.1048H23.8815V34.2486Z" fill="#0F61FF"/>
<path d="M11.8947 35.1047H11.0385V35.9609H11.8947V35.1047Z" fill="#0F61FF"/>
<path d="M20.4568 35.1047H19.6006V35.9609H20.4568V35.1047Z" fill="#0F61FF"/>
<path d="M21.3129 35.1047H20.4567V35.9609H21.3129V35.1047Z" fill="#0F61FF"/>
<path d="M22.1691 35.1047H21.3129V35.9609H22.1691V35.1047Z" fill="#0F61FF"/>
<path d="M23.0253 35.1047H22.1691V35.9609H23.0253V35.1047Z" fill="#0F61FF"/>
<path d="M11.0385 35.9611H10.1823V36.8173H11.0385V35.9611Z" fill="#0F61FF"/>
<path d="M19.6005 35.9611H18.7443V36.8173H19.6005V35.9611Z" fill="#0F61FF"/>
<path d="M20.4568 35.9611H19.6006V36.8173H20.4568V35.9611Z" fill="#0F61FF"/>
<path d="M21.3129 35.9611H20.4567V36.8173H21.3129V35.9611Z" fill="#0F61FF"/>
<path d="M22.1691 35.9611H21.3129V36.8173H22.1691V35.9611Z" fill="#0F61FF"/>
<path d="M11.0385 36.8171H10.1823V37.6734H11.0385V36.8171Z" fill="#0F61FF"/>
<path d="M17.8881 36.8171H17.0319V37.6734H17.8881V36.8171Z" fill="#0F61FF"/>
<path d="M18.7443 36.8171H17.8881V37.6734H18.7443V36.8171Z" fill="#0F61FF"/>
<path d="M19.6005 36.8171H18.7443V37.6734H19.6005V36.8171Z" fill="#0F61FF"/>
<path d="M20.4568 36.8171H19.6006V37.6734H20.4568V36.8171Z" fill="#0F61FF"/>
<path d="M9.32594 37.6734H8.46973V38.5296H9.32594V37.6734Z" fill="#0F61FF"/>
<path d="M10.1821 37.6734H9.32593V38.5296H10.1821V37.6734Z" fill="#0F61FF"/>
<path d="M17.0319 37.6734H16.1757V38.5296H17.0319V37.6734Z" fill="#0F61FF"/>
<path d="M17.8881 37.6734H17.0319V38.5296H17.8881V37.6734Z" fill="#0F61FF"/>
<path d="M18.7443 37.6734H17.8881V38.5296H18.7443V37.6734Z" fill="#0F61FF"/>
<path d="M19.6005 37.6734H18.7443V38.5296H19.6005V37.6734Z" fill="#0F61FF"/>
<path d="M9.32594 38.5296H8.46973V39.3858H9.32594V38.5296Z" fill="#0F61FF"/>
<path d="M10.1821 38.5296H9.32593V39.3858H10.1821V38.5296Z" fill="#0F61FF"/>
<path d="M15.3193 38.5296H14.4631V39.3858H15.3193V38.5296Z" fill="#0F61FF"/>
<path d="M16.1755 38.5296H15.3193V39.3858H16.1755V38.5296Z" fill="#0F61FF"/>
<path d="M17.0319 38.5296H16.1757V39.3858H17.0319V38.5296Z" fill="#0F61FF"/>
<path d="M17.8881 38.5296H17.0319V39.3858H17.8881V38.5296Z" fill="#0F61FF"/>
<path d="M18.7443 38.5296H17.8881V39.3858H18.7443V38.5296Z" fill="#0F61FF"/>
<path d="M8.46974 39.3859H7.61353V40.2421H8.46974V39.3859Z" fill="#0F61FF"/>
<path d="M9.32594 39.3859H8.46973V40.2421H9.32594V39.3859Z" fill="#0F61FF"/>
<path d="M13.6071 39.3859H12.7509V40.2421H13.6071V39.3859Z" fill="#0F61FF"/>
<path d="M14.4633 39.3859H13.6071V40.2421H14.4633V39.3859Z" fill="#0F61FF"/>
<path d="M15.3193 39.3859H14.4631V40.2421H15.3193V39.3859Z" fill="#0F61FF"/>
<path d="M16.1755 39.3859H15.3193V40.2421H16.1755V39.3859Z" fill="#0F61FF"/>
<path d="M17.0319 39.3859H16.1757V40.2421H17.0319V39.3859Z" fill="#0F61FF"/>
<path d="M8.46974 40.2421H7.61353V41.0983H8.46974V40.2421Z" fill="#0F61FF"/>
<path d="M9.32594 40.2421H8.46973V41.0983H9.32594V40.2421Z" fill="#0F61FF"/>
<path d="M11.8947 40.2421H11.0385V41.0983H11.8947V40.2421Z" fill="#0F61FF"/>
<path d="M12.7507 40.2421H11.8945V41.0983H12.7507V40.2421Z" fill="#0F61FF"/>
<path d="M13.6071 40.2421H12.7509V41.0983H13.6071V40.2421Z" fill="#0F61FF"/>
<path d="M14.4633 40.2421H13.6071V41.0983H14.4633V40.2421Z" fill="#0F61FF"/>
<path d="M15.3193 40.2421H14.4631V41.0983H15.3193V40.2421Z" fill="#0F61FF"/>
<path d="M16.1755 40.2421H15.3193V41.0983H16.1755V40.2421Z" fill="#0F61FF"/>
<path d="M7.61354 41.0983H6.75732V41.9545H7.61354V41.0983Z" fill="#0F61FF"/>
<path d="M8.46974 41.0983H7.61353V41.9545H8.46974V41.0983Z" fill="#0F61FF"/>
<path d="M9.32594 41.0983H8.46973V41.9545H9.32594V41.0983Z" fill="#0F61FF"/>
<path d="M10.1821 41.0983H9.32593V41.9545H10.1821V41.0983Z" fill="#0F61FF"/>
<path d="M11.0385 41.0983H10.1823V41.9545H11.0385V41.0983Z" fill="#0F61FF"/>
<path d="M11.8947 41.0983H11.0385V41.9545H11.8947V41.0983Z" fill="#0F61FF"/>
<path d="M12.7507 41.0983H11.8945V41.9545H12.7507V41.0983Z" fill="#0F61FF"/>
<path d="M13.6071 41.0983H12.7509V41.9545H13.6071V41.0983Z" fill="#0F61FF"/>
<path d="M14.4633 41.0983H13.6071V41.9545H14.4633V41.0983Z" fill="#0F61FF"/>
<path d="M7.61354 41.9545H6.75732V42.8107H7.61354V41.9545Z" fill="#0F61FF"/>
<path d="M8.46974 41.9545H7.61353V42.8107H8.46974V41.9545Z" fill="#0F61FF"/>
<path d="M9.32594 41.9545H8.46973V42.8107H9.32594V41.9545Z" fill="#0F61FF"/>
<path d="M10.1821 41.9545H9.32593V42.8107H10.1821V41.9545Z" fill="#0F61FF"/>
<path d="M11.0385 41.9545H10.1823V42.8107H11.0385V41.9545Z" fill="#0F61FF"/>
<path d="M11.8947 41.9545H11.0385V42.8107H11.8947V41.9545Z" fill="#0F61FF"/>
<path d="M12.7507 41.9545H11.8945V42.8107H12.7507V41.9545Z" fill="#0F61FF"/>
<path opacity="0.062745" d="M13.6071 41.9545H12.7509V42.8107H13.6071V41.9545Z" fill="#0F61FF"/>
<path d="M7.61354 42.8108H6.75732V43.667H7.61354V42.8108Z" fill="#0F61FF"/>
<path d="M8.46974 42.8108H7.61353V43.667H8.46974V42.8108Z" fill="#0F61FF"/>
<path d="M9.32594 42.8108H8.46973V43.667H9.32594V42.8108Z" fill="#0F61FF"/>
<path d="M10.1821 42.8108H9.32593V43.667H10.1821V42.8108Z" fill="#0F61FF"/>
<path d="M11.0385 42.8108H10.1823V43.667H11.0385V42.8108Z" fill="#0F61FF"/>
<path d="M11.8947 42.8108H11.0385V43.667H11.8947V42.8108Z" fill="#0F61FF"/>
<path d="M7.61354 43.667H6.75732V44.5232H7.61354V43.667Z" fill="#0F61FF"/>
<path d="M8.46974 43.667H7.61353V44.5232H8.46974V43.667Z" fill="#0F61FF"/>
<path d="M9.32594 43.667H8.46973V44.5232H9.32594V43.667Z" fill="#0F61FF"/>
<path d="M10.1821 43.667H9.32593V44.5232H10.1821V43.667Z" fill="#0F61FF"/>
<path d="M51.2804 0H50.4242V0.856214H51.2804V0Z" fill="#00D1FF"/>
<path d="M52.1366 0H51.2804V0.856214H52.1366V0Z" fill="#00D1FF"/>
<path d="M52.9929 0H52.1367V0.856214H52.9929V0Z" fill="#00D1FF"/>
<path d="M53.849 0H52.9928V0.856214H53.849V0Z" fill="#00D1FF"/>
<path d="M49.5681 0.856323H48.7119V1.71254H49.5681V0.856323Z" fill="#00D1FF"/>
<path d="M50.4243 0.856323H49.5681V1.71254H50.4243V0.856323Z" fill="#00D1FF"/>
<path d="M51.2804 0.856323H50.4242V1.71254H51.2804V0.856323Z" fill="#00D1FF"/>
<path d="M52.1366 0.856323H51.2804V1.71254H52.1366V0.856323Z" fill="#00D1FF"/>
<path d="M52.9929 0.856323H52.1367V1.71254H52.9929V0.856323Z" fill="#00D1FF"/>
<path d="M53.849 0.856323H52.9928V1.71254H53.849V0.856323Z" fill="#00D1FF"/>
<path d="M47.8556 1.71265H46.9994V2.56886H47.8556V1.71265Z" fill="#00D1FF"/>
<path d="M48.7117 1.71265H47.8555V2.56886H48.7117V1.71265Z" fill="#00D1FF"/>
<path d="M49.5681 1.71265H48.7119V2.56886H49.5681V1.71265Z" fill="#00D1FF"/>
<path d="M50.4243 1.71265H49.5681V2.56886H50.4243V1.71265Z" fill="#00D1FF"/>
<path d="M51.2804 1.71265H50.4242V2.56886H51.2804V1.71265Z" fill="#00D1FF"/>
<path d="M52.1366 1.71265H51.2804V2.56886H52.1366V1.71265Z" fill="#00D1FF"/>
<path d="M52.9929 1.71265H52.1367V2.56886H52.9929V1.71265Z" fill="#00D1FF"/>
<path d="M53.849 1.71265H52.9928V2.56886H53.849V1.71265Z" fill="#00D1FF"/>
<path d="M46.9994 2.56873H46.1432V3.42494H46.9994V2.56873Z" fill="#00D1FF"/>
<path d="M47.8556 2.56873H46.9994V3.42494H47.8556V2.56873Z" fill="#00D1FF"/>
<path d="M50.4243 2.56873H49.5681V3.42494H50.4243V2.56873Z" fill="#00D1FF"/>
<path d="M51.2804 2.56873H50.4242V3.42494H51.2804V2.56873Z" fill="#00D1FF"/>
<path d="M52.1366 2.56873H51.2804V3.42494H52.1366V2.56873Z" fill="#00D1FF"/>
<path d="M52.9929 2.56873H52.1367V3.42494H52.9929V2.56873Z" fill="#00D1FF"/>
<path d="M45.2868 3.4248H44.4305V4.28102H45.2868V3.4248Z" fill="#00D1FF"/>
<path d="M50.4243 3.4248H49.5681V4.28102H50.4243V3.4248Z" fill="#00D1FF"/>
<path d="M51.2804 3.4248H50.4242V4.28102H51.2804V3.4248Z" fill="#00D1FF"/>
<path d="M52.1366 3.4248H51.2804V4.28102H52.1366V3.4248Z" fill="#00D1FF"/>
<path d="M52.9929 3.4248H52.1367V4.28102H52.9929V3.4248Z" fill="#00D1FF"/>
<path d="M50.4243 4.28101H49.5681V5.13722H50.4243V4.28101Z" fill="#00D1FF"/>
<path d="M51.2804 4.28101H50.4242V5.13722H51.2804V4.28101Z" fill="#00D1FF"/>
<path d="M52.1366 4.28101H51.2804V5.13722H52.1366V4.28101Z" fill="#00D1FF"/>
<path d="M42.7184 5.13745H41.8622V5.99366H42.7184V5.13745Z" fill="#00D1FF"/>
<path d="M49.5681 5.13745H48.7119V5.99366H49.5681V5.13745Z" fill="#00D1FF"/>
<path d="M50.4243 5.13745H49.5681V5.99366H50.4243V5.13745Z" fill="#00D1FF"/>
<path d="M51.2804 5.13745H50.4242V5.99366H51.2804V5.13745Z" fill="#00D1FF"/>
<path d="M52.1366 5.13745H51.2804V5.99366H52.1366V5.13745Z" fill="#00D1FF"/>
<path d="M49.5681 5.99353H48.7119V6.84974H49.5681V5.99353Z" fill="#00D1FF"/>
<path d="M50.4243 5.99353H49.5681V6.84974H50.4243V5.99353Z" fill="#00D1FF"/>
<path d="M51.2804 5.99353H50.4242V6.84974H51.2804V5.99353Z" fill="#00D1FF"/>
<path d="M48.7117 6.84973H47.8555V7.70595H48.7117V6.84973Z" fill="#00D1FF"/>
<path d="M49.5681 6.84973H48.7119V7.70595H49.5681V6.84973Z" fill="#00D1FF"/>
<path d="M50.4243 6.84973H49.5681V7.70595H50.4243V6.84973Z" fill="#00D1FF"/>
<path d="M47.8556 7.70593H46.9994V8.56215H47.8556V7.70593Z" fill="#00D1FF"/>
<path d="M48.7117 7.70593H47.8555V8.56215H48.7117V7.70593Z" fill="#00D1FF"/>
<path d="M49.5681 7.70593H48.7119V8.56215H49.5681V7.70593Z" fill="#00D1FF"/>
<path d="M50.4243 7.70593H49.5681V8.56215H50.4243V7.70593Z" fill="#00D1FF"/>
<path d="M47.8556 8.56213H46.9994V9.41835H47.8556V8.56213Z" fill="#00D1FF"/>
<path d="M48.7117 8.56213H47.8555V9.41835H48.7117V8.56213Z" fill="#0F61FF"/>
<path d="M49.5681 8.56213H48.7119V9.41835H49.5681V8.56213Z" fill="#00D1FF"/>
</svg>
