<svg width="80" height="54" viewBox="0 0 80 54" fill="none" xmlns="http://www.w3.org/2000/svg">
<path d="M58.2737 36.8558V33.9519H55.2674V17.6221H58.2737V14.6841H68.6592V17.6221H71.6997V22.2682H67.3269V19.3644H59.6061V23.4639H65.6529V28.0759H59.6061V32.2096H67.3269V29.2716H71.6997V33.9519H68.6592V36.8558H58.2737Z" fill="#0AF0FF"/>
<path d="M42.7428 36.8558V33.9519H39.7365V28.0759H36.7301V14.6841H41.0688V26.3336H44.0752V32.2096H45.7833V26.3336H48.7896V14.6841H53.1625V28.0759H50.122V33.9519H47.1156V36.8558H42.7428Z" fill="#0AF0FF"/>
<path d="M3.00633 36.856V33.9522H0V14.6843H4.33868V32.2099H12.0595V29.2719H16.4323V33.9522H13.3918V36.856H3.00633Z" fill="#0AF0FF"/>
<rect x="18.2381" y="17.6091" width="4.30146" height="4.64558" fill="#0AF0FF"/>
<rect x="30.1101" y="17.6091" width="4.47352" height="7.0544" fill="#0AF0FF"/>
<rect x="18.2381" y="29.3091" width="4.47352" height="4.64558" fill="#0AF0FF"/>
<rect x="22.7116" y="24.6636" width="7.39852" height="4.64558" fill="#0AF0FF"/>
<rect x="21.3351" y="32.2339" width="13.2485" height="4.64558" fill="#0AF0FF"/>
<rect x="21.1631" y="14.6841" width="10.4956" height="4.64558" fill="#0AF0FF"/>
<path d="M72.5937 11.4954V12.3616H72.4667V12.3771H71.6885V14.1404H72.5779V15.0685H73.4674V15.9347H74.3568V16.801H75.3574V15.9347H76.2469V15.0685H77.1363V14.094H78.0257V12.3616H77.1204V11.4954H75.3099V12.3616H74.4043V11.4954H72.5937Z" fill="#0AF0FF"/>
<path d="M59.5675 36.8558V33.9519H56.5612V17.6221H59.5675V14.6841H69.953V17.6221H72.9935V22.2682H68.6206V19.3644H60.8998V23.4639H66.9467V28.0759H60.8998V32.2096H68.6206V29.2716H72.9935V33.9519H69.953V36.8558H59.5675Z" fill="#FF00D6"/>
<path d="M44.0365 36.8558V33.9519H41.0302V28.0759H38.0239V14.6841H42.3625V26.3336H45.3689V32.2096H47.077V26.3336H50.0834V14.6841H54.4562V28.0759H51.4157V33.9519H48.4094V36.8558H44.0365Z" fill="#FF00D6"/>
<path d="M4.30003 36.856V33.9522H1.2937V14.6843H5.63238V32.2099H13.3532V29.2719H17.726V33.9522H14.6855V36.856H4.30003Z" fill="#FF00D6"/>
<rect x="19.5318" y="17.6091" width="4.30146" height="4.64558" fill="#FF00D6"/>
<rect x="31.4038" y="17.6091" width="4.47352" height="7.0544" fill="#FF00D6"/>
<rect x="19.5318" y="29.3091" width="4.47352" height="4.64558" fill="#FF00D6"/>
<rect x="24.0052" y="24.6636" width="7.39852" height="4.64558" fill="#FF00D6"/>
<rect x="22.6288" y="32.2339" width="13.2485" height="4.64558" fill="#FF00D6"/>
<rect x="22.4568" y="14.6841" width="10.4956" height="4.64558" fill="#FF00D6"/>
<path d="M73.8874 11.4954V12.3616H73.7604V12.3771H72.9821V14.1404H73.8716V15.0685H74.761V15.9347H75.6504V16.801H76.6511V15.9347H77.5405V15.0685H78.4299V14.094H79.3194V12.3616H78.414V11.4954H76.6035V12.3616H75.698V11.4954H73.8874Z" fill="#FF00D6"/>
<path d="M59.2439 36.8558V33.9519H56.2375V17.6221H59.2439V14.6841H69.6294V17.6221H72.6699V22.2682H68.297V19.3644H60.5762V23.4639H66.6231V28.0759H60.5762V32.2096H68.297V29.2716H72.6699V33.9519H69.6294V36.8558H59.2439Z" fill="#F7F7F7"/>
<path d="M43.7129 36.8558V33.9519H40.7066V28.0759H37.7003V14.6841H42.0389V26.3336H45.0453V32.2096H46.7534V26.3336H49.7597V14.6841H54.1326V28.0759H51.0921V33.9519H48.0858V36.8558H43.7129Z" fill="#F7F7F7"/>
<path d="M3.97661 36.856V33.9522H0.970276V14.6843H5.30896V32.2099H13.0298V29.2719H17.4026V33.9522H14.3621V36.856H3.97661Z" fill="#F7F7F7"/>
<rect x="19.2082" y="17.6091" width="4.30146" height="4.64558" fill="#F7F7F7"/>
<rect x="31.0802" y="17.6091" width="4.47352" height="7.0544" fill="#F7F7F7"/>
<rect x="19.2082" y="29.3091" width="4.47352" height="4.64558" fill="#F7F7F7"/>
<rect x="23.6818" y="24.6636" width="7.39852" height="4.64558" fill="#F7F7F7"/>
<rect x="22.3053" y="32.2339" width="13.2485" height="4.64558" fill="#F7F7F7"/>
<rect x="22.1332" y="14.6841" width="10.4956" height="4.64558" fill="#F7F7F7"/>
<path d="M73.564 11.4954V12.3616H73.437V12.3771H72.6587V14.1404H73.5481V15.0685H74.4376V15.9347H75.327V16.801H76.3276V15.9347H77.2171V15.0685H78.1065V14.094H78.9959V12.3616H78.0906V11.4954H76.2801V12.3616H75.3745V11.4954H73.564Z" fill="#F7F7F7"/>
<path d="M62.2043 0H61.1657V1.03861H62.2043V0Z" fill="#00D1FF"/>
<path d="M63.2429 0H62.2043V1.03861H63.2429V0Z" fill="#00D1FF"/>
<path d="M64.2817 0H63.243V1.03861H64.2817V0Z" fill="#00D1FF"/>
<path d="M65.3201 0H64.2815V1.03861H65.3201V0Z" fill="#00D1FF"/>
<path d="M60.1272 1.03857H59.0886V2.07718H60.1272V1.03857Z" fill="#00D1FF"/>
<path d="M61.1658 1.03857H60.1272V2.07718H61.1658V1.03857Z" fill="#00D1FF"/>
<path d="M62.2043 1.03857H61.1657V2.07718H62.2043V1.03857Z" fill="#00D1FF"/>
<path d="M63.2429 1.03857H62.2043V2.07718H63.2429V1.03857Z" fill="#00D1FF"/>
<path d="M64.2817 1.03857H63.243V2.07718H64.2817V1.03857Z" fill="#00D1FF"/>
<path d="M65.3201 1.03857H64.2815V2.07718H65.3201V1.03857Z" fill="#00D1FF"/>
<path d="M58.0499 2.07739H57.0113V3.116H58.0499V2.07739Z" fill="#00D1FF"/>
<path d="M59.0884 2.07739H58.0498V3.116H59.0884V2.07739Z" fill="#00D1FF"/>
<path d="M60.1272 2.07739H59.0886V3.116H60.1272V2.07739Z" fill="#00D1FF"/>
<path d="M61.1658 2.07739H60.1272V3.116H61.1658V2.07739Z" fill="#00D1FF"/>
<path d="M62.2043 2.07739H61.1657V3.116H62.2043V2.07739Z" fill="#00D1FF"/>
<path d="M63.2429 2.07739H62.2043V3.116H63.2429V2.07739Z" fill="#00D1FF"/>
<path d="M64.2817 2.07739H63.243V3.116H64.2817V2.07739Z" fill="#00D1FF"/>
<path d="M65.3201 2.07739H64.2815V3.116H65.3201V2.07739Z" fill="#00D1FF"/>
<path d="M57.0113 3.11597H55.9727V4.15457H57.0113V3.11597Z" fill="#00D1FF"/>
<path d="M58.0499 3.11597H57.0113V4.15457H58.0499V3.11597Z" fill="#00D1FF"/>
<path d="M61.1658 3.11597H60.1272V4.15457H61.1658V3.11597Z" fill="#00D1FF"/>
<path d="M62.2043 3.11597H61.1657V4.15457H62.2043V3.11597Z" fill="#00D1FF"/>
<path d="M63.2429 3.11597H62.2043V4.15457H63.2429V3.11597Z" fill="#00D1FF"/>
<path d="M64.2817 3.11597H63.243V4.15457H64.2817V3.11597Z" fill="#00D1FF"/>
<path d="M54.934 4.15454H53.8954V5.19315H54.934V4.15454Z" fill="#00D1FF"/>
<path d="M61.1658 4.15454H60.1272V5.19315H61.1658V4.15454Z" fill="#00D1FF"/>
<path d="M62.2043 4.15454H61.1657V5.19315H62.2043V4.15454Z" fill="#00D1FF"/>
<path d="M63.2429 4.15454H62.2043V5.19315H63.2429V4.15454Z" fill="#00D1FF"/>
<path d="M64.2817 4.15454H63.243V5.19315H64.2817V4.15454Z" fill="#00D1FF"/>
<path d="M61.1658 5.19312H60.1272V6.23172H61.1658V5.19312Z" fill="#00D1FF"/>
<path d="M62.2043 5.19312H61.1657V6.23172H62.2043V5.19312Z" fill="#00D1FF"/>
<path d="M63.2429 5.19312H62.2043V6.23172H63.2429V5.19312Z" fill="#00D1FF"/>
<path d="M51.8183 6.23169H50.7797V7.2703H51.8183V6.23169Z" fill="#00D1FF"/>
<path d="M60.1272 6.23169H59.0886V7.2703H60.1272V6.23169Z" fill="#00D1FF"/>
<path d="M61.1658 6.23169H60.1272V7.2703H61.1658V6.23169Z" fill="#00D1FF"/>
<path d="M62.2043 6.23169H61.1657V7.2703H62.2043V6.23169Z" fill="#00D1FF"/>
<path d="M63.2429 6.23169H62.2043V7.2703H63.2429V6.23169Z" fill="#00D1FF"/>
<path d="M60.1272 7.27026H59.0886V8.30887H60.1272V7.27026Z" fill="#00D1FF"/>
<path d="M61.1658 7.27026H60.1272V8.30887H61.1658V7.27026Z" fill="#00D1FF"/>
<path d="M62.2043 7.27026H61.1657V8.30887H62.2043V7.27026Z" fill="#00D1FF"/>
<path d="M59.0884 8.30884H58.0498V9.34745H59.0884V8.30884Z" fill="#00D1FF"/>
<path d="M60.1272 8.30884H59.0886V9.34745H60.1272V8.30884Z" fill="#00D1FF"/>
<path d="M61.1658 8.30884H60.1272V9.34745H61.1658V8.30884Z" fill="#00D1FF"/>
<path d="M58.0499 9.34741H57.0113V10.386H58.0499V9.34741Z" fill="#00D1FF"/>
<path d="M59.0884 9.34741H58.0498V10.386H59.0884V9.34741Z" fill="#00D1FF"/>
<path d="M60.1272 9.34741H59.0886V10.386H60.1272V9.34741Z" fill="#00D1FF"/>
<path d="M61.1658 9.34741H60.1272V10.386H61.1658V9.34741Z" fill="#00D1FF"/>
<path d="M58.0499 10.386H57.0113V11.4246H58.0499V10.386Z" fill="#00D1FF"/>
<path d="M59.0884 10.386H58.0498V11.4246H59.0884V10.386Z" fill="#00D1FF"/>
<path d="M60.1272 10.386H59.0886V11.4246H60.1272V10.386Z" fill="#00D1FF"/>
<path d="M57.0113 11.4246H55.9727V12.4632H57.0113V11.4246Z" fill="#00D1FF"/>
<path d="M58.0499 11.4246H57.0113V12.4632H58.0499V11.4246Z" fill="#00D1FF"/>
<path d="M59.0884 11.4246H58.0498V12.4632H59.0884V11.4246Z" fill="#00D1FF"/>
<path d="M60.1272 11.4246H59.0886V12.4632H60.1272V11.4246Z" fill="#00D1FF"/>
<path d="M55.9728 12.4634H54.9341V13.502H55.9728V12.4634Z" fill="#00D1FF"/>
<path d="M57.0113 12.4634H55.9727V13.502H57.0113V12.4634Z" fill="#0F61FF"/>
<path d="M58.0499 12.4634H57.0113V13.502H58.0499V12.4634Z" fill="#00D1FF"/>
<path d="M59.0884 12.4634H58.0498V13.502H59.0884V12.4634Z" fill="#00D1FF"/>
<path d="M54.934 13.502H53.8954V14.5406H54.934V13.502Z" fill="#00D1FF"/>
<path d="M55.9728 13.502H54.9341V14.5406H55.9728V13.502Z" fill="#0F61FF"/>
<path d="M57.0113 13.502H55.9727V14.5406H57.0113V13.502Z" fill="#00D1FF"/>
<path d="M58.0499 13.502H57.0113V14.5406H58.0499V13.502Z" fill="#0F61FF"/>
<path d="M53.8955 14.5405H52.8569V15.5791H53.8955V14.5405Z" fill="#00D1FF"/>
<path d="M54.934 14.5405H53.8954V15.5791H54.934V14.5405Z" fill="#0F61FF"/>
<path d="M55.9728 14.5405H54.9341V15.5791H55.9728V14.5405Z" fill="#0F61FF"/>
<path d="M57.0113 14.5405H55.9727V15.5791H57.0113V14.5405Z" fill="#00D1FF"/>
<path d="M53.8955 15.5791H52.8569V16.6177H53.8955V15.5791Z" fill="#0F61FF"/>
<path d="M54.934 15.5791H53.8954V16.6177H54.934V15.5791Z" fill="#00D1FF"/>
<path d="M55.9728 15.5791H54.9341V16.6177H55.9728V15.5791Z" fill="#00D1FF"/>
<path d="M52.8568 16.6177H51.8182V17.6563H52.8568V16.6177Z" fill="#00D1FF"/>
<path d="M53.8955 16.6177H52.8569V17.6563H53.8955V16.6177Z" fill="#00D1FF"/>
<path d="M54.934 16.6177H53.8954V17.6563H54.934V16.6177Z" fill="#00D1FF"/>
<path d="M51.8183 17.6562H50.7797V18.6949H51.8183V17.6562Z" fill="#0F61FF"/>
<path d="M52.8568 17.6562H51.8182V18.6949H52.8568V17.6562Z" fill="#00D1FF"/>
<path d="M53.8955 17.6562H52.8569V18.6949H53.8955V17.6562Z" fill="#00D1FF"/>
<path d="M50.7796 18.6948H49.741V19.7334H50.7796V18.6948Z" fill="#00D1FF"/>
<path d="M51.8183 18.6948H50.7797V19.7334H51.8183V18.6948Z" fill="#0F61FF"/>
<path d="M52.8568 18.6948H51.8182V19.7334H52.8568V18.6948Z" fill="#00D1FF"/>
<path d="M49.741 19.7334H48.7024V20.772H49.741V19.7334Z" fill="#0F61FF"/>
<path d="M50.7796 19.7334H49.741V20.772H50.7796V19.7334Z" fill="#00D1FF"/>
<path d="M51.8183 19.7334H50.7797V20.772H51.8183V19.7334Z" fill="#00D1FF"/>
<path d="M48.7025 20.772H47.6638V21.8106H48.7025V20.772Z" fill="#00D1FF"/>
<path d="M49.741 20.772H48.7024V21.8106H49.741V20.772Z" fill="#0F61FF"/>
<path d="M50.7796 20.772H49.741V21.8106H50.7796V20.772Z" fill="#0F61FF"/>
<path d="M47.6639 21.8108H46.6253V22.8494H47.6639V21.8108Z" fill="#00D1FF"/>
<path d="M48.7025 21.8108H47.6638V22.8494H48.7025V21.8108Z" fill="#0F61FF"/>
<path d="M49.741 21.8108H48.7024V22.8494H49.741V21.8108Z" fill="#00D1FF"/>
<path d="M46.6252 22.8494H45.5866V23.888H46.6252V22.8494Z" fill="#0F61FF"/>
<path d="M47.6639 22.8494H46.6253V23.888H47.6639V22.8494Z" fill="#00D1FF"/>
<path d="M48.7025 22.8494H47.6638V23.888H48.7025V22.8494Z" fill="#0F61FF"/>
<path d="M45.5866 23.8879H44.5479V24.9265H45.5866V23.8879Z" fill="#0F61FF"/>
<path d="M46.6252 23.8879H45.5866V24.9265H46.6252V23.8879Z" fill="#00D1FF"/>
<path d="M47.6639 23.8879H46.6253V24.9265H47.6639V23.8879Z" fill="#0F61FF"/>
<path d="M44.548 24.9268H43.5094V25.9654H44.548V24.9268Z" fill="#00D1FF"/>
<path d="M45.5866 24.9268H44.5479V25.9654H45.5866V24.9268Z" fill="#0F61FF"/>
<path d="M46.6252 24.9268H45.5866V25.9654H46.6252V24.9268Z" fill="#00D1FF"/>
<path d="M43.5094 25.9653H42.4708V27.0039H43.5094V25.9653Z" fill="#0F61FF"/>
<path d="M44.548 25.9653H43.5094V27.0039H44.548V25.9653Z" fill="#0F61FF"/>
<path d="M45.5866 25.9653H44.5479V27.0039H45.5866V25.9653Z" fill="#0F61FF"/>
<path d="M42.4709 27.0039H41.4323V28.0425H42.4709V27.0039Z" fill="#0F61FF"/>
<path d="M43.5094 27.0039H42.4708V28.0425H43.5094V27.0039Z" fill="#00D1FF"/>
<path d="M44.548 27.0039H43.5094V28.0425H44.548V27.0039Z" fill="#0F61FF"/>
<path d="M41.4322 28.0425H40.3936V29.0811H41.4322V28.0425Z" fill="#0F61FF"/>
<path d="M42.4709 28.0425H41.4323V29.0811H42.4709V28.0425Z" fill="#0F61FF"/>
<path d="M43.5094 28.0425H42.4708V29.0811H43.5094V28.0425Z" fill="#0F61FF"/>
<path d="M40.3935 29.0811H39.3549V30.1197H40.3935V29.0811Z" fill="#0F61FF"/>
<path d="M41.4322 29.0811H40.3936V30.1197H41.4322V29.0811Z" fill="#00D1FF"/>
<path d="M42.4709 29.0811H41.4323V30.1197H42.4709V29.0811Z" fill="#0F61FF"/>
<path d="M39.355 30.1196H38.3164V31.1582H39.355V30.1196Z" fill="#0F61FF"/>
<path d="M40.3935 30.1196H39.3549V31.1582H40.3935V30.1196Z" fill="#0F61FF"/>
<path d="M41.4322 30.1196H40.3936V31.1582H41.4322V30.1196Z" fill="#0F61FF"/>
<path d="M38.3164 31.1582H37.2778V32.1968H38.3164V31.1582Z" fill="#0F61FF"/>
<path d="M39.355 31.1582H38.3164V32.1968H39.355V31.1582Z" fill="#0F61FF"/>
<path d="M40.3935 31.1582H39.3549V32.1968H40.3935V31.1582Z" fill="#00D1FF"/>
<path d="M37.2777 32.197H36.2391V33.2356H37.2777V32.197Z" fill="#0F61FF"/>
<path d="M38.3164 32.197H37.2778V33.2356H38.3164V32.197Z" fill="#00D1FF"/>
<path d="M39.355 32.197H38.3164V33.2356H39.355V32.197Z" fill="#0F61FF"/>
<path d="M36.2391 33.2356H35.2005V34.2742H36.2391V33.2356Z" fill="#0F61FF"/>
<path d="M37.2777 33.2356H36.2391V34.2742H37.2777V33.2356Z" fill="#0F61FF"/>
<path d="M38.3164 33.2356H37.2778V34.2742H38.3164V33.2356Z" fill="#0F61FF"/>
<path d="M35.2005 34.2742H34.1619V35.3128H35.2005V34.2742Z" fill="#0F61FF"/>
<path d="M36.2391 34.2742H35.2005V35.3128H36.2391V34.2742Z" fill="#0F61FF"/>
<path d="M37.2777 34.2742H36.2391V35.3128H37.2777V34.2742Z" fill="#00D1FF"/>
<path d="M33.1233 35.3127H32.0847V36.3514H33.1233V35.3127Z" fill="#0F61FF"/>
<path d="M34.162 35.3127H33.1234V36.3514H34.162V35.3127Z" fill="#00D1FF"/>
<path d="M35.2005 35.3127H34.1619V36.3514H35.2005V35.3127Z" fill="#0F61FF"/>
<path d="M36.2391 35.3127H35.2005V36.3514H36.2391V35.3127Z" fill="#0F61FF"/>
<path d="M32.0847 36.3513H31.0461V37.3899H32.0847V36.3513Z" fill="#0F61FF"/>
<path d="M33.1233 36.3513H32.0847V37.3899H33.1233V36.3513Z" fill="#0F61FF"/>
<path d="M34.162 36.3513H33.1234V37.3899H34.162V36.3513Z" fill="#0F61FF"/>
<path d="M35.2005 36.3513H34.1619V37.3899H35.2005V36.3513Z" fill="#0F61FF"/>
<path d="M31.0461 37.3899H30.0075V38.4285H31.0461V37.3899Z" fill="#0F61FF"/>
<path d="M32.0847 37.3899H31.0461V38.4285H32.0847V37.3899Z" fill="#0F61FF"/>
<path d="M33.1233 37.3899H32.0847V38.4285H33.1233V37.3899Z" fill="#0F61FF"/>
<path d="M34.162 37.3899H33.1234V38.4285H34.162V37.3899Z" fill="#0F61FF"/>
<path d="M30.0076 38.4285H28.969V39.4671H30.0076V38.4285Z" fill="#0F61FF"/>
<path d="M31.0461 38.4285H30.0075V39.4671H31.0461V38.4285Z" fill="#0F61FF"/>
<path d="M32.0847 38.4285H31.0461V39.4671H32.0847V38.4285Z" fill="#0F61FF"/>
<path d="M33.1233 38.4285H32.0847V39.4671H33.1233V38.4285Z" fill="#0F61FF"/>
<path d="M16.5056 39.467H15.467V40.5056H16.5056V39.467Z" fill="#0F61FF"/>
<path d="M28.9688 39.467H27.9302V40.5056H28.9688V39.467Z" fill="#0F61FF"/>
<path d="M30.0076 39.467H28.969V40.5056H30.0076V39.467Z" fill="#0F61FF"/>
<path d="M31.0461 39.467H30.0075V40.5056H31.0461V39.467Z" fill="#0F61FF"/>
<path d="M32.0847 39.467H31.0461V40.5056H32.0847V39.467Z" fill="#00D1FF"/>
<path d="M26.8916 40.5056H25.853V41.5442H26.8916V40.5056Z" fill="#0F61FF"/>
<path d="M27.9302 40.5056H26.8916V41.5442H27.9302V40.5056Z" fill="#0F61FF"/>
<path d="M28.9688 40.5056H27.9302V41.5442H28.9688V40.5056Z" fill="#0F61FF"/>
<path d="M30.0076 40.5056H28.969V41.5442H30.0076V40.5056Z" fill="#0F61FF"/>
<path d="M25.853 41.5442H24.8144V42.5828H25.853V41.5442Z" fill="#0F61FF"/>
<path d="M26.8916 41.5442H25.853V42.5828H26.8916V41.5442Z" fill="#0F61FF"/>
<path d="M27.9302 41.5442H26.8916V42.5828H27.9302V41.5442Z" fill="#0F61FF"/>
<path d="M28.9688 41.5442H27.9302V42.5828H28.9688V41.5442Z" fill="#0F61FF"/>
<path d="M14.4284 42.5828H13.3898V43.6214H14.4284V42.5828Z" fill="#0F61FF"/>
<path d="M24.8145 42.5828H23.7759V43.6214H24.8145V42.5828Z" fill="#0F61FF"/>
<path d="M25.853 42.5828H24.8144V43.6214H25.853V42.5828Z" fill="#0F61FF"/>
<path d="M26.8916 42.5828H25.853V43.6214H26.8916V42.5828Z" fill="#0F61FF"/>
<path d="M27.9302 42.5828H26.8916V43.6214H27.9302V42.5828Z" fill="#0F61FF"/>
<path d="M13.3898 43.6216H12.3512V44.6602H13.3898V43.6216Z" fill="#0F61FF"/>
<path d="M23.7758 43.6216H22.7372V44.6602H23.7758V43.6216Z" fill="#0F61FF"/>
<path d="M24.8145 43.6216H23.7759V44.6602H24.8145V43.6216Z" fill="#0F61FF"/>
<path d="M25.853 43.6216H24.8144V44.6602H25.853V43.6216Z" fill="#0F61FF"/>
<path d="M26.8916 43.6216H25.853V44.6602H26.8916V43.6216Z" fill="#0F61FF"/>
<path d="M13.3898 44.6602H12.3512V45.6988H13.3898V44.6602Z" fill="#0F61FF"/>
<path d="M21.6986 44.6602H20.66V45.6988H21.6986V44.6602Z" fill="#0F61FF"/>
<path d="M22.7372 44.6602H21.6986V45.6988H22.7372V44.6602Z" fill="#0F61FF"/>
<path d="M23.7758 44.6602H22.7372V45.6988H23.7758V44.6602Z" fill="#0F61FF"/>
<path d="M24.8145 44.6602H23.7759V45.6988H24.8145V44.6602Z" fill="#0F61FF"/>
<path d="M11.3125 45.6987H10.2739V46.7373H11.3125V45.6987Z" fill="#0F61FF"/>
<path d="M12.3512 45.6987H11.3126V46.7373H12.3512V45.6987Z" fill="#0F61FF"/>
<path d="M20.6601 45.6987H19.6215V46.7373H20.6601V45.6987Z" fill="#0F61FF"/>
<path d="M21.6986 45.6987H20.66V46.7373H21.6986V45.6987Z" fill="#0F61FF"/>
<path d="M22.7372 45.6987H21.6986V46.7373H22.7372V45.6987Z" fill="#0F61FF"/>
<path d="M23.7758 45.6987H22.7372V46.7373H23.7758V45.6987Z" fill="#0F61FF"/>
<path d="M11.3125 46.7373H10.2739V47.7759H11.3125V46.7373Z" fill="#0F61FF"/>
<path d="M12.3512 46.7373H11.3126V47.7759H12.3512V46.7373Z" fill="#0F61FF"/>
<path d="M18.5828 46.7373H17.5442V47.7759H18.5828V46.7373Z" fill="#0F61FF"/>
<path d="M19.6213 46.7373H18.5827V47.7759H19.6213V46.7373Z" fill="#0F61FF"/>
<path d="M20.6601 46.7373H19.6215V47.7759H20.6601V46.7373Z" fill="#0F61FF"/>
<path d="M21.6986 46.7373H20.66V47.7759H21.6986V46.7373Z" fill="#0F61FF"/>
<path d="M22.7372 46.7373H21.6986V47.7759H22.7372V46.7373Z" fill="#0F61FF"/>
<path d="M10.2739 47.7761H9.23532V48.8147H10.2739V47.7761Z" fill="#0F61FF"/>
<path d="M11.3125 47.7761H10.2739V48.8147H11.3125V47.7761Z" fill="#0F61FF"/>
<path d="M16.5056 47.7761H15.467V48.8147H16.5056V47.7761Z" fill="#0F61FF"/>
<path d="M17.5442 47.7761H16.5056V48.8147H17.5442V47.7761Z" fill="#0F61FF"/>
<path d="M18.5828 47.7761H17.5442V48.8147H18.5828V47.7761Z" fill="#0F61FF"/>
<path d="M19.6213 47.7761H18.5827V48.8147H19.6213V47.7761Z" fill="#0F61FF"/>
<path d="M20.6601 47.7761H19.6215V48.8147H20.6601V47.7761Z" fill="#0F61FF"/>
<path d="M10.2739 48.8145H9.23532V49.8531H10.2739V48.8145Z" fill="#0F61FF"/>
<path d="M11.3125 48.8145H10.2739V49.8531H11.3125V48.8145Z" fill="#0F61FF"/>
<path d="M14.4284 48.8145H13.3898V49.8531H14.4284V48.8145Z" fill="#0F61FF"/>
<path d="M15.4669 48.8145H14.4283V49.8531H15.4669V48.8145Z" fill="#0F61FF"/>
<path d="M16.5056 48.8145H15.467V49.8531H16.5056V48.8145Z" fill="#0F61FF"/>
<path d="M17.5442 48.8145H16.5056V49.8531H17.5442V48.8145Z" fill="#0F61FF"/>
<path d="M18.5828 48.8145H17.5442V49.8531H18.5828V48.8145Z" fill="#0F61FF"/>
<path d="M19.6213 48.8145H18.5827V49.8531H19.6213V48.8145Z" fill="#0F61FF"/>
<path d="M9.23535 49.8533H8.19675V50.8919H9.23535V49.8533Z" fill="#0F61FF"/>
<path d="M10.2739 49.8533H9.23532V50.8919H10.2739V49.8533Z" fill="#0F61FF"/>
<path d="M11.3125 49.8533H10.2739V50.8919H11.3125V49.8533Z" fill="#0F61FF"/>
<path d="M12.3512 49.8533H11.3126V50.8919H12.3512V49.8533Z" fill="#0F61FF"/>
<path d="M13.3898 49.8533H12.3512V50.8919H13.3898V49.8533Z" fill="#0F61FF"/>
<path d="M14.4284 49.8533H13.3898V50.8919H14.4284V49.8533Z" fill="#0F61FF"/>
<path d="M15.4669 49.8533H14.4283V50.8919H15.4669V49.8533Z" fill="#0F61FF"/>
<path d="M16.5056 49.8533H15.467V50.8919H16.5056V49.8533Z" fill="#0F61FF"/>
<path d="M17.5442 49.8533H16.5056V50.8919H17.5442V49.8533Z" fill="#0F61FF"/>
<path d="M9.23535 50.8918H8.19675V51.9305H9.23535V50.8918Z" fill="#0F61FF"/>
<path d="M10.2739 50.8918H9.23532V51.9305H10.2739V50.8918Z" fill="#0F61FF"/>
<path d="M11.3125 50.8918H10.2739V51.9305H11.3125V50.8918Z" fill="#0F61FF"/>
<path d="M12.3512 50.8918H11.3126V51.9305H12.3512V50.8918Z" fill="#0F61FF"/>
<path d="M13.3898 50.8918H12.3512V51.9305H13.3898V50.8918Z" fill="#0F61FF"/>
<path d="M14.4284 50.8918H13.3898V51.9305H14.4284V50.8918Z" fill="#0F61FF"/>
<path d="M15.4669 50.8918H14.4283V51.9305H15.4669V50.8918Z" fill="#0F61FF"/>
<path opacity="0.062745" d="M16.5056 50.8918H15.467V51.9305H16.5056V50.8918Z" fill="#0F61FF"/>
<path d="M9.23535 51.9304H8.19675V52.969H9.23535V51.9304Z" fill="#0F61FF"/>
<path d="M10.2739 51.9304H9.23532V52.969H10.2739V51.9304Z" fill="#0F61FF"/>
<path d="M11.3125 51.9304H10.2739V52.969H11.3125V51.9304Z" fill="#0F61FF"/>
<path d="M12.3512 51.9304H11.3126V52.969H12.3512V51.9304Z" fill="#0F61FF"/>
<path d="M13.3898 51.9304H12.3512V52.969H13.3898V51.9304Z" fill="#0F61FF"/>
<path d="M14.4284 51.9304H13.3898V52.969H14.4284V51.9304Z" fill="#0F61FF"/>
<path d="M9.23535 52.969H8.19675V54.0076H9.23535V52.969Z" fill="#0F61FF"/>
<path d="M10.2739 52.969H9.23532V54.0076H10.2739V52.969Z" fill="#0F61FF"/>
<path d="M11.3125 52.969H10.2739V54.0076H11.3125V52.969Z" fill="#0F61FF"/>
<path d="M12.3512 52.969H11.3126V54.0076H12.3512V52.969Z" fill="#0F61FF"/>
<path d="M62.2043 0H61.1657V1.03861H62.2043V0Z" fill="#00D1FF"/>
<path d="M63.2429 0H62.2043V1.03861H63.2429V0Z" fill="#00D1FF"/>
<path d="M64.2817 0H63.243V1.03861H64.2817V0Z" fill="#00D1FF"/>
<path d="M65.3201 0H64.2815V1.03861H65.3201V0Z" fill="#00D1FF"/>
<path d="M60.1272 1.03857H59.0886V2.07718H60.1272V1.03857Z" fill="#00D1FF"/>
<path d="M61.1658 1.03857H60.1272V2.07718H61.1658V1.03857Z" fill="#00D1FF"/>
<path d="M62.2043 1.03857H61.1657V2.07718H62.2043V1.03857Z" fill="#00D1FF"/>
<path d="M63.2429 1.03857H62.2043V2.07718H63.2429V1.03857Z" fill="#00D1FF"/>
<path d="M64.2817 1.03857H63.243V2.07718H64.2817V1.03857Z" fill="#00D1FF"/>
<path d="M65.3201 1.03857H64.2815V2.07718H65.3201V1.03857Z" fill="#00D1FF"/>
<path d="M58.0499 2.07739H57.0113V3.116H58.0499V2.07739Z" fill="#00D1FF"/>
<path d="M59.0884 2.07739H58.0498V3.116H59.0884V2.07739Z" fill="#00D1FF"/>
<path d="M60.1272 2.07739H59.0886V3.116H60.1272V2.07739Z" fill="#00D1FF"/>
<path d="M61.1658 2.07739H60.1272V3.116H61.1658V2.07739Z" fill="#00D1FF"/>
<path d="M62.2043 2.07739H61.1657V3.116H62.2043V2.07739Z" fill="#00D1FF"/>
<path d="M63.2429 2.07739H62.2043V3.116H63.2429V2.07739Z" fill="#00D1FF"/>
<path d="M64.2817 2.07739H63.243V3.116H64.2817V2.07739Z" fill="#00D1FF"/>
<path d="M65.3201 2.07739H64.2815V3.116H65.3201V2.07739Z" fill="#00D1FF"/>
<path d="M57.0113 3.11597H55.9727V4.15457H57.0113V3.11597Z" fill="#00D1FF"/>
<path d="M58.0499 3.11597H57.0113V4.15457H58.0499V3.11597Z" fill="#00D1FF"/>
<path d="M61.1658 3.11597H60.1272V4.15457H61.1658V3.11597Z" fill="#00D1FF"/>
<path d="M62.2043 3.11597H61.1657V4.15457H62.2043V3.11597Z" fill="#00D1FF"/>
<path d="M63.2429 3.11597H62.2043V4.15457H63.2429V3.11597Z" fill="#00D1FF"/>
<path d="M64.2817 3.11597H63.243V4.15457H64.2817V3.11597Z" fill="#00D1FF"/>
<path d="M54.934 4.15454H53.8954V5.19315H54.934V4.15454Z" fill="#00D1FF"/>
<path d="M61.1658 4.15454H60.1272V5.19315H61.1658V4.15454Z" fill="#00D1FF"/>
<path d="M62.2043 4.15454H61.1657V5.19315H62.2043V4.15454Z" fill="#00D1FF"/>
<path d="M63.2429 4.15454H62.2043V5.19315H63.2429V4.15454Z" fill="#00D1FF"/>
<path d="M64.2817 4.15454H63.243V5.19315H64.2817V4.15454Z" fill="#00D1FF"/>
<path d="M61.1658 5.19312H60.1272V6.23172H61.1658V5.19312Z" fill="#00D1FF"/>
<path d="M62.2043 5.19312H61.1657V6.23172H62.2043V5.19312Z" fill="#00D1FF"/>
<path d="M63.2429 5.19312H62.2043V6.23172H63.2429V5.19312Z" fill="#00D1FF"/>
<path d="M51.8183 6.23169H50.7797V7.2703H51.8183V6.23169Z" fill="#00D1FF"/>
<path d="M60.1272 6.23169H59.0886V7.2703H60.1272V6.23169Z" fill="#00D1FF"/>
<path d="M61.1658 6.23169H60.1272V7.2703H61.1658V6.23169Z" fill="#00D1FF"/>
<path d="M62.2043 6.23169H61.1657V7.2703H62.2043V6.23169Z" fill="#00D1FF"/>
<path d="M63.2429 6.23169H62.2043V7.2703H63.2429V6.23169Z" fill="#00D1FF"/>
<path d="M60.1272 7.27026H59.0886V8.30887H60.1272V7.27026Z" fill="#00D1FF"/>
<path d="M61.1658 7.27026H60.1272V8.30887H61.1658V7.27026Z" fill="#00D1FF"/>
<path d="M62.2043 7.27026H61.1657V8.30887H62.2043V7.27026Z" fill="#00D1FF"/>
<path d="M59.0884 8.30884H58.0498V9.34745H59.0884V8.30884Z" fill="#00D1FF"/>
<path d="M60.1272 8.30884H59.0886V9.34745H60.1272V8.30884Z" fill="#00D1FF"/>
<path d="M61.1658 8.30884H60.1272V9.34745H61.1658V8.30884Z" fill="#00D1FF"/>
<path d="M58.0499 9.34741H57.0113V10.386H58.0499V9.34741Z" fill="#00D1FF"/>
<path d="M59.0884 9.34741H58.0498V10.386H59.0884V9.34741Z" fill="#00D1FF"/>
<path d="M60.1272 9.34741H59.0886V10.386H60.1272V9.34741Z" fill="#00D1FF"/>
<path d="M61.1658 9.34741H60.1272V10.386H61.1658V9.34741Z" fill="#00D1FF"/>
<path d="M58.0499 10.386H57.0113V11.4246H58.0499V10.386Z" fill="#00D1FF"/>
<path d="M59.0884 10.386H58.0498V11.4246H59.0884V10.386Z" fill="#0F61FF"/>
<path d="M60.1272 10.386H59.0886V11.4246H60.1272V10.386Z" fill="#00D1FF"/>
</svg>
