<svg width="33" height="61" viewBox="0 0 33 61" fill="none" xmlns="http://www.w3.org/2000/svg">
<rect x="16.0168" y="24.0254" width="4.00421" height="4.00421" fill="#F7F7F8"/>
<rect y="28.0294" width="4.00421" height="4.00421" fill="#3165B1"/>
<rect x="16.0168" y="4.00427" width="4.00421" height="4.00421" fill="#50DBFB"/>
<rect x="16.0168" y="28.0294" width="4.00421" height="4.00421" fill="#D1E4E8"/>
<rect x="16.0168" y="8.00818" width="4.00421" height="4.00421" fill="#FBFEFF"/>
<rect x="16.0168" y="32.0336" width="4.00421" height="4.00421" fill="#FFE6F0"/>
<rect y="48.0504" width="4.00421" height="4.00421" fill="#251056"/>
<rect x="16.0168" y="12.0127" width="4.00421" height="4.00421" fill="#FBFEFF"/>
<rect x="16.0168" y="36.0377" width="4.00421" height="4.00421" fill="#F74D91"/>
<rect x="16.0168" y="16.0167" width="4.00421" height="4.00421" fill="#FBFEFF"/>
<rect x="16.0168" y="20.0211" width="4.00421" height="4.00421" fill="#FBFEFF"/>
<rect x="4.00415" y="24.0254" width="4.00421" height="4.00421" fill="#1380C7"/>
<rect x="20.021" y="24.0254" width="4.00421" height="4.00421" fill="#4A4D9E"/>
<rect x="4.00415" y="28.0294" width="4.00421" height="4.00421" fill="#3165B1"/>
<rect x="20.021" y="28.0294" width="4.00421" height="4.00421" fill="#B7CED8"/>
<rect x="20.021" y="8.00818" width="4.00421" height="4.00421" fill="#06A2E3"/>
<rect x="20.021" y="32.0336" width="4.00421" height="4.00421" fill="#EE99BB"/>
<rect x="20.021" y="12.0127" width="4.00421" height="4.00421" fill="#0D91D5"/>
<rect x="20.021" y="48.0504" width="4.00421" height="4.00421" fill="#46003C"/>
<rect x="20.021" y="16.0167" width="4.00421" height="4.00421" fill="#1380C7"/>
<rect x="20.021" y="20.0211" width="4.00421" height="4.00421" fill="#3165B1"/>
<rect x="8.00842" y="24.0254" width="4.00421" height="4.00421" fill="#4A4D9E"/>
<rect x="24.0253" y="24.0254" width="4.00421" height="4.00421" fill="#1380C7"/>
<rect x="8.00842" y="28.0294" width="4.00421" height="4.00421" fill="#72338B"/>
<rect x="24.0253" y="28.0294" width="4.00421" height="4.00421" fill="#7FC1DD"/>
<rect x="8.00842" y="8.00818" width="4.00421" height="4.00421" fill="#06A2E3"/>
<rect x="8.00842" y="32.0336" width="4.00421" height="4.00421" fill="#989DC6"/>
<rect x="8.00842" y="12.0127" width="4.00421" height="4.00421" fill="#0D91D5"/>
<rect x="8.00842" y="16.0167" width="4.00421" height="4.00421" fill="#1380C7"/>
<rect x="8.00842" y="52.0548" width="4.00421" height="4.00421" fill="#1D194D"/>
<rect x="24.0253" y="40.042" width="4.00421" height="4.00421" fill="#161450"/>
<rect x="8.00842" y="20.0211" width="4.00421" height="4.00421" fill="#3165B1"/>
<rect x="24.0253" y="56.0588" width="4.00421" height="4.00421" fill="#31046C"/>
<rect x="12.0126" y="24.0254" width="4.00421" height="4.00421" fill="#FBFEFF"/>
<rect x="12.0126" y="4.00427" width="4.00421" height="4.00421" fill="#0FCEF9"/>
<rect x="12.0126" y="28.0294" width="4.00421" height="4.00421" fill="#E6E6E6"/>
<rect x="28.0294" y="28.0294" width="4.00421" height="4.00421" fill="#1A70B9"/>
<rect x="12.0126" y="8.00818" width="4.00421" height="4.00421" fill="#FBFEFF"/>
<rect x="12.0126" y="32.0336" width="4.00421" height="4.00421" fill="#C5A7C3"/>
<rect x="12.0126" y="12.0127" width="4.00421" height="4.00421" fill="#3165B1"/>
<rect x="12.0126" y="16.0167" width="4.00421" height="4.00421" fill="#FBFEFF"/>
<rect x="12.0126" y="40.042" width="4.00421" height="4.00421" fill="#FF0066"/>
<rect x="12.0126" y="20.0211" width="4.00421" height="4.00421" fill="#FBFEFF"/>
</svg>
