<svg width="210" height="217" viewBox="0 0 210 217" fill="none" xmlns="http://www.w3.org/2000/svg">
<g filter="url(#filter0_d_255_21)">
<path d="M98.2893 160.284V151.963V147.572C98.2893 142.256 99.2138 137.402 101.294 133.473C103.374 129.544 105.916 126.077 109.383 123.072C112.619 120.067 116.317 117.525 120.246 115.214C124.175 112.902 128.105 110.591 132.034 108.511C135.963 106.431 139.661 104.12 142.897 101.808C146.132 99.4971 148.906 96.724 150.986 93.719C153.066 90.714 153.991 87.2471 153.991 83.0871C153.991 77.7711 152.142 73.38 148.444 69.913C144.746 66.446 139.661 64.828 133.189 64.828C126.256 64.828 120.708 66.677 116.548 70.606C112.388 74.535 110.077 79.62 109.383 86.323H95.978C96.2091 80.082 97.5959 74.5351 100.6 69.6821C103.374 64.5971 107.765 60.668 113.312 57.663C118.859 54.658 125.793 53.04 133.883 53.04C141.048 53.04 147.057 54.1961 152.373 56.7381C157.689 59.2811 161.618 62.7481 164.392 67.1391C167.165 71.5311 168.552 76.847 168.552 82.856C168.552 88.403 167.627 93.025 165.547 96.955C163.467 100.884 160.925 104.12 157.689 107.124C154.453 109.898 150.755 112.44 146.826 114.751C142.897 117.063 138.968 119.143 135.038 121.223C131.109 123.303 127.411 125.383 124.175 127.695C120.94 130.006 118.397 132.548 116.317 135.553C114.237 138.558 113.312 142.025 113.312 145.954V148.034H169.014V160.052H98.2893V160.284Z" fill="#0052FF"/>
<g opacity="0.2">
<path d="M36.3467 160.284V148.265H92.0484V146.185C92.0484 142.256 91.1239 138.558 89.0438 135.784C86.9636 132.779 84.4212 130.237 81.1854 127.926C77.9496 125.614 74.2516 123.534 70.3224 121.454C66.3933 119.374 62.4641 117.294 58.5349 114.983C54.6058 112.671 51.1388 110.129 47.6719 107.355C44.4361 104.582 41.6626 101.115 39.8136 97.186C37.7334 93.257 36.8089 88.634 36.8089 83.087C36.8089 77.078 38.1957 71.762 40.9692 67.37C43.7428 62.979 47.9031 59.281 52.9879 56.97C58.3038 54.427 64.3131 53.272 71.4781 53.272C79.5675 53.272 86.5014 54.889 92.0484 57.894C97.5955 60.899 101.756 64.828 104.76 69.913C107.534 74.998 109.152 80.545 109.383 86.554H95.9776C95.5153 80.082 92.9729 74.766 88.8126 70.837C84.6523 66.908 79.1053 65.059 72.1714 65.059C65.6999 65.059 60.6151 66.677 56.917 70.144C53.219 73.611 51.37 77.771 51.37 83.318C51.37 87.247 52.2945 90.945 54.3746 93.95C56.4548 96.955 58.9972 99.728 62.4641 102.039C65.6999 104.351 69.3979 106.662 73.3271 108.742C77.2563 110.822 81.1854 113.134 85.1146 115.445C89.0438 117.756 92.7418 120.53 95.9776 123.303C99.2134 126.308 101.987 129.775 104.067 133.704C106.147 137.633 107.072 142.256 107.072 147.803V151.963V160.284H36.3467Z" fill="#0052FF"/>
</g>
<g filter="url(#filter1_d_255_21)">
<path d="M102.5 209C159.109 209 205 163.109 205 106.5C205 49.8908 159.109 4 102.5 4C45.8908 4 0 49.8908 0 106.5C0 163.109 45.8908 209 102.5 209Z" fill="url(#paint0_linear_255_21)" fill-opacity="0.3" shape-rendering="crispEdges"/>
<path d="M204.5 106.5C204.5 162.833 158.833 208.5 102.5 208.5C46.167 208.5 0.5 162.833 0.5 106.5C0.5 50.167 46.167 4.5 102.5 4.5C158.833 4.5 204.5 50.167 204.5 106.5Z" stroke="url(#paint1_linear_255_21)" shape-rendering="crispEdges"/>
</g>
</g>
<defs>
<filter id="filter0_d_255_21" x="-3" y="4" width="213" height="213" filterUnits="userSpaceOnUse" color-interpolation-filters="sRGB">
<feFlood flood-opacity="0" result="BackgroundImageFix"/>
<feColorMatrix in="SourceAlpha" type="matrix" values="0 0 0 0 0 0 0 0 0 0 0 0 0 0 0 0 0 0 127 0" result="hardAlpha"/>
<feOffset dx="1" dy="4"/>
<feGaussianBlur stdDeviation="2"/>
<feComposite in2="hardAlpha" operator="out"/>
<feColorMatrix type="matrix" values="0 0 0 0 0 0 0 0 0 0 0 0 0 0 0 0 0 0 0.5 0"/>
<feBlend mode="normal" in2="BackgroundImageFix" result="effect1_dropShadow_255_21"/>
<feBlend mode="normal" in="SourceGraphic" in2="effect1_dropShadow_255_21" result="shape"/>
</filter>
<filter id="filter1_d_255_21" x="-3" y="0" width="213" height="213" filterUnits="userSpaceOnUse" color-interpolation-filters="sRGB">
<feFlood flood-opacity="0" result="BackgroundImageFix"/>
<feColorMatrix in="SourceAlpha" type="matrix" values="0 0 0 0 0 0 0 0 0 0 0 0 0 0 0 0 0 0 127 0" result="hardAlpha"/>
<feOffset dx="1"/>
<feGaussianBlur stdDeviation="2"/>
<feComposite in2="hardAlpha" operator="out"/>
<feColorMatrix type="matrix" values="0 0 0 0 0 0 0 0 0 0 0 0 0 0 0 0 0 0 0.5 0"/>
<feBlend mode="normal" in2="BackgroundImageFix" result="effect1_dropShadow_255_21"/>
<feBlend mode="normal" in="SourceGraphic" in2="effect1_dropShadow_255_21" result="shape"/>
</filter>
<linearGradient id="paint0_linear_255_21" x1="102.5" y1="4" x2="102.5" y2="209" gradientUnits="userSpaceOnUse">
<stop stop-color="#0052FF"/>
<stop offset="1" stop-color="#0052FF" stop-opacity="0.19"/>
</linearGradient>
<linearGradient id="paint1_linear_255_21" x1="102.5" y1="4" x2="102.5" y2="209" gradientUnits="userSpaceOnUse">
<stop stop-color="#0052FF" stop-opacity="0.23"/>
<stop offset="1" stop-color="#0052FF"/>
</linearGradient>
</defs>
</svg>
