<svg width="213" height="217" viewBox="0 0 213 217" fill="none" xmlns="http://www.w3.org/2000/svg">
<g filter="url(#filter0_d_257_28)">
<g filter="url(#filter1_d_257_28)">
<path d="M105.5 209C162.109 209 208 163.109 208 106.5C208 49.8908 162.109 4 105.5 4C48.8908 4 3 49.8908 3 106.5C3 163.109 48.8908 209 105.5 209Z" fill="url(#paint0_linear_257_28)" fill-opacity="0.3" shape-rendering="crispEdges"/>
<path d="M207.5 106.5C207.5 162.833 161.833 208.5 105.5 208.5C49.167 208.5 3.5 162.833 3.5 106.5C3.5 50.167 49.167 4.5 105.5 4.5C161.833 4.5 207.5 50.167 207.5 106.5Z" stroke="url(#paint1_linear_257_28)" shape-rendering="crispEdges"/>
</g>
<g filter="url(#filter2_d_257_28)">
<mask id="path-3-outside-1_257_28" maskUnits="userSpaceOnUse" x="26" y="82" width="161" height="49" fill="black">
<rect fill="white" x="26" y="82" width="161" height="49"/>
<path d="M65.768 83.932V130H56.528V110.398H36.794V130H27.554V83.932H36.794V102.874H56.528V83.932H65.768ZM80.1426 91.39V102.94H95.6526V110.266H80.1426V122.476H97.6326V130H70.9026V83.866H97.6326V91.39H80.1426ZM130.318 121.222H111.97L108.934 130H99.2315L115.798 83.866H126.556L143.122 130H133.354L130.318 121.222ZM127.81 113.83L121.144 94.558L114.478 113.83H127.81ZM161.458 83.932C166.298 83.932 170.544 84.878 174.196 86.77C177.892 88.662 180.73 91.368 182.71 94.888C184.734 98.364 185.746 102.412 185.746 107.032C185.746 111.652 184.734 115.7 182.71 119.176C180.73 122.608 177.892 125.27 174.196 127.162C170.544 129.054 166.298 130 161.458 130H145.354V83.932H161.458ZM161.128 122.146C165.968 122.146 169.708 120.826 172.348 118.186C174.988 115.546 176.308 111.828 176.308 107.032C176.308 102.236 174.988 98.496 172.348 95.812C169.708 93.084 165.968 91.72 161.128 91.72H154.594V122.146H161.128Z"/>
</mask>
<path d="M65.768 83.932V130H56.528V110.398H36.794V130H27.554V83.932H36.794V102.874H56.528V83.932H65.768ZM80.1426 91.39V102.94H95.6526V110.266H80.1426V122.476H97.6326V130H70.9026V83.866H97.6326V91.39H80.1426ZM130.318 121.222H111.97L108.934 130H99.2315L115.798 83.866H126.556L143.122 130H133.354L130.318 121.222ZM127.81 113.83L121.144 94.558L114.478 113.83H127.81ZM161.458 83.932C166.298 83.932 170.544 84.878 174.196 86.77C177.892 88.662 180.73 91.368 182.71 94.888C184.734 98.364 185.746 102.412 185.746 107.032C185.746 111.652 184.734 115.7 182.71 119.176C180.73 122.608 177.892 125.27 174.196 127.162C170.544 129.054 166.298 130 161.458 130H145.354V83.932H161.458ZM161.128 122.146C165.968 122.146 169.708 120.826 172.348 118.186C174.988 115.546 176.308 111.828 176.308 107.032C176.308 102.236 174.988 98.496 172.348 95.812C169.708 93.084 165.968 91.72 161.128 91.72H154.594V122.146H161.128Z" fill="#0052FF" shape-rendering="crispEdges"/>
<path d="M65.768 83.932H66.768V82.932H65.768V83.932ZM65.768 130V131H66.768V130H65.768ZM56.528 130H55.528V131H56.528V130ZM56.528 110.398H57.528V109.398H56.528V110.398ZM36.794 110.398V109.398H35.794V110.398H36.794ZM36.794 130V131H37.794V130H36.794ZM27.554 130H26.554V131H27.554V130ZM27.554 83.932V82.932H26.554V83.932H27.554ZM36.794 83.932H37.794V82.932H36.794V83.932ZM36.794 102.874H35.794V103.874H36.794V102.874ZM56.528 102.874V103.874H57.528V102.874H56.528ZM56.528 83.932V82.932H55.528V83.932H56.528ZM64.768 83.932V130H66.768V83.932H64.768ZM65.768 129H56.528V131H65.768V129ZM57.528 130V110.398H55.528V130H57.528ZM56.528 109.398H36.794V111.398H56.528V109.398ZM35.794 110.398V130H37.794V110.398H35.794ZM36.794 129H27.554V131H36.794V129ZM28.554 130V83.932H26.554V130H28.554ZM27.554 84.932H36.794V82.932H27.554V84.932ZM35.794 83.932V102.874H37.794V83.932H35.794ZM36.794 103.874H56.528V101.874H36.794V103.874ZM57.528 102.874V83.932H55.528V102.874H57.528ZM56.528 84.932H65.768V82.932H56.528V84.932ZM80.1426 91.39V90.39H79.1426V91.39H80.1426ZM80.1426 102.94H79.1426V103.94H80.1426V102.94ZM95.6526 102.94H96.6526V101.94H95.6526V102.94ZM95.6526 110.266V111.266H96.6526V110.266H95.6526ZM80.1426 110.266V109.266H79.1426V110.266H80.1426ZM80.1426 122.476H79.1426V123.476H80.1426V122.476ZM97.6326 122.476H98.6326V121.476H97.6326V122.476ZM97.6326 130V131H98.6326V130H97.6326ZM70.9026 130H69.9026V131H70.9026V130ZM70.9026 83.866V82.866H69.9026V83.866H70.9026ZM97.6326 83.866H98.6326V82.866H97.6326V83.866ZM97.6326 91.39V92.39H98.6326V91.39H97.6326ZM79.1426 91.39V102.94H81.1426V91.39H79.1426ZM80.1426 103.94H95.6526V101.94H80.1426V103.94ZM94.6526 102.94V110.266H96.6526V102.94H94.6526ZM95.6526 109.266H80.1426V111.266H95.6526V109.266ZM79.1426 110.266V122.476H81.1426V110.266H79.1426ZM80.1426 123.476H97.6326V121.476H80.1426V123.476ZM96.6326 122.476V130H98.6326V122.476H96.6326ZM97.6326 129H70.9026V131H97.6326V129ZM71.9026 130V83.866H69.9026V130H71.9026ZM70.9026 84.866H97.6326V82.866H70.9026V84.866ZM96.6326 83.866V91.39H98.6326V83.866H96.6326ZM97.6326 90.39H80.1426V92.39H97.6326V90.39ZM130.318 121.222L131.263 120.895L131.03 120.222H130.318V121.222ZM111.97 121.222V120.222H111.257L111.024 120.895L111.97 121.222ZM108.934 130V131H109.646L109.879 130.327L108.934 130ZM99.2316 130L98.2904 129.662L97.8099 131H99.2316V130ZM115.798 83.866V82.866H115.094L114.856 83.528L115.798 83.866ZM126.556 83.866L127.497 83.528L127.259 82.866H126.556V83.866ZM143.122 130V131H144.543L144.063 129.662L143.122 130ZM133.354 130L132.408 130.327L132.641 131H133.354V130ZM127.81 113.83V114.83H129.214L128.755 113.503L127.81 113.83ZM121.144 94.558L122.089 94.2311L121.144 91.4989L120.198 94.2311L121.144 94.558ZM114.478 113.83L113.532 113.503L113.074 114.83H114.478V113.83ZM130.318 120.222H111.97V122.222H130.318V120.222ZM111.024 120.895L107.988 129.673L109.879 130.327L112.915 121.549L111.024 120.895ZM108.934 129H99.2316V131H108.934V129ZM100.173 130.338L116.739 84.204L114.856 83.528L98.2904 129.662L100.173 130.338ZM115.798 84.866H126.556V82.866H115.798V84.866ZM125.614 84.204L142.18 130.338L144.063 129.662L127.497 83.528L125.614 84.204ZM143.122 129H133.354V131H143.122V129ZM134.299 129.673L131.263 120.895L129.372 121.549L132.408 130.327L134.299 129.673ZM128.755 113.503L122.089 94.2311L120.198 94.8849L126.864 114.157L128.755 113.503ZM120.198 94.2311L113.532 113.503L115.423 114.157L122.089 94.8849L120.198 94.2311ZM114.478 114.83H127.81V112.83H114.478V114.83ZM174.196 86.77L173.736 87.6579L173.74 87.6601L174.196 86.77ZM182.71 94.888L181.838 95.3783L181.842 95.3848L181.846 95.3912L182.71 94.888ZM182.71 119.176L181.846 118.673L181.844 118.676L182.71 119.176ZM174.196 127.162L173.74 126.272L173.736 126.274L174.196 127.162ZM145.354 130H144.354V131H145.354V130ZM145.354 83.932V82.932H144.354V83.932H145.354ZM172.348 118.186L171.641 117.479L172.348 118.186ZM172.348 95.812L171.629 96.5074L171.635 96.5132L172.348 95.812ZM154.594 91.72V90.72H153.594V91.72H154.594ZM154.594 122.146H153.594V123.146H154.594V122.146ZM161.458 84.932C166.166 84.932 170.249 85.8515 173.736 87.6579L174.656 85.8821C170.838 83.9045 166.43 82.932 161.458 82.932V84.932ZM173.74 87.6601C177.266 89.4653 179.957 92.0346 181.838 95.3783L183.581 94.3977C181.502 90.7014 178.517 87.8587 174.651 85.8799L173.74 87.6601ZM181.846 95.3912C183.768 98.6929 184.746 102.562 184.746 107.032H186.746C186.746 102.262 185.699 98.0351 183.574 94.3848L181.846 95.3912ZM184.746 107.032C184.746 111.502 183.768 115.371 181.846 118.673L183.574 119.679C185.699 116.029 186.746 111.802 186.746 107.032H184.746ZM181.844 118.676C179.965 121.933 177.273 124.463 173.74 126.272L174.651 128.052C178.51 126.077 181.495 123.283 183.576 119.676L181.844 118.676ZM173.736 126.274C170.249 128.08 166.166 129 161.458 129V131C166.43 131 170.838 130.028 174.656 128.05L173.736 126.274ZM161.458 129H145.354V131H161.458V129ZM146.354 130V83.932H144.354V130H146.354ZM145.354 84.932H161.458V82.932H145.354V84.932ZM161.128 123.146C166.151 123.146 170.176 121.772 173.055 118.893L171.641 117.479C169.239 119.88 165.784 121.146 161.128 121.146V123.146ZM173.055 118.893C175.932 116.016 177.308 112.014 177.308 107.032H175.308C175.308 111.642 174.044 115.076 171.641 117.479L173.055 118.893ZM177.308 107.032C177.308 102.049 175.931 98.0293 173.061 95.1108L171.635 96.5132C174.044 98.9627 175.308 102.423 175.308 107.032H177.308ZM173.066 95.1166C170.189 92.1439 166.16 90.72 161.128 90.72V92.72C165.775 92.72 169.226 94.0241 171.629 96.5074L173.066 95.1166ZM161.128 90.72H154.594V92.72H161.128V90.72ZM153.594 91.72V122.146H155.594V91.72H153.594ZM154.594 123.146H161.128V121.146H154.594V123.146Z" fill="white" fill-opacity="0.4" mask="url(#path-3-outside-1_257_28)"/>
</g>
</g>
<defs>
<filter id="filter0_d_257_28" x="0" y="4" width="213" height="213" filterUnits="userSpaceOnUse" color-interpolation-filters="sRGB">
<feFlood flood-opacity="0" result="BackgroundImageFix"/>
<feColorMatrix in="SourceAlpha" type="matrix" values="0 0 0 0 0 0 0 0 0 0 0 0 0 0 0 0 0 0 127 0" result="hardAlpha"/>
<feOffset dx="1" dy="4"/>
<feGaussianBlur stdDeviation="2"/>
<feComposite in2="hardAlpha" operator="out"/>
<feColorMatrix type="matrix" values="0 0 0 0 0 0 0 0 0 0 0 0 0 0 0 0 0 0 0.5 0"/>
<feBlend mode="normal" in2="BackgroundImageFix" result="effect1_dropShadow_257_28"/>
<feBlend mode="normal" in="SourceGraphic" in2="effect1_dropShadow_257_28" result="shape"/>
</filter>
<filter id="filter1_d_257_28" x="0" y="0" width="213" height="213" filterUnits="userSpaceOnUse" color-interpolation-filters="sRGB">
<feFlood flood-opacity="0" result="BackgroundImageFix"/>
<feColorMatrix in="SourceAlpha" type="matrix" values="0 0 0 0 0 0 0 0 0 0 0 0 0 0 0 0 0 0 127 0" result="hardAlpha"/>
<feOffset dx="1"/>
<feGaussianBlur stdDeviation="2"/>
<feComposite in2="hardAlpha" operator="out"/>
<feColorMatrix type="matrix" values="0 0 0 0 0 0 0 0 0 0 0 0 0 0 0 0 0 0 0.5 0"/>
<feBlend mode="normal" in2="BackgroundImageFix" result="effect1_dropShadow_257_28"/>
<feBlend mode="normal" in="SourceGraphic" in2="effect1_dropShadow_257_28" result="shape"/>
</filter>
<filter id="filter2_d_257_28" x="20.5542" y="76.866" width="172.191" height="60.134" filterUnits="userSpaceOnUse" color-interpolation-filters="sRGB">
<feFlood flood-opacity="0" result="BackgroundImageFix"/>
<feColorMatrix in="SourceAlpha" type="matrix" values="0 0 0 0 0 0 0 0 0 0 0 0 0 0 0 0 0 0 127 0" result="hardAlpha"/>
<feOffset/>
<feGaussianBlur stdDeviation="3.5"/>
<feComposite in2="hardAlpha" operator="out"/>
<feColorMatrix type="matrix" values="0 0 0 0 0 0 0 0 0 0 0 0 0 0 0 0 0 0 0.25 0"/>
<feBlend mode="normal" in2="BackgroundImageFix" result="effect1_dropShadow_257_28"/>
<feBlend mode="normal" in="SourceGraphic" in2="effect1_dropShadow_257_28" result="shape"/>
</filter>
<linearGradient id="paint0_linear_257_28" x1="105.5" y1="4" x2="105.5" y2="209" gradientUnits="userSpaceOnUse">
<stop stop-color="#0052FF"/>
<stop offset="1" stop-color="#0052FF" stop-opacity="0.19"/>
</linearGradient>
<linearGradient id="paint1_linear_257_28" x1="105.5" y1="4" x2="105.5" y2="209" gradientUnits="userSpaceOnUse">
<stop stop-color="#0052FF" stop-opacity="0.23"/>
<stop offset="1" stop-color="#0052FF"/>
</linearGradient>
</defs>
</svg>
