<svg width="190" height="298" viewBox="0 0 190 298" fill="none" xmlns="http://www.w3.org/2000/svg">
<path d="M94.71 25.82C94.71 17.7467 96.1567 11.4233 99.05 6.85C101.99 2.27666 106.843 -0.0100021 113.61 -0.0100021C120.377 -0.0100021 125.207 2.27666 128.1 6.85C131.04 11.4233 132.51 17.7467 132.51 25.82C132.51 33.94 131.04 40.31 128.1 44.93C125.207 49.55 120.377 51.86 113.61 51.86C106.843 51.86 101.99 49.55 99.05 44.93C96.1567 40.31 94.71 33.94 94.71 25.82ZM122.85 25.82C122.85 22.3667 122.617 19.4733 122.15 17.14C121.73 14.76 120.843 12.8233 119.49 11.33C118.183 9.83666 116.223 9.09 113.61 9.09C110.997 9.09 109.013 9.83666 107.66 11.33C106.353 12.8233 105.467 14.76 105 17.14C104.58 19.4733 104.37 22.3667 104.37 25.82C104.37 29.3667 104.58 32.3533 105 34.78C105.42 37.16 106.307 39.0967 107.66 40.59C109.013 42.0367 110.997 42.76 113.61 42.76C116.223 42.76 118.207 42.0367 119.56 40.59C120.913 39.0967 121.8 37.16 122.22 34.78C122.64 32.3533 122.85 29.3667 122.85 25.82ZM171.464 9.44H148.784V21.41C149.764 20.1967 151.164 19.2167 152.984 18.47C154.804 17.6767 156.741 17.28 158.794 17.28C162.527 17.28 165.584 18.0967 167.964 19.73C170.344 21.3633 172.071 23.4633 173.144 26.03C174.217 28.55 174.754 31.2567 174.754 34.15C174.754 39.5167 173.214 43.8333 170.134 47.1C167.101 50.3667 162.761 52 157.114 52C151.794 52 147.547 50.67 144.374 48.01C141.201 45.35 139.404 41.8733 138.984 37.58H148.504C148.924 39.4467 149.857 40.94 151.304 42.06C152.797 43.18 154.687 43.74 156.974 43.74C159.727 43.74 161.804 42.8767 163.204 41.15C164.604 39.4233 165.304 37.1367 165.304 34.29C165.304 31.3967 164.581 29.2033 163.134 27.71C161.734 26.17 159.657 25.4 156.904 25.4C154.944 25.4 153.311 25.89 152.004 26.87C150.697 27.85 149.764 29.1567 149.204 30.79H139.824V0.83H171.464V9.44Z" fill="white"/>
<rect opacity="0.1" y="92" width="38" height="8" fill="white"/>
<rect opacity="0.1" y="125" width="38" height="8" fill="white"/>
<rect opacity="0.1" y="158" width="38" height="8" fill="white"/>
<rect opacity="0.1" y="191" width="52" height="8" fill="white"/>
<rect y="224" width="90" height="8" fill="white"/>
<rect opacity="0.1" y="257" width="52" height="8" fill="white"/>
<rect opacity="0.1" y="290" width="38" height="8" fill="white"/>
</svg>
