<svg width="202" height="298" viewBox="0 0 202 298" fill="none" xmlns="http://www.w3.org/2000/svg">
<path d="M3.71 25.82C3.71 17.7467 5.15667 11.4233 8.05 6.85C10.99 2.27666 15.8433 -0.0100021 22.61 -0.0100021C29.3767 -0.0100021 34.2067 2.27666 37.1 6.85C40.04 11.4233 41.51 17.7467 41.51 25.82C41.51 33.94 40.04 40.31 37.1 44.93C34.2067 49.55 29.3767 51.86 22.61 51.86C15.8433 51.86 10.99 49.55 8.05 44.93C5.15667 40.31 3.71 33.94 3.71 25.82ZM31.85 25.82C31.85 22.3667 31.6167 19.4733 31.15 17.14C30.73 14.76 29.8433 12.8233 28.49 11.33C27.1833 9.83666 25.2233 9.09 22.61 9.09C19.9967 9.09 18.0133 9.83666 16.66 11.33C15.3533 12.8233 14.4667 14.76 14 17.14C13.58 19.4733 13.37 22.3667 13.37 25.82C13.37 29.3667 13.58 32.3533 14 34.78C14.42 37.16 15.3067 39.0967 16.66 40.59C18.0133 42.0367 19.9967 42.76 22.61 42.76C25.2233 42.76 27.2067 42.0367 28.56 40.59C29.9133 39.0967 30.8 37.16 31.22 34.78C31.64 32.3533 31.85 29.3667 31.85 25.82ZM45.7439 42.06V34.36L68.6339 1.6H80.0439V33.52H86.2039V42.06H80.0439V52H70.2439V42.06H45.7439ZM70.8739 12.1L56.5239 33.52H70.8739V12.1Z" fill="white"/>
<path opacity="0.1" d="M202 92H164V100H202V92Z" fill="white"/>
<rect opacity="0.1" width="38" height="8" transform="matrix(-1 0 0 1 202 125)" fill="white"/>
<rect opacity="0.1" width="52" height="8" transform="matrix(-1 0 0 1 202 158)" fill="white"/>
<rect width="90" height="8" transform="matrix(-1 0 0 1 202 191)" fill="white"/>
<rect opacity="0.1" width="52" height="8" transform="matrix(-1 0 0 1 202 224)" fill="white"/>
<rect opacity="0.1" width="38" height="8" transform="matrix(-1 0 0 1 202 257)" fill="white"/>
<rect opacity="0.1" width="38" height="8" transform="matrix(-1 0 0 1 202 290)" fill="white"/>
</svg>
