<svg width="202" height="299" viewBox="0 0 202 299" fill="none" xmlns="http://www.w3.org/2000/svg">
<path d="M3.71 26.82C3.71 12.05 8.19 0.989998 22.61 0.989998C37.03 0.989998 41.51 12.05 41.51 26.82C41.51 41.73 37.03 52.86 22.61 52.86C8.19 52.86 3.71 41.73 3.71 26.82ZM31.85 26.82C31.85 18.07 30.87 10.09 22.61 10.09C14.35 10.09 13.37 18.07 13.37 26.82C13.37 35.92 14.35 43.76 22.61 43.76C30.87 43.76 31.85 35.92 31.85 26.82ZM45.6039 52.3V45.02C57.1539 35.22 69.2639 26.19 69.2639 16.81C69.2639 12.26 67.2339 9.18 62.4039 9.18C57.7139 9.18 55.1239 12.54 55.0539 17.93H45.5339C45.8839 6.24 53.3739 0.849995 62.5439 0.849995C73.5339 0.849995 79.0639 7.36 79.0639 16.25C79.0639 28.08 67.6539 37.32 59.5339 44.18H80.1839V52.3H45.6039Z" fill="#0052FF"/>
<path opacity="0.1" d="M202 93H150V101H202V93Z" fill="#0052FF"/>
<rect width="90" height="8" transform="matrix(-1 0 0 1 202 126)" fill="#0052FF"/>
<rect opacity="0.1" width="52" height="8" transform="matrix(-1 0 0 1 202 159)" fill="#3C7BFF"/>
<rect opacity="0.1" width="38" height="8" transform="matrix(-1 0 0 1 202 192)" fill="#3C7BFF"/>
<rect opacity="0.1" width="38" height="8" transform="matrix(-1 0 0 1 202 225)" fill="#3C7BFF"/>
<rect opacity="0.1" width="38" height="8" transform="matrix(-1 0 0 1 202 258)" fill="#3C7BFF"/>
<rect opacity="0.1" width="38" height="8" transform="matrix(-1 0 0 1 202 291)" fill="#3C7BFF"/>
</svg>
