<svg width="190" height="298" viewBox="0 0 190 298" fill="none" xmlns="http://www.w3.org/2000/svg">
<path d="M94.71 25.82C94.71 11.05 99.19 -0.0100021 113.61 -0.0100021C128.03 -0.0100021 132.51 11.05 132.51 25.82C132.51 40.73 128.03 51.86 113.61 51.86C99.19 51.86 94.71 40.73 94.71 25.82ZM122.85 25.82C122.85 17.07 121.87 9.09 113.61 9.09C105.35 9.09 104.37 17.07 104.37 25.82C104.37 34.92 105.35 42.76 113.61 42.76C121.87 42.76 122.85 34.92 122.85 25.82ZM142.764 52V10H135.974V0.969998H152.844V52H142.764Z" fill="#0052FF"/>
<rect y="92" width="90" height="8" fill="#0052FF"/>
<rect y="125" width="52" height="8" fill="#CCDDFF"/>
<rect opacity="0.1" y="158" width="38" height="8" fill="#0052FF"/>
<rect opacity="0.1" y="191" width="38" height="8" fill="#0052FF"/>
<rect opacity="0.1" y="224" width="38" height="8" fill="#0052FF"/>
<rect opacity="0.1" y="257" width="38" height="8" fill="#0052FF"/>
<rect opacity="0.1" y="290" width="38" height="8" fill="#0052FF"/>
</svg>
