<svg width="190" height="299" viewBox="0 0 190 299" fill="none" xmlns="http://www.w3.org/2000/svg">
<path d="M94.71 26.82C94.71 18.7467 96.1567 12.4233 99.05 7.85C101.99 3.27666 106.843 0.989998 113.61 0.989998C120.377 0.989998 125.207 3.27666 128.1 7.85C131.04 12.4233 132.51 18.7467 132.51 26.82C132.51 34.94 131.04 41.31 128.1 45.93C125.207 50.55 120.377 52.86 113.61 52.86C106.843 52.86 101.99 50.55 99.05 45.93C96.1567 41.31 94.71 34.94 94.71 26.82ZM122.85 26.82C122.85 23.3667 122.617 20.4733 122.15 18.14C121.73 15.76 120.843 13.8233 119.49 12.33C118.183 10.8367 116.223 10.09 113.61 10.09C110.997 10.09 109.013 10.8367 107.66 12.33C106.353 13.8233 105.467 15.76 105 18.14C104.58 20.4733 104.37 23.3667 104.37 26.82C104.37 30.3667 104.58 33.3533 105 35.78C105.42 38.16 106.307 40.0967 107.66 41.59C109.013 43.0367 110.997 43.76 113.61 43.76C116.223 43.76 118.207 43.0367 119.56 41.59C120.913 40.0967 121.8 38.16 122.22 35.78C122.64 33.3533 122.85 30.3667 122.85 26.82ZM137.304 15.41C137.537 10.7433 139.171 7.15 142.204 4.63C145.284 2.06333 149.321 0.779996 154.314 0.779996C157.721 0.779996 160.637 1.38666 163.064 2.6C165.491 3.76666 167.311 5.37666 168.524 7.43C169.784 9.43666 170.414 11.7233 170.414 14.29C170.414 17.23 169.644 19.7267 168.104 21.78C166.611 23.7867 164.814 25.14 162.714 25.84V26.12C165.421 26.96 167.521 28.4533 169.014 30.6C170.554 32.7467 171.324 35.5 171.324 38.86C171.324 41.66 170.671 44.1567 169.364 46.35C168.104 48.5433 166.214 50.27 163.694 51.53C161.221 52.7433 158.234 53.35 154.734 53.35C149.461 53.35 145.167 52.02 141.854 49.36C138.541 46.7 136.791 42.78 136.604 37.6H146.124C146.217 39.8867 146.987 41.73 148.434 43.13C149.927 44.4833 151.957 45.16 154.524 45.16C156.904 45.16 158.724 44.5067 159.984 43.2C161.291 41.8467 161.944 40.12 161.944 38.02C161.944 35.22 161.057 33.2133 159.284 32C157.511 30.7867 154.757 30.18 151.024 30.18H148.994V22.13H151.024C157.651 22.13 160.964 19.9133 160.964 15.48C160.964 13.4733 160.357 11.91 159.144 10.79C157.977 9.67 156.274 9.11 154.034 9.11C151.841 9.11 150.137 9.71666 148.924 10.93C147.757 12.0967 147.081 13.59 146.894 15.41H137.304Z" fill="#0052FF"/>
<rect opacity="0.1" y="93" width="38" height="8" fill="#0052FF"/>
<rect opacity="0.1" y="126" width="52" height="8" fill="#0052FF"/>
<rect y="159" width="90" height="8" fill="#0052FF"/>
<rect opacity="0.1" y="192" width="52" height="8" fill="#0052FF"/>
<rect opacity="0.1" y="225" width="38" height="8" fill="#0052FF"/>
<rect opacity="0.1" y="258" width="38" height="8" fill="#0052FF"/>
<rect opacity="0.1" y="291" width="38" height="8" fill="#0052FF"/>
</svg>
