<svg width="1282" height="247" viewBox="0 0 1282 247" fill="none" xmlns="http://www.w3.org/2000/svg">
<path d="M2 98L2.00001 156" stroke="white" stroke-width="4"/>
<path d="M29.1914 83L29.1914 171" stroke="white" stroke-width="4"/>
<path d="M56.3831 99L56.3831 155" stroke="white" stroke-width="4"/>
<path d="M83.5745 75L83.5745 179" stroke="white" stroke-width="4"/>
<path d="M110.766 105L110.766 149" stroke="white" stroke-width="4"/>
<path d="M137.958 110L137.958 144" stroke="white" stroke-width="4"/>
<path d="M165.149 102L165.149 152" stroke="white" stroke-width="4"/>
<path d="M192.34 74L192.34 180" stroke="white" stroke-width="4"/>
<path d="M219.532 72L219.532 182" stroke="white" stroke-width="4"/>
<path d="M246.723 104L246.723 150" stroke="white" stroke-width="4"/>
<path d="M273.915 114L273.915 140" stroke="white" stroke-width="4"/>
<path d="M301.106 69L301.106 185" stroke="white" stroke-width="4"/>
<path d="M328.298 90L328.298 164" stroke="white" stroke-width="4"/>
<path d="M355.489 91L355.489 163" stroke="white" stroke-width="4"/>
<path d="M382.681 92L382.681 162" stroke="white" stroke-width="4"/>
<path d="M409.872 107L409.872 147" stroke="white" stroke-width="4"/>
<path d="M437.064 79L437.064 175" stroke="white" stroke-width="4"/>
<path d="M464.255 90L464.255 164" stroke="white" stroke-width="4"/>
<path d="M491.447 114L491.447 140" stroke="white" stroke-width="4"/>
<path d="M518.638 80L518.638 174" stroke="white" stroke-width="4"/>
<path d="M545.83 109L545.83 145" stroke="white" stroke-width="4"/>
<path d="M573.021 112L573.021 142" stroke="white" stroke-width="4"/>
<path d="M600.213 112L600.213 142" stroke="white" stroke-width="4"/>
<path d="M627.404 114L627.404 140" stroke="white" stroke-width="4"/>
<path d="M654.596 98L654.596 156" stroke="white" stroke-width="4"/>
<path d="M681.787 83L681.787 171" stroke="white" stroke-width="4"/>
<path d="M708.979 99L708.979 155" stroke="white" stroke-width="4"/>
<path d="M736.17 75L736.17 179" stroke="white" stroke-width="4"/>
<path d="M763.362 105L763.362 149" stroke="white" stroke-width="4"/>
<path d="M790.553 110L790.553 144" stroke="white" stroke-width="4"/>
<path d="M817.745 102L817.745 152" stroke="white" stroke-width="4"/>
<path d="M844.936 74L844.936 180" stroke="white" stroke-width="4"/>
<path d="M872.127 72L872.127 182" stroke="white" stroke-width="4"/>
<path d="M899.319 104L899.319 150" stroke="white" stroke-width="4"/>
<path d="M926.51 114L926.51 140" stroke="white" stroke-width="4"/>
<path d="M953.702 69L953.702 185" stroke="white" stroke-width="4"/>
<path d="M980.893 90L980.893 164" stroke="white" stroke-width="4"/>
<path d="M1008.08 91L1008.08 163" stroke="white" stroke-width="4"/>
<path d="M1035.28 92L1035.28 162" stroke="white" stroke-width="4"/>
<path d="M1062.47 107L1062.47 147" stroke="white" stroke-width="4"/>
<path d="M1089.66 79L1089.66 175" stroke="white" stroke-width="4"/>
<path d="M1116.85 90L1116.85 164" stroke="white" stroke-width="4"/>
<path d="M1144.04 114L1144.04 140" stroke="white" stroke-width="4"/>
<path d="M1171.23 80L1171.23 174" stroke="white" stroke-width="4"/>
<path d="M1198.43 109L1198.43 145" stroke="white" stroke-width="4"/>
<path d="M1225.62 112L1225.62 142" stroke="white" stroke-width="4"/>
<path d="M1252.81 112L1252.81 142" stroke="white" stroke-width="4"/>
<path d="M1280 114L1280 140" stroke="white" stroke-width="4"/>
</svg>
