<svg width="213" height="217" viewBox="0 0 213 217" fill="none" xmlns="http://www.w3.org/2000/svg">
<g filter="url(#filter0_d_257_22)">
<g filter="url(#filter1_d_257_22)">
<path d="M105.5 209C162.109 209 208 163.109 208 106.5C208 49.8908 162.109 4 105.5 4C48.8908 4 3 49.8908 3 106.5C3 163.109 48.8908 209 105.5 209Z" fill="url(#paint0_linear_257_22)" fill-opacity="0.3" shape-rendering="crispEdges"/>
<path d="M207.5 106.5C207.5 162.833 161.833 208.5 105.5 208.5C49.167 208.5 3.5 162.833 3.5 106.5C3.5 50.167 49.167 4.5 105.5 4.5C161.833 4.5 207.5 50.167 207.5 106.5Z" stroke="url(#paint1_linear_257_22)" shape-rendering="crispEdges"/>
</g>
<g filter="url(#filter2_d_257_22)">
<mask id="path-3-outside-1_257_22" maskUnits="userSpaceOnUse" x="27" y="82" width="155" height="50" fill="black">
<rect fill="white" x="27" y="82" width="155" height="50"/>
<path d="M61.904 83.932V91.39H49.628V130H40.388V91.39H28.112V83.932H61.904ZM92.9338 121.222H74.5858L71.5498 130H61.8478L78.4138 83.866H89.1718L105.738 130H95.9698L92.9338 121.222ZM90.4258 113.83L83.7598 94.558L77.0938 113.83H90.4258ZM117.21 83.932V130H107.97V83.932H117.21ZM131.619 122.674H146.799V130H122.379V83.932H131.619V122.674ZM164.618 130.462C161.406 130.462 158.502 129.912 155.906 128.812C153.354 127.712 151.33 126.128 149.834 124.06C148.338 121.992 147.568 119.55 147.524 116.734H157.424C157.556 118.626 158.216 120.122 159.404 121.222C160.636 122.322 162.308 122.872 164.42 122.872C166.576 122.872 168.27 122.366 169.502 121.354C170.734 120.298 171.35 118.934 171.35 117.262C171.35 115.898 170.932 114.776 170.096 113.896C169.26 113.016 168.204 112.334 166.928 111.85C165.696 111.322 163.98 110.75 161.78 110.134C158.788 109.254 156.346 108.396 154.454 107.56C152.606 106.68 151 105.382 149.636 103.666C148.316 101.906 147.656 99.574 147.656 96.67C147.656 93.942 148.338 91.566 149.702 89.542C151.066 87.518 152.98 85.978 155.444 84.922C157.908 83.822 160.724 83.272 163.892 83.272C168.644 83.272 172.494 84.438 175.442 86.77C178.434 89.058 180.084 92.27 180.392 96.406H170.228C170.14 94.822 169.458 93.524 168.182 92.512C166.95 91.456 165.3 90.928 163.232 90.928C161.428 90.928 159.976 91.39 158.876 92.314C157.82 93.238 157.292 94.58 157.292 96.34C157.292 97.572 157.688 98.606 158.48 99.442C159.316 100.234 160.328 100.894 161.516 101.422C162.748 101.906 164.464 102.478 166.664 103.138C169.656 104.018 172.098 104.898 173.99 105.778C175.882 106.658 177.51 107.978 178.874 109.738C180.238 111.498 180.92 113.808 180.92 116.668C180.92 119.132 180.282 121.42 179.006 123.532C177.73 125.644 175.86 127.338 173.396 128.614C170.932 129.846 168.006 130.462 164.618 130.462Z"/>
</mask>
<path d="M61.904 83.932V91.39H49.628V130H40.388V91.39H28.112V83.932H61.904ZM92.9338 121.222H74.5858L71.5498 130H61.8478L78.4138 83.866H89.1718L105.738 130H95.9698L92.9338 121.222ZM90.4258 113.83L83.7598 94.558L77.0938 113.83H90.4258ZM117.21 83.932V130H107.97V83.932H117.21ZM131.619 122.674H146.799V130H122.379V83.932H131.619V122.674ZM164.618 130.462C161.406 130.462 158.502 129.912 155.906 128.812C153.354 127.712 151.33 126.128 149.834 124.06C148.338 121.992 147.568 119.55 147.524 116.734H157.424C157.556 118.626 158.216 120.122 159.404 121.222C160.636 122.322 162.308 122.872 164.42 122.872C166.576 122.872 168.27 122.366 169.502 121.354C170.734 120.298 171.35 118.934 171.35 117.262C171.35 115.898 170.932 114.776 170.096 113.896C169.26 113.016 168.204 112.334 166.928 111.85C165.696 111.322 163.98 110.75 161.78 110.134C158.788 109.254 156.346 108.396 154.454 107.56C152.606 106.68 151 105.382 149.636 103.666C148.316 101.906 147.656 99.574 147.656 96.67C147.656 93.942 148.338 91.566 149.702 89.542C151.066 87.518 152.98 85.978 155.444 84.922C157.908 83.822 160.724 83.272 163.892 83.272C168.644 83.272 172.494 84.438 175.442 86.77C178.434 89.058 180.084 92.27 180.392 96.406H170.228C170.14 94.822 169.458 93.524 168.182 92.512C166.95 91.456 165.3 90.928 163.232 90.928C161.428 90.928 159.976 91.39 158.876 92.314C157.82 93.238 157.292 94.58 157.292 96.34C157.292 97.572 157.688 98.606 158.48 99.442C159.316 100.234 160.328 100.894 161.516 101.422C162.748 101.906 164.464 102.478 166.664 103.138C169.656 104.018 172.098 104.898 173.99 105.778C175.882 106.658 177.51 107.978 178.874 109.738C180.238 111.498 180.92 113.808 180.92 116.668C180.92 119.132 180.282 121.42 179.006 123.532C177.73 125.644 175.86 127.338 173.396 128.614C170.932 129.846 168.006 130.462 164.618 130.462Z" fill="#0052FF" shape-rendering="crispEdges"/>
<path d="M61.904 83.932H62.904V82.932H61.904V83.932ZM61.904 91.39V92.39H62.904V91.39H61.904ZM49.628 91.39V90.39H48.628V91.39H49.628ZM49.628 130V131H50.628V130H49.628ZM40.388 130H39.388V131H40.388V130ZM40.388 91.39H41.388V90.39H40.388V91.39ZM28.112 91.39H27.112V92.39H28.112V91.39ZM28.112 83.932V82.932H27.112V83.932H28.112ZM60.904 83.932V91.39H62.904V83.932H60.904ZM61.904 90.39H49.628V92.39H61.904V90.39ZM48.628 91.39V130H50.628V91.39H48.628ZM49.628 129H40.388V131H49.628V129ZM41.388 130V91.39H39.388V130H41.388ZM40.388 90.39H28.112V92.39H40.388V90.39ZM29.112 91.39V83.932H27.112V91.39H29.112ZM28.112 84.932H61.904V82.932H28.112V84.932ZM92.9338 121.222L93.8789 120.895L93.6461 120.222H92.9338V121.222ZM74.5858 121.222V120.222H73.8735L73.6407 120.895L74.5858 121.222ZM71.5498 130V131H72.2621L72.4949 130.327L71.5498 130ZM61.8478 130L60.9066 129.662L60.4262 131H61.8478V130ZM78.4138 83.866V82.866H77.7104L77.4726 83.528L78.4138 83.866ZM89.1718 83.866L90.113 83.528L89.8752 82.866H89.1718V83.866ZM105.738 130V131H107.159L106.679 129.662L105.738 130ZM95.9698 130L95.0247 130.327L95.2575 131H95.9698V130ZM90.4258 113.83V114.83H91.8298L91.3709 113.503L90.4258 113.83ZM83.7598 94.558L84.7049 94.2311L83.7598 91.4989L82.8147 94.2311L83.7598 94.558ZM77.0938 113.83L76.1487 113.503L75.6898 114.83H77.0938V113.83ZM92.9338 120.222H74.5858V122.222H92.9338V120.222ZM73.6407 120.895L70.6047 129.673L72.4949 130.327L75.5309 121.549L73.6407 120.895ZM71.5498 129H61.8478V131H71.5498V129ZM62.789 130.338L79.355 84.204L77.4726 83.528L60.9066 129.662L62.789 130.338ZM78.4138 84.866H89.1718V82.866H78.4138V84.866ZM88.2306 84.204L104.797 130.338L106.679 129.662L90.113 83.528L88.2306 84.204ZM105.738 129H95.9698V131H105.738V129ZM96.9149 129.673L93.8789 120.895L91.9887 121.549L95.0247 130.327L96.9149 129.673ZM91.3709 113.503L84.7049 94.2311L82.8147 94.8849L89.4807 114.157L91.3709 113.503ZM82.8147 94.2311L76.1487 113.503L78.0389 114.157L84.7049 94.8849L82.8147 94.2311ZM77.0938 114.83H90.4258V112.83H77.0938V114.83ZM117.21 83.932H118.21V82.932H117.21V83.932ZM117.21 130V131H118.21V130H117.21ZM107.97 130H106.97V131H107.97V130ZM107.97 83.932V82.932H106.97V83.932H107.97ZM116.21 83.932V130H118.21V83.932H116.21ZM117.21 129H107.97V131H117.21V129ZM108.97 130V83.932H106.97V130H108.97ZM107.97 84.932H117.21V82.932H107.97V84.932ZM131.619 122.674H130.619V123.674H131.619V122.674ZM146.799 122.674H147.799V121.674H146.799V122.674ZM146.799 130V131H147.799V130H146.799ZM122.379 130H121.379V131H122.379V130ZM122.379 83.932V82.932H121.379V83.932H122.379ZM131.619 83.932H132.619V82.932H131.619V83.932ZM131.619 123.674H146.799V121.674H131.619V123.674ZM145.799 122.674V130H147.799V122.674H145.799ZM146.799 129H122.379V131H146.799V129ZM123.379 130V83.932H121.379V130H123.379ZM122.379 84.932H131.619V82.932H122.379V84.932ZM130.619 83.932V122.674H132.619V83.932H130.619ZM155.906 128.812L155.51 129.73L155.516 129.733L155.906 128.812ZM149.834 124.06L149.024 124.646L149.834 124.06ZM147.524 116.734V115.734H146.508L146.524 116.75L147.524 116.734ZM157.424 116.734L158.422 116.664L158.357 115.734H157.424V116.734ZM159.404 121.222L158.725 121.956L158.731 121.962L158.738 121.968L159.404 121.222ZM169.502 121.354L170.137 122.127L170.145 122.12L170.153 122.113L169.502 121.354ZM170.096 113.896L169.371 114.585L170.096 113.896ZM166.928 111.85L166.534 112.769L166.554 112.777L166.573 112.785L166.928 111.85ZM161.78 110.134L161.498 111.093L161.51 111.097L161.78 110.134ZM154.454 107.56L154.024 108.463L154.037 108.469L154.05 108.475L154.454 107.56ZM149.636 103.666L148.836 104.266L148.844 104.277L148.853 104.288L149.636 103.666ZM149.702 89.542L150.531 90.1009V90.1008L149.702 89.542ZM155.444 84.922L155.838 85.8411L155.845 85.8382L155.852 85.8351L155.444 84.922ZM175.442 86.77L174.822 87.5543L174.828 87.5594L174.835 87.5644L175.442 86.77ZM180.392 96.406V97.406H181.469L181.389 96.3317L180.392 96.406ZM170.228 96.406L169.23 96.4615L169.282 97.406H170.228V96.406ZM168.182 92.512L167.531 93.2713L167.546 93.2837L167.561 93.2955L168.182 92.512ZM158.876 92.314L158.233 91.5483L158.225 91.5548L158.218 91.5614L158.876 92.314ZM158.48 99.442L157.754 100.13L157.773 100.149L157.792 100.168L158.48 99.442ZM161.516 101.422L161.11 102.336L161.13 102.345L161.15 102.353L161.516 101.422ZM166.664 103.138L166.377 104.096L166.382 104.097L166.664 103.138ZM178.874 109.738L178.084 110.351L178.874 109.738ZM179.006 123.532L178.15 123.015L179.006 123.532ZM173.396 128.614L173.843 129.508L173.85 129.505L173.856 129.502L173.396 128.614ZM164.618 129.462C161.522 129.462 158.753 128.932 156.296 127.891L155.516 129.733C158.251 130.892 161.291 131.462 164.618 131.462V129.462ZM156.302 127.894C153.9 126.858 152.025 125.383 150.644 123.474L149.024 124.646C150.635 126.873 152.808 128.566 155.51 129.73L156.302 127.894ZM150.644 123.474C149.281 121.589 148.565 119.351 148.524 116.718L146.524 116.75C146.571 119.749 147.395 122.395 149.024 124.646L150.644 123.474ZM147.524 117.734H157.424V115.734H147.524V117.734ZM156.426 116.804C156.573 118.903 157.318 120.654 158.725 121.956L160.083 120.488C159.114 119.59 158.539 118.349 158.422 116.664L156.426 116.804ZM158.738 121.968C160.2 123.273 162.133 123.872 164.42 123.872V121.872C162.483 121.872 161.072 121.371 160.07 120.476L158.738 121.968ZM164.42 123.872C166.726 123.872 168.672 123.33 170.137 122.127L168.867 120.581C167.868 121.402 166.426 121.872 164.42 121.872V123.872ZM170.153 122.113C171.614 120.861 172.35 119.216 172.35 117.262H170.35C170.35 118.652 169.854 119.735 168.851 120.595L170.153 122.113ZM172.35 117.262C172.35 115.676 171.856 114.297 170.821 113.207L169.371 114.585C170.008 115.255 170.35 116.12 170.35 117.262H172.35ZM170.821 113.207C169.869 112.206 168.682 111.446 167.283 110.915L166.573 112.785C167.727 113.222 168.651 113.826 169.371 114.585L170.821 113.207ZM167.322 110.931C166.031 110.378 164.267 109.792 162.05 109.171L161.51 111.097C163.693 111.708 165.361 112.266 166.534 112.769L167.322 110.931ZM162.062 109.175C159.093 108.301 156.696 107.457 154.858 106.645L154.05 108.475C155.996 109.335 158.483 110.207 161.498 111.093L162.062 109.175ZM154.884 106.657C153.183 105.847 151.695 104.649 150.419 103.044L148.853 104.288C150.305 106.115 152.029 107.513 154.024 108.463L154.884 106.657ZM150.436 103.066C149.282 101.527 148.656 99.4266 148.656 96.67H146.656C146.656 99.7214 147.35 102.285 148.836 104.266L150.436 103.066ZM148.656 96.67C148.656 94.1168 149.291 91.9406 150.531 90.1009L148.873 88.9831C147.385 91.1914 146.656 93.7672 146.656 96.67H148.656ZM150.531 90.1008C151.777 88.2518 153.533 86.8291 155.838 85.8411L155.05 84.0029C152.427 85.1269 150.355 86.7842 148.873 88.9831L150.531 90.1008ZM155.852 85.8351C158.167 84.8015 160.84 84.272 163.892 84.272V82.272C160.608 82.272 157.649 82.8425 155.036 84.0089L155.852 85.8351ZM163.892 84.272C168.479 84.272 172.093 85.3954 174.822 87.5543L176.062 85.9857C172.896 83.4806 168.809 82.272 163.892 82.272V84.272ZM174.835 87.5644C177.575 89.6603 179.106 92.5967 179.395 96.4803L181.389 96.3317C181.062 91.9433 179.293 88.4557 176.049 85.9756L174.835 87.5644ZM180.392 95.406H170.228V97.406H180.392V95.406ZM171.227 96.3505C171.122 94.4726 170.297 92.9127 168.803 91.7285L167.561 93.2955C168.619 94.1353 169.158 95.1714 169.23 96.4615L171.227 96.3505ZM168.833 91.7527C167.374 90.5026 165.472 89.928 163.232 89.928V91.928C165.129 91.928 166.526 92.4094 167.531 93.2713L168.833 91.7527ZM163.232 89.928C161.255 89.928 159.555 90.4374 158.233 91.5483L159.519 93.0797C160.397 92.3426 161.601 91.928 163.232 91.928V89.928ZM158.218 91.5614C156.891 92.7218 156.292 94.3707 156.292 96.34H158.292C158.292 94.7893 158.749 93.7542 159.535 93.0666L158.218 91.5614ZM156.292 96.34C156.292 97.8082 156.773 99.0942 157.754 100.13L159.206 98.7543C158.603 98.1178 158.292 97.3358 158.292 96.34H156.292ZM157.792 100.168C158.721 101.048 159.831 101.768 161.11 102.336L161.922 100.508C160.825 100.02 159.911 99.4205 159.168 98.716L157.792 100.168ZM161.15 102.353C162.42 102.852 164.166 103.433 166.377 104.096L166.951 102.18C164.762 101.523 163.076 100.96 161.882 100.491L161.15 102.353ZM166.382 104.097C169.347 104.969 171.738 105.833 173.568 106.685L174.412 104.871C172.458 103.963 169.965 103.067 166.946 102.179L166.382 104.097ZM173.568 106.685C175.306 107.493 176.811 108.708 178.084 110.351L179.664 109.125C178.21 107.248 176.458 105.823 174.412 104.871L173.568 106.685ZM178.084 110.351C179.277 111.891 179.92 113.966 179.92 116.668H181.92C181.92 113.65 181.199 111.105 179.664 109.125L178.084 110.351ZM179.92 116.668C179.92 118.949 179.332 121.059 178.15 123.015L179.862 124.049C181.232 121.781 181.92 119.315 181.92 116.668H179.92ZM178.15 123.015C176.981 124.95 175.257 126.524 172.936 127.726L173.856 129.502C176.463 128.152 178.479 126.338 179.862 124.049L178.15 123.015ZM172.949 127.72C170.652 128.868 167.886 129.462 164.618 129.462V131.462C168.126 131.462 171.212 130.824 173.843 129.508L172.949 127.72Z" fill="white" fill-opacity="0.4" mask="url(#path-3-outside-1_257_22)"/>
</g>
</g>
<defs>
<filter id="filter0_d_257_22" x="0" y="4" width="213" height="213" filterUnits="userSpaceOnUse" color-interpolation-filters="sRGB">
<feFlood flood-opacity="0" result="BackgroundImageFix"/>
<feColorMatrix in="SourceAlpha" type="matrix" values="0 0 0 0 0 0 0 0 0 0 0 0 0 0 0 0 0 0 127 0" result="hardAlpha"/>
<feOffset dx="1" dy="4"/>
<feGaussianBlur stdDeviation="2"/>
<feComposite in2="hardAlpha" operator="out"/>
<feColorMatrix type="matrix" values="0 0 0 0 0 0 0 0 0 0 0 0 0 0 0 0 0 0 0.5 0"/>
<feBlend mode="normal" in2="BackgroundImageFix" result="effect1_dropShadow_257_22"/>
<feBlend mode="normal" in="SourceGraphic" in2="effect1_dropShadow_257_22" result="shape"/>
</filter>
<filter id="filter1_d_257_22" x="0" y="0" width="213" height="213" filterUnits="userSpaceOnUse" color-interpolation-filters="sRGB">
<feFlood flood-opacity="0" result="BackgroundImageFix"/>
<feColorMatrix in="SourceAlpha" type="matrix" values="0 0 0 0 0 0 0 0 0 0 0 0 0 0 0 0 0 0 127 0" result="hardAlpha"/>
<feOffset dx="1"/>
<feGaussianBlur stdDeviation="2"/>
<feComposite in2="hardAlpha" operator="out"/>
<feColorMatrix type="matrix" values="0 0 0 0 0 0 0 0 0 0 0 0 0 0 0 0 0 0 0.5 0"/>
<feBlend mode="normal" in2="BackgroundImageFix" result="effect1_dropShadow_257_22"/>
<feBlend mode="normal" in="SourceGraphic" in2="effect1_dropShadow_257_22" result="shape"/>
</filter>
<filter id="filter2_d_257_22" x="21.1118" y="76.272" width="166.808" height="61.1901" filterUnits="userSpaceOnUse" color-interpolation-filters="sRGB">
<feFlood flood-opacity="0" result="BackgroundImageFix"/>
<feColorMatrix in="SourceAlpha" type="matrix" values="0 0 0 0 0 0 0 0 0 0 0 0 0 0 0 0 0 0 127 0" result="hardAlpha"/>
<feOffset/>
<feGaussianBlur stdDeviation="3.5"/>
<feComposite in2="hardAlpha" operator="out"/>
<feColorMatrix type="matrix" values="0 0 0 0 0 0 0 0 0 0 0 0 0 0 0 0 0 0 0.25 0"/>
<feBlend mode="normal" in2="BackgroundImageFix" result="effect1_dropShadow_257_22"/>
<feBlend mode="normal" in="SourceGraphic" in2="effect1_dropShadow_257_22" result="shape"/>
</filter>
<linearGradient id="paint0_linear_257_22" x1="105.5" y1="4" x2="105.5" y2="209" gradientUnits="userSpaceOnUse">
<stop stop-color="#0052FF"/>
<stop offset="1" stop-color="#0052FF" stop-opacity="0.19"/>
</linearGradient>
<linearGradient id="paint1_linear_257_22" x1="105.5" y1="4" x2="105.5" y2="209" gradientUnits="userSpaceOnUse">
<stop stop-color="#0052FF" stop-opacity="0.23"/>
<stop offset="1" stop-color="#0052FF"/>
</linearGradient>
</defs>
</svg>
