<svg width="243" height="243" viewBox="0 0 243 243" fill="none" xmlns="http://www.w3.org/2000/svg">
<circle cx="121.495" cy="121.495" r="104.995" fill="#FEC424" stroke="url(#paint0_linear_368_31)" stroke-width="33"/>
<circle cx="121.495" cy="121.495" r="119.495" stroke="url(#paint1_linear_368_31)" stroke-width="4"/>
<circle cx="121.496" cy="121.986" r="87.1952" stroke="url(#paint2_linear_368_31)" stroke-width="3"/>
<g style="mix-blend-mode:plus-lighter">
<path d="M116.915 167.614V160.506V156.755C116.915 152.214 117.705 148.067 119.482 144.711C121.259 141.354 123.43 138.393 126.392 135.825C129.156 133.258 132.315 131.087 135.672 129.113C139.028 127.138 142.385 125.163 145.742 123.387C149.098 121.61 152.257 119.636 155.022 117.661C157.785 115.686 160.155 113.317 161.932 110.75C163.709 108.183 164.499 105.222 164.499 101.668C164.499 97.1267 162.919 93.3756 159.76 90.4139C156.601 87.4522 152.257 86.07 146.728 86.07C140.806 86.07 136.066 87.6495 132.513 91.0059C128.959 94.3623 126.985 98.7062 126.392 104.432H114.94C115.138 99.1009 116.323 94.3623 118.889 90.2166C121.259 85.8727 125.01 82.5163 129.748 79.9492C134.487 77.3822 140.41 76 147.321 76C153.442 76 158.575 76.9875 163.117 79.1591C167.658 81.3314 171.014 84.2932 173.384 88.0442C175.753 91.7961 176.938 96.3373 176.938 101.471C176.938 106.209 176.147 110.158 174.371 113.515C172.594 116.871 170.422 119.636 167.658 122.202C164.893 124.571 161.734 126.743 158.378 128.717C155.022 130.692 151.665 132.469 148.308 134.246C144.952 136.023 141.793 137.8 139.028 139.775C136.265 141.749 134.092 143.92 132.315 146.487C130.539 149.055 129.748 152.016 129.748 155.373V157.149H177.332V167.416H116.915V167.614Z" fill="#0052FF"/>
<g opacity="0.2">
<path d="M64 167.614V157.347H111.584V155.57C111.584 152.213 110.794 149.054 109.017 146.685C107.24 144.118 105.068 141.946 102.304 139.972C99.5397 137.997 96.3806 136.22 93.024 134.443C89.6676 132.666 86.311 130.889 82.9545 128.915C79.598 126.94 76.6363 124.769 73.6747 122.399C70.9104 120.03 68.5412 117.068 66.9616 113.712C65.1846 110.356 64.3948 106.406 64.3948 101.668C64.3948 96.5346 65.5795 91.9934 67.9488 88.2415C70.3182 84.4904 73.8722 81.3314 78.2159 79.3572C82.757 77.1848 87.8906 76.1981 94.0113 76.1981C100.922 76.1981 106.845 77.5795 111.584 80.1465C116.322 82.7135 119.876 86.0699 122.443 90.4138C124.812 94.7577 126.195 99.4963 126.392 104.63H114.94C114.545 99.1008 112.373 94.5596 108.819 91.2032C105.265 87.8468 100.527 86.2673 94.6036 86.2673C89.0752 86.2673 84.7315 87.6495 81.5724 90.6112C78.4133 93.5729 76.8338 97.1266 76.8338 101.865C76.8338 105.222 77.6236 108.381 79.4005 110.948C81.1775 113.515 83.3494 115.884 86.311 117.858C89.0752 119.833 92.2343 121.807 95.5908 123.584C98.9474 125.361 102.304 127.336 105.66 129.31C109.017 131.284 112.176 133.654 114.94 136.023C117.704 138.59 120.074 141.551 121.851 144.908C123.628 148.264 124.418 152.213 124.418 156.952V160.506V167.614H64Z" fill="#0052FF"/>
</g>
</g>
<defs>
<linearGradient id="paint0_linear_368_31" x1="208.613" y1="31.7663" x2="47.8757" y2="217.127" gradientUnits="userSpaceOnUse">
<stop stop-color="#FED64A"/>
<stop offset="0.123016" stop-color="#FEF14E"/>
<stop offset="0.248796" stop-color="#FFDF6C"/>
<stop offset="0.482583" stop-color="#FCFF67"/>
<stop offset="0.743348" stop-color="#FED545"/>
<stop offset="0.82597" stop-color="#FECA45"/>
<stop offset="1" stop-color="#FEED44"/>
</linearGradient>
<linearGradient id="paint1_linear_368_31" x1="97.5877" y1="-4.12842e-07" x2="127.133" y2="242.989" gradientUnits="userSpaceOnUse">
<stop stop-color="#FFF3C4"/>
<stop offset="0.483894" stop-color="#EDC071"/>
<stop offset="0.961122" stop-color="#BF8147"/>
</linearGradient>
<linearGradient id="paint2_linear_368_31" x1="99.3589" y1="33.2913" x2="179.44" y2="191.342" gradientUnits="userSpaceOnUse">
<stop stop-color="#C8892B"/>
<stop offset="0.979601" stop-color="#FFEDA3"/>
</linearGradient>
</defs>
</svg>
