<svg width="243" height="243" viewBox="0 0 243 243" fill="none" xmlns="http://www.w3.org/2000/svg">
<circle cx="121.495" cy="121.495" r="104.995" fill="#FEC424" stroke="url(#paint0_linear_368_26)" stroke-width="33"/>
<circle cx="121.495" cy="121.495" r="119.495" stroke="url(#paint1_linear_368_26)" stroke-width="4"/>
<circle cx="121.496" cy="121.986" r="87.1952" stroke="url(#paint2_linear_368_26)" stroke-width="3"/>
<g filter="url(#filter0_d_368_26)">
<mask id="path-4-outside-1_368_26" maskUnits="userSpaceOnUse" x="47" y="97" width="145" height="47" fill="black">
<rect fill="white" x="47" y="97" width="145" height="47"/>
<path d="M80.184 99.422V106.315H68.838V142H60.298V106.315H48.952V99.422H80.184ZM108.863 133.887H91.9051L89.0991 142H80.1321L95.4431 99.361H105.386L120.697 142H111.669L108.863 133.887ZM106.545 127.055L100.384 109.243L94.2231 127.055H106.545ZM131.3 99.422V142H122.76V99.422H131.3ZM144.618 135.229H158.648V142H136.078V99.422H144.618V135.229ZM175.117 142.427C172.148 142.427 169.464 141.919 167.065 140.902C164.706 139.885 162.835 138.421 161.453 136.51C160.07 134.599 159.358 132.342 159.318 129.739H168.468C168.59 131.488 169.2 132.87 170.298 133.887C171.436 134.904 172.982 135.412 174.934 135.412C176.926 135.412 178.492 134.944 179.631 134.009C180.769 133.033 181.339 131.772 181.339 130.227C181.339 128.966 180.952 127.929 180.18 127.116C179.407 126.303 178.431 125.672 177.252 125.225C176.113 124.737 174.527 124.208 172.494 123.639C169.728 122.826 167.471 122.033 165.723 121.26C164.015 120.447 162.53 119.247 161.27 117.661C160.05 116.034 159.44 113.879 159.44 111.195C159.44 108.674 160.07 106.478 161.331 104.607C162.591 102.736 164.36 101.313 166.638 100.337C168.915 99.3203 171.518 98.812 174.446 98.812C178.838 98.812 182.396 99.8897 185.121 102.045C187.886 104.16 189.411 107.128 189.696 110.951H180.302C180.22 109.487 179.59 108.287 178.411 107.352C177.272 106.376 175.747 105.888 173.836 105.888C172.168 105.888 170.826 106.315 169.81 107.169C168.834 108.023 168.346 109.263 168.346 110.89C168.346 112.029 168.712 112.984 169.444 113.757C170.216 114.489 171.152 115.099 172.25 115.587C173.388 116.034 174.974 116.563 177.008 117.173C179.773 117.986 182.03 118.8 183.779 119.613C185.527 120.426 187.032 121.646 188.293 123.273C189.553 124.9 190.184 127.035 190.184 129.678C190.184 131.955 189.594 134.07 188.415 136.022C187.235 137.974 185.507 139.54 183.23 140.719C180.952 141.858 178.248 142.427 175.117 142.427Z"/>
</mask>
<path d="M80.184 99.422V106.315H68.838V142H60.298V106.315H48.952V99.422H80.184ZM108.863 133.887H91.9051L89.0991 142H80.1321L95.4431 99.361H105.386L120.697 142H111.669L108.863 133.887ZM106.545 127.055L100.384 109.243L94.2231 127.055H106.545ZM131.3 99.422V142H122.76V99.422H131.3ZM144.618 135.229H158.648V142H136.078V99.422H144.618V135.229ZM175.117 142.427C172.148 142.427 169.464 141.919 167.065 140.902C164.706 139.885 162.835 138.421 161.453 136.51C160.07 134.599 159.358 132.342 159.318 129.739H168.468C168.59 131.488 169.2 132.87 170.298 133.887C171.436 134.904 172.982 135.412 174.934 135.412C176.926 135.412 178.492 134.944 179.631 134.009C180.769 133.033 181.339 131.772 181.339 130.227C181.339 128.966 180.952 127.929 180.18 127.116C179.407 126.303 178.431 125.672 177.252 125.225C176.113 124.737 174.527 124.208 172.494 123.639C169.728 122.826 167.471 122.033 165.723 121.26C164.015 120.447 162.53 119.247 161.27 117.661C160.05 116.034 159.44 113.879 159.44 111.195C159.44 108.674 160.07 106.478 161.331 104.607C162.591 102.736 164.36 101.313 166.638 100.337C168.915 99.3203 171.518 98.812 174.446 98.812C178.838 98.812 182.396 99.8897 185.121 102.045C187.886 104.16 189.411 107.128 189.696 110.951H180.302C180.22 109.487 179.59 108.287 178.411 107.352C177.272 106.376 175.747 105.888 173.836 105.888C172.168 105.888 170.826 106.315 169.81 107.169C168.834 108.023 168.346 109.263 168.346 110.89C168.346 112.029 168.712 112.984 169.444 113.757C170.216 114.489 171.152 115.099 172.25 115.587C173.388 116.034 174.974 116.563 177.008 117.173C179.773 117.986 182.03 118.8 183.779 119.613C185.527 120.426 187.032 121.646 188.293 123.273C189.553 124.9 190.184 127.035 190.184 129.678C190.184 131.955 189.594 134.07 188.415 136.022C187.235 137.974 185.507 139.54 183.23 140.719C180.952 141.858 178.248 142.427 175.117 142.427Z" fill="white" fill-opacity="0.84" shape-rendering="crispEdges"/>
<path d="M80.184 99.422H81.184V98.422H80.184V99.422ZM80.184 106.315V107.315H81.184V106.315H80.184ZM68.838 106.315V105.315H67.838V106.315H68.838ZM68.838 142V143H69.838V142H68.838ZM60.298 142H59.298V143H60.298V142ZM60.298 106.315H61.298V105.315H60.298V106.315ZM48.952 106.315H47.952V107.315H48.952V106.315ZM48.952 99.422V98.422H47.952V99.422H48.952ZM79.184 99.422V106.315H81.184V99.422H79.184ZM80.184 105.315H68.838V107.315H80.184V105.315ZM67.838 106.315V142H69.838V106.315H67.838ZM68.838 141H60.298V143H68.838V141ZM61.298 142V106.315H59.298V142H61.298ZM60.298 105.315H48.952V107.315H60.298V105.315ZM49.952 106.315V99.422H47.952V106.315H49.952ZM48.952 100.422H80.184V98.422H48.952V100.422ZM108.863 133.887L109.808 133.56L109.575 132.887H108.863V133.887ZM91.9051 133.887V132.887H91.1928L90.96 133.56L91.9051 133.887ZM89.0991 142V143H89.8113L90.0441 142.327L89.0991 142ZM80.1321 142L79.1909 141.662L78.7105 143H80.1321V142ZM95.4431 99.361V98.361H94.7396L94.5019 99.023L95.4431 99.361ZM105.386 99.361L106.327 99.023L106.089 98.361H105.386V99.361ZM120.697 142V143H122.119L121.638 141.662L120.697 142ZM111.669 142L110.724 142.327L110.957 143H111.669V142ZM106.545 127.055V128.055H107.949L107.49 126.728L106.545 127.055ZM100.384 109.243L101.329 108.916L100.384 106.184L99.439 108.916L100.384 109.243ZM94.2231 127.055L93.278 126.728L92.819 128.055H94.2231V127.055ZM108.863 132.887H91.9051V134.887H108.863V132.887ZM90.96 133.56L88.154 141.673L90.0441 142.327L92.8501 134.214L90.96 133.56ZM89.0991 141H80.1321V143H89.0991V141ZM81.0732 142.338L96.3842 99.699L94.5019 99.023L79.1909 141.662L81.0732 142.338ZM95.4431 100.361H105.386V98.361H95.4431V100.361ZM104.445 99.699L119.756 142.338L121.638 141.662L106.327 99.023L104.445 99.699ZM120.697 141H111.669V143H120.697V141ZM112.614 141.673L109.808 133.56L107.918 134.214L110.724 142.327L112.614 141.673ZM107.49 126.728L101.329 108.916L99.439 109.57L105.6 127.382L107.49 126.728ZM99.439 108.916L93.278 126.728L95.1681 127.382L101.329 109.57L99.439 108.916ZM94.2231 128.055H106.545V126.055H94.2231V128.055ZM131.3 99.422H132.3V98.422H131.3V99.422ZM131.3 142V143H132.3V142H131.3ZM122.76 142H121.76V143H122.76V142ZM122.76 99.422V98.422H121.76V99.422H122.76ZM130.3 99.422V142H132.3V99.422H130.3ZM131.3 141H122.76V143H131.3V141ZM123.76 142V99.422H121.76V142H123.76ZM122.76 100.422H131.3V98.422H122.76V100.422ZM144.618 135.229H143.618V136.229H144.618V135.229ZM158.648 135.229H159.648V134.229H158.648V135.229ZM158.648 142V143H159.648V142H158.648ZM136.078 142H135.078V143H136.078V142ZM136.078 99.422V98.422H135.078V99.422H136.078ZM144.618 99.422H145.618V98.422H144.618V99.422ZM144.618 136.229H158.648V134.229H144.618V136.229ZM157.648 135.229V142H159.648V135.229H157.648ZM158.648 141H136.078V143H158.648V141ZM137.078 142V99.422H135.078V142H137.078ZM136.078 100.422H144.618V98.422H136.078V100.422ZM143.618 99.422V135.229H145.618V99.422H143.618ZM167.065 140.902L166.669 141.82L166.675 141.823L167.065 140.902ZM161.453 136.51L160.642 137.096L160.642 137.096L161.453 136.51ZM159.318 129.739V128.739H158.302L158.318 129.755L159.318 129.739ZM168.468 129.739L169.465 129.669L169.4 128.739H168.468V129.739ZM170.298 133.887L169.618 134.621L169.625 134.627L169.632 134.633L170.298 133.887ZM179.631 134.009L180.265 134.782L180.274 134.775L180.281 134.768L179.631 134.009ZM180.18 127.116L179.455 127.805L179.455 127.805L180.18 127.116ZM177.252 125.225L176.858 126.144L176.877 126.152L176.897 126.16L177.252 125.225ZM172.494 123.639L172.211 124.598L172.224 124.602L172.494 123.639ZM165.723 121.26L165.293 122.163L165.306 122.169L165.319 122.175L165.723 121.26ZM161.27 117.661L160.47 118.261L160.478 118.272L160.487 118.283L161.27 117.661ZM161.331 104.607L162.16 105.166L162.16 105.166L161.331 104.607ZM166.638 100.337L167.032 101.256L167.038 101.253L167.045 101.25L166.638 100.337ZM185.121 102.045L184.5 102.829L184.507 102.834L184.513 102.839L185.121 102.045ZM189.696 110.951V111.951H190.773L190.693 110.877L189.696 110.951ZM180.302 110.951L179.303 111.006L179.356 111.951H180.302V110.951ZM178.411 107.352L177.76 108.111L177.774 108.124L177.789 108.135L178.411 107.352ZM169.81 107.169L169.166 106.403L169.159 106.41L169.151 106.416L169.81 107.169ZM169.444 113.757L168.718 114.445L168.736 114.464L168.756 114.483L169.444 113.757ZM172.25 115.587L171.844 116.501L171.864 116.51L171.884 116.518L172.25 115.587ZM177.008 117.173L176.72 118.131L176.726 118.132L177.008 117.173ZM188.293 123.273L187.502 123.886L187.502 123.886L188.293 123.273ZM188.415 136.022L187.559 135.505L187.559 135.505L188.415 136.022ZM183.23 140.719L183.677 141.613L183.683 141.61L183.69 141.607L183.23 140.719ZM175.117 141.427C172.263 141.427 169.715 140.939 167.455 139.981L166.675 141.823C169.213 142.899 172.033 143.427 175.117 143.427V141.427ZM167.461 139.984C165.252 139.032 163.531 137.676 162.263 135.924L160.642 137.096C162.14 139.166 164.16 140.739 166.669 141.82L167.461 139.984ZM162.263 135.924C161.013 134.196 160.355 132.143 160.318 129.723L158.318 129.755C158.361 132.54 159.127 135.001 160.642 137.096L162.263 135.924ZM159.318 130.739H168.468V128.739H159.318V130.739ZM167.47 129.809C167.607 131.765 168.302 133.402 169.618 134.621L170.977 133.153C170.097 132.339 169.573 131.211 169.465 129.669L167.47 129.809ZM169.632 134.633C171 135.855 172.807 136.412 174.934 136.412V134.412C173.157 134.412 171.873 133.953 170.964 133.141L169.632 134.633ZM174.934 136.412C177.076 136.412 178.894 135.909 180.265 134.782L178.996 133.236C178.09 133.98 176.776 134.412 174.934 134.412V136.412ZM180.281 134.768C181.649 133.596 182.339 132.054 182.339 130.227H180.339C180.339 131.491 179.889 132.47 178.98 133.25L180.281 134.768ZM182.339 130.227C182.339 128.744 181.876 127.45 180.905 126.427L179.455 127.805C180.028 128.409 180.339 129.188 180.339 130.227H182.339ZM180.905 126.427C180.016 125.492 178.908 124.784 177.606 124.29L176.897 126.16C177.954 126.561 178.798 127.113 179.455 127.805L180.905 126.427ZM177.646 124.306C176.448 123.793 174.814 123.25 172.763 122.676L172.224 124.602C174.24 125.166 175.778 125.681 176.858 126.144L177.646 124.306ZM172.776 122.68C170.034 121.873 167.821 121.094 166.127 120.345L165.319 122.175C167.121 122.971 169.423 123.778 172.212 124.598L172.776 122.68ZM166.153 120.357C164.592 119.614 163.225 118.514 162.053 117.039L160.487 118.283C161.835 119.98 163.438 121.279 165.293 122.163L166.153 120.357ZM162.07 117.061C161.016 115.656 160.44 113.732 160.44 111.195H158.44C158.44 114.026 159.084 116.413 160.47 118.261L162.07 117.061ZM160.44 111.195C160.44 108.848 161.023 106.852 162.16 105.166L160.501 104.048C159.117 106.103 158.44 108.499 158.44 111.195H160.44ZM162.16 105.166C163.303 103.47 164.913 102.164 167.032 101.256L166.244 99.4179C163.808 100.462 161.88 102.002 160.501 104.048L162.16 105.166ZM167.045 101.25C169.174 100.3 171.634 99.812 174.446 99.812V97.812C171.401 97.812 168.656 98.3408 166.23 99.4239L167.045 101.25ZM174.446 99.812C178.673 99.812 181.994 100.847 184.5 102.829L185.741 101.261C182.798 98.9322 179.002 97.812 174.446 97.812V99.812ZM184.513 102.839C187.027 104.762 188.433 107.455 188.698 111.025L190.693 110.877C190.389 106.802 188.745 103.557 185.728 101.251L184.513 102.839ZM189.696 109.951H180.302V111.951H189.696V109.951ZM181.3 110.896C181.202 109.138 180.429 107.676 179.032 106.569L177.789 108.135C178.751 108.899 179.238 109.836 179.303 111.006L181.3 110.896ZM179.061 106.593C177.696 105.423 175.919 104.888 173.836 104.888V106.888C175.576 106.888 176.848 107.329 177.76 108.111L179.061 106.593ZM173.836 104.888C171.995 104.888 170.406 105.362 169.166 106.403L170.453 107.935C171.247 107.268 172.342 106.888 173.836 106.888V104.888ZM169.151 106.416C167.905 107.507 167.346 109.054 167.346 110.89H169.346C169.346 109.473 169.762 108.539 170.468 107.922L169.151 106.416ZM167.346 110.89C167.346 112.265 167.797 113.473 168.718 114.445L170.17 113.069C169.627 112.496 169.346 111.792 169.346 110.89H167.346ZM168.756 114.483C169.621 115.303 170.655 115.973 171.844 116.501L172.656 114.673C171.648 114.225 170.812 113.675 170.131 113.031L168.756 114.483ZM171.884 116.518C173.06 116.98 174.677 117.518 176.72 118.131L177.295 116.215C175.272 115.608 173.716 115.089 172.615 114.656L171.884 116.518ZM176.726 118.132C179.464 118.938 181.67 119.735 183.357 120.52L184.2 118.706C182.39 117.864 180.082 117.035 177.29 116.214L176.726 118.132ZM183.357 120.52C184.951 121.261 186.333 122.376 187.502 123.886L189.083 122.66C187.731 120.916 186.103 119.591 184.2 118.706L183.357 120.52ZM187.502 123.886C188.593 125.292 189.184 127.193 189.184 129.678H191.184C191.184 126.877 190.514 124.507 189.083 122.66L187.502 123.886ZM189.184 129.678C189.184 131.773 188.644 133.709 187.559 135.505L189.271 136.539C190.544 134.431 191.184 132.138 191.184 129.678H189.184ZM187.559 135.505C186.486 137.28 184.904 138.726 182.77 139.831L183.69 141.607C186.11 140.354 187.984 138.668 189.271 136.539L187.559 135.505ZM182.782 139.825C180.672 140.88 178.128 141.427 175.117 141.427V143.427C178.368 143.427 181.232 142.836 183.677 141.613L182.782 139.825Z" fill="white" fill-opacity="0.4" mask="url(#path-4-outside-1_368_26)"/>
</g>
<defs>
<filter id="filter0_d_368_26" x="41.9521" y="91.812" width="155.231" height="57.615" filterUnits="userSpaceOnUse" color-interpolation-filters="sRGB">
<feFlood flood-opacity="0" result="BackgroundImageFix"/>
<feColorMatrix in="SourceAlpha" type="matrix" values="0 0 0 0 0 0 0 0 0 0 0 0 0 0 0 0 0 0 127 0" result="hardAlpha"/>
<feOffset/>
<feGaussianBlur stdDeviation="3.5"/>
<feComposite in2="hardAlpha" operator="out"/>
<feColorMatrix type="matrix" values="0 0 0 0 0 0 0 0 0 0 0 0 0 0 0 0 0 0 0.25 0"/>
<feBlend mode="normal" in2="BackgroundImageFix" result="effect1_dropShadow_368_26"/>
<feBlend mode="normal" in="SourceGraphic" in2="effect1_dropShadow_368_26" result="shape"/>
</filter>
<linearGradient id="paint0_linear_368_26" x1="208.613" y1="31.7663" x2="47.8757" y2="217.127" gradientUnits="userSpaceOnUse">
<stop stop-color="#FED64A"/>
<stop offset="0.123016" stop-color="#FEF14E"/>
<stop offset="0.248796" stop-color="#FFDF6C"/>
<stop offset="0.482583" stop-color="#FCFF67"/>
<stop offset="0.743348" stop-color="#FED545"/>
<stop offset="0.82597" stop-color="#FECA45"/>
<stop offset="1" stop-color="#FEED44"/>
</linearGradient>
<linearGradient id="paint1_linear_368_26" x1="97.5877" y1="-4.12842e-07" x2="127.133" y2="242.989" gradientUnits="userSpaceOnUse">
<stop stop-color="#FFF3C4"/>
<stop offset="0.483894" stop-color="#EDC071"/>
<stop offset="0.961122" stop-color="#BF8147"/>
</linearGradient>
<linearGradient id="paint2_linear_368_26" x1="99.3589" y1="33.2913" x2="179.44" y2="191.342" gradientUnits="userSpaceOnUse">
<stop stop-color="#C8892B"/>
<stop offset="0.979601" stop-color="#FFEDA3"/>
</linearGradient>
</defs>
</svg>
