<svg width="243" height="243" viewBox="0 0 243 243" fill="none" xmlns="http://www.w3.org/2000/svg">
<circle cx="121.495" cy="121.495" r="104.995" fill="#FEC424" stroke="url(#paint0_linear_368_21)" stroke-width="33"/>
<circle cx="121.495" cy="121.495" r="119.495" stroke="url(#paint1_linear_368_21)" stroke-width="4"/>
<circle cx="121.496" cy="121.986" r="87.1952" stroke="url(#paint2_linear_368_21)" stroke-width="3"/>
<g filter="url(#filter0_d_368_21)">
<mask id="path-4-outside-1_368_21" maskUnits="userSpaceOnUse" x="47" y="98" width="149" height="45" fill="black">
<rect fill="white" x="47" y="98" width="149" height="45"/>
<path d="M83.528 99.422V142H74.988V123.883H56.749V142H48.209V99.422H56.749V116.929H74.988V99.422H83.528ZM96.8136 106.315V116.99H111.149V123.761H96.8136V135.046H112.979V142H88.2736V99.361H112.979V106.315H96.8136ZM143.187 133.887H126.229L123.423 142H114.456L129.767 99.361H139.71L155.021 142H145.993L143.187 133.887ZM140.869 127.055L134.708 109.243L128.547 127.055H140.869ZM171.968 99.422C176.442 99.422 180.366 100.296 183.741 102.045C187.157 103.794 189.78 106.295 191.61 109.548C193.481 112.761 194.416 116.502 194.416 120.772C194.416 125.042 193.481 128.783 191.61 131.996C189.78 135.168 187.157 137.628 183.741 139.377C180.366 141.126 176.442 142 171.968 142H157.084V99.422H171.968ZM171.663 134.741C176.137 134.741 179.593 133.521 182.033 131.081C184.473 128.641 185.693 125.205 185.693 120.772C185.693 116.339 184.473 112.883 182.033 110.402C179.593 107.881 176.137 106.62 171.663 106.62H165.624V134.741H171.663Z"/>
</mask>
<path d="M83.528 99.422V142H74.988V123.883H56.749V142H48.209V99.422H56.749V116.929H74.988V99.422H83.528ZM96.8136 106.315V116.99H111.149V123.761H96.8136V135.046H112.979V142H88.2736V99.361H112.979V106.315H96.8136ZM143.187 133.887H126.229L123.423 142H114.456L129.767 99.361H139.71L155.021 142H145.993L143.187 133.887ZM140.869 127.055L134.708 109.243L128.547 127.055H140.869ZM171.968 99.422C176.442 99.422 180.366 100.296 183.741 102.045C187.157 103.794 189.78 106.295 191.61 109.548C193.481 112.761 194.416 116.502 194.416 120.772C194.416 125.042 193.481 128.783 191.61 131.996C189.78 135.168 187.157 137.628 183.741 139.377C180.366 141.126 176.442 142 171.968 142H157.084V99.422H171.968ZM171.663 134.741C176.137 134.741 179.593 133.521 182.033 131.081C184.473 128.641 185.693 125.205 185.693 120.772C185.693 116.339 184.473 112.883 182.033 110.402C179.593 107.881 176.137 106.62 171.663 106.62H165.624V134.741H171.663Z" fill="white" fill-opacity="0.84" shape-rendering="crispEdges"/>
<path d="M83.528 99.422H84.528V98.422H83.528V99.422ZM83.528 142V143H84.528V142H83.528ZM74.988 142H73.988V143H74.988V142ZM74.988 123.883H75.988V122.883H74.988V123.883ZM56.749 123.883V122.883H55.749V123.883H56.749ZM56.749 142V143H57.749V142H56.749ZM48.209 142H47.209V143H48.209V142ZM48.209 99.422V98.422H47.209V99.422H48.209ZM56.749 99.422H57.749V98.422H56.749V99.422ZM56.749 116.929H55.749V117.929H56.749V116.929ZM74.988 116.929V117.929H75.988V116.929H74.988ZM74.988 99.422V98.422H73.988V99.422H74.988ZM82.528 99.422V142H84.528V99.422H82.528ZM83.528 141H74.988V143H83.528V141ZM75.988 142V123.883H73.988V142H75.988ZM74.988 122.883H56.749V124.883H74.988V122.883ZM55.749 123.883V142H57.749V123.883H55.749ZM56.749 141H48.209V143H56.749V141ZM49.209 142V99.422H47.209V142H49.209ZM48.209 100.422H56.749V98.422H48.209V100.422ZM55.749 99.422V116.929H57.749V99.422H55.749ZM56.749 117.929H74.988V115.929H56.749V117.929ZM75.988 116.929V99.422H73.988V116.929H75.988ZM74.988 100.422H83.528V98.422H74.988V100.422ZM96.8136 106.315V105.315H95.8136V106.315H96.8136ZM96.8136 116.99H95.8136V117.99H96.8136V116.99ZM111.149 116.99H112.149V115.99H111.149V116.99ZM111.149 123.761V124.761H112.149V123.761H111.149ZM96.8136 123.761V122.761H95.8136V123.761H96.8136ZM96.8136 135.046H95.8136V136.046H96.8136V135.046ZM112.979 135.046H113.979V134.046H112.979V135.046ZM112.979 142V143H113.979V142H112.979ZM88.2736 142H87.2736V143H88.2736V142ZM88.2736 99.361V98.361H87.2736V99.361H88.2736ZM112.979 99.361H113.979V98.361H112.979V99.361ZM112.979 106.315V107.315H113.979V106.315H112.979ZM95.8136 106.315V116.99H97.8136V106.315H95.8136ZM96.8136 117.99H111.149V115.99H96.8136V117.99ZM110.149 116.99V123.761H112.149V116.99H110.149ZM111.149 122.761H96.8136V124.761H111.149V122.761ZM95.8136 123.761V135.046H97.8136V123.761H95.8136ZM96.8136 136.046H112.979V134.046H96.8136V136.046ZM111.979 135.046V142H113.979V135.046H111.979ZM112.979 141H88.2736V143H112.979V141ZM89.2736 142V99.361H87.2736V142H89.2736ZM88.2736 100.361H112.979V98.361H88.2736V100.361ZM111.979 99.361V106.315H113.979V99.361H111.979ZM112.979 105.315H96.8136V107.315H112.979V105.315ZM143.187 133.887L144.133 133.56L143.9 132.887H143.187V133.887ZM126.229 133.887V132.887H125.517L125.284 133.56L126.229 133.887ZM123.423 142V143H124.136L124.369 142.327L123.423 142ZM114.456 142L113.515 141.662L113.035 143H114.456V142ZM129.767 99.361V98.361H129.064L128.826 99.023L129.767 99.361ZM139.71 99.361L140.652 99.023L140.414 98.361H139.71V99.361ZM155.021 142V143H156.443L155.963 141.662L155.021 142ZM145.993 142L145.048 142.327L145.281 143H145.993V142ZM140.869 127.055V128.055H142.273L141.814 126.728L140.869 127.055ZM134.708 109.243L135.653 108.916L134.708 106.184L133.763 108.916L134.708 109.243ZM128.547 127.055L127.602 126.728L127.143 128.055H128.547V127.055ZM143.187 132.887H126.229V134.887H143.187V132.887ZM125.284 133.56L122.478 141.673L124.369 142.327L127.175 134.214L125.284 133.56ZM123.423 141H114.456V143H123.423V141ZM115.398 142.338L130.709 99.699L128.826 99.023L113.515 141.662L115.398 142.338ZM129.767 100.361H139.71V98.361H129.767V100.361ZM138.769 99.699L154.08 142.338L155.963 141.662L140.652 99.023L138.769 99.699ZM155.021 141H145.993V143H155.021V141ZM146.939 141.673L144.133 133.56L142.242 134.214L145.048 142.327L146.939 141.673ZM141.814 126.728L135.653 108.916L133.763 109.57L139.924 127.382L141.814 126.728ZM133.763 108.916L127.602 126.728L129.492 127.382L135.653 109.57L133.763 108.916ZM128.547 128.055H140.869V126.055H128.547V128.055ZM183.741 102.045L183.281 102.933L183.286 102.935L183.741 102.045ZM191.61 109.548L190.739 110.038L190.743 110.045L190.746 110.051L191.61 109.548ZM191.61 131.996L190.746 131.493L190.744 131.496L191.61 131.996ZM183.741 139.377L183.286 138.487L183.281 138.489L183.741 139.377ZM157.084 142H156.084V143H157.084V142ZM157.084 99.422V98.422H156.084V99.422H157.084ZM182.033 131.081L181.326 130.374L181.326 130.374L182.033 131.081ZM182.033 110.402L181.315 111.097L181.321 111.103L182.033 110.402ZM165.624 106.62V105.62H164.624V106.62H165.624ZM165.624 134.741H164.624V135.741H165.624V134.741ZM171.968 100.422C176.31 100.422 180.071 101.27 183.281 102.933L184.201 101.157C180.661 99.3228 176.574 98.422 171.968 98.422V100.422ZM183.286 102.935C186.532 104.597 189.008 106.961 190.739 110.038L192.482 109.058C190.553 105.628 187.783 102.99 184.197 101.155L183.286 102.935ZM190.746 110.051C192.515 113.09 193.416 116.652 193.416 120.772H195.416C195.416 116.352 194.447 112.432 192.475 109.045L190.746 110.051ZM193.416 120.772C193.416 124.892 192.515 128.454 190.746 131.493L192.475 132.499C194.447 129.112 195.416 125.192 195.416 120.772H193.416ZM190.744 131.496C189.015 134.493 186.539 136.822 183.286 138.487L184.197 140.267C187.776 138.435 190.546 135.843 192.477 132.496L190.744 131.496ZM183.281 138.489C180.071 140.152 176.31 141 171.968 141V143C176.574 143 180.661 142.099 184.201 140.265L183.281 138.489ZM171.968 141H157.084V143H171.968V141ZM158.084 142V99.422H156.084V142H158.084ZM157.084 100.422H171.968V98.422H157.084V100.422ZM171.663 135.741C176.32 135.741 180.062 134.467 182.741 131.788L181.326 130.374C179.125 132.575 175.954 133.741 171.663 133.741V135.741ZM182.741 131.788C185.417 129.111 186.693 125.391 186.693 120.772H184.693C184.693 125.018 183.53 128.171 181.326 130.374L182.741 131.788ZM186.693 120.772C186.693 116.152 185.417 112.416 182.746 109.701L181.321 111.103C183.53 113.349 184.693 116.526 184.693 120.772H186.693ZM182.752 109.707C180.075 106.941 176.329 105.62 171.663 105.62V107.62C175.944 107.62 179.112 108.821 181.315 111.097L182.752 109.707ZM171.663 105.62H165.624V107.62H171.663V105.62ZM164.624 106.62V134.741H166.624V106.62H164.624ZM165.624 135.741H171.663V133.741H165.624V135.741Z" fill="white" fill-opacity="0.4" mask="url(#path-4-outside-1_368_21)"/>
</g>
<defs>
<filter id="filter0_d_368_21" x="41.209" y="92.361" width="160.208" height="56.639" filterUnits="userSpaceOnUse" color-interpolation-filters="sRGB">
<feFlood flood-opacity="0" result="BackgroundImageFix"/>
<feColorMatrix in="SourceAlpha" type="matrix" values="0 0 0 0 0 0 0 0 0 0 0 0 0 0 0 0 0 0 127 0" result="hardAlpha"/>
<feOffset/>
<feGaussianBlur stdDeviation="3.5"/>
<feComposite in2="hardAlpha" operator="out"/>
<feColorMatrix type="matrix" values="0 0 0 0 0 0 0 0 0 0 0 0 0 0 0 0 0 0 0.25 0"/>
<feBlend mode="normal" in2="BackgroundImageFix" result="effect1_dropShadow_368_21"/>
<feBlend mode="normal" in="SourceGraphic" in2="effect1_dropShadow_368_21" result="shape"/>
</filter>
<linearGradient id="paint0_linear_368_21" x1="208.613" y1="31.7663" x2="47.8757" y2="217.127" gradientUnits="userSpaceOnUse">
<stop stop-color="#FED64A"/>
<stop offset="0.123016" stop-color="#FEF14E"/>
<stop offset="0.248796" stop-color="#FFDF6C"/>
<stop offset="0.482583" stop-color="#FCFF67"/>
<stop offset="0.743348" stop-color="#FED545"/>
<stop offset="0.82597" stop-color="#FECA45"/>
<stop offset="1" stop-color="#FEED44"/>
</linearGradient>
<linearGradient id="paint1_linear_368_21" x1="97.5877" y1="-4.12842e-07" x2="127.133" y2="242.989" gradientUnits="userSpaceOnUse">
<stop stop-color="#FFF3C4"/>
<stop offset="0.483894" stop-color="#EDC071"/>
<stop offset="0.961122" stop-color="#BF8147"/>
</linearGradient>
<linearGradient id="paint2_linear_368_21" x1="99.3589" y1="33.2913" x2="179.44" y2="191.342" gradientUnits="userSpaceOnUse">
<stop stop-color="#C8892B"/>
<stop offset="0.979601" stop-color="#FFEDA3"/>
</linearGradient>
</defs>
</svg>
