<svg width="43" height="17" viewBox="0 0 43 17" fill="none" xmlns="http://www.w3.org/2000/svg">
<path d="M42.9653 2.72992L42.8757 1.21872L41.3704 1.05745C40.2594 0.937988 39.1066 0.878257 37.9359 0.878257H37.6134C37.6134 0.878257 37.5954 0.878257 37.5895 0.878257C36.4068 0.878257 35.2361 0.878257 34.1012 0.896176L32.3272 0.914096V0.926042C31.7298 0.896176 31.1266 0.878257 30.5173 0.878257H30.1947C30.1947 0.878257 30.1768 0.878257 30.1709 0.878257C28.9882 0.878257 27.8174 0.878257 26.6826 0.896176L24.9085 0.914096V0.997719C24.5382 0.997719 24.1201 0.997719 23.6422 1.01564L22.1549 1.05148C21.6353 1.06342 21.1156 1.08134 20.5959 1.09926C20.0882 1.11121 19.6044 1.12913 19.1564 1.15302L17.5497 1.23664L17.5258 1.61295C16.7493 1.09926 15.8712 0.812553 14.9155 0.752821C14.4377 0.699063 13.9598 0.675171 13.4939 0.675171C13.0698 0.675171 12.6457 0.699063 12.2396 0.740875C11.475 0.818526 10.7582 0.908122 10.1131 0.997719L8.32119 1.25456L8.34509 1.39792C8.02851 1.23664 7.68804 1.10524 7.32966 1.00967C6.76818 0.854364 6.1649 0.758795 5.54369 0.734902C5.39437 0.728929 5.24504 0.722956 5.09571 0.722956C4.64773 0.722956 4.19377 0.752821 3.73981 0.812553C3.16042 0.890203 2.59895 1.00369 2.07929 1.14705L1.62533 1.27248L1.29083 1.60698L0.753254 2.14456V2.92106C0.78312 4.83246 0.78312 6.74983 0.753254 8.63136C0.717416 10.5487 0.735335 12.5079 0.801039 14.4611L0.842851 15.6259L1.92399 16.0619C2.19278 16.1694 2.47351 16.2232 2.76022 16.2232H2.93344C3.2978 16.2351 3.698 16.2531 4.11612 16.2829C4.51034 16.3128 4.90457 16.3247 5.29282 16.3247C5.41229 16.3247 5.53772 16.3247 5.65718 16.3247C6.19476 16.3247 10.4954 16.259 10.4954 16.259H10.8299C10.8299 16.259 10.8418 16.259 10.8478 16.259C11.0031 16.265 11.1584 16.271 11.3197 16.271C11.469 16.271 11.6243 16.271 11.7856 16.265C12.1201 16.265 12.4546 16.2531 12.7891 16.2292C13.2908 16.1933 14.5093 16.2531 14.5093 16.2531H15.6442C15.9608 16.271 16.2834 16.2829 16.594 16.2829C16.815 16.2829 17.036 16.2829 17.257 16.265H17.2749H17.2928C17.7289 16.2351 18.1231 16.2172 18.4755 16.2172V16.1276L19.0907 16.1754C19.921 16.2411 20.7871 16.277 21.6711 16.277C21.9996 16.277 22.3341 16.277 22.6686 16.265C23.6064 16.2292 24.5203 16.2112 25.4103 16.2112C25.6313 16.2112 25.8583 16.2112 26.0793 16.2112C26.0793 16.2112 29.4481 16.2292 29.5855 16.2292H31.0907C31.4073 16.2112 31.7 16.1814 31.9747 16.1396L33.474 15.8887V14.3058C33.4501 13.0933 33.4322 12.042 33.4262 11.158C33.4143 10.2501 33.4023 9.47954 33.3904 8.84042C33.3784 8.2013 33.3665 7.67566 33.3545 7.27547V7.20379L34.5133 7.05446C34.5372 7.84888 34.5551 8.95988 34.5611 9.59303C34.585 10.6861 34.591 11.5821 34.579 12.275C34.579 12.9798 34.579 13.4995 34.5611 13.8339C34.5432 14.4313 34.5491 15.9365 34.6149 16.2053L36.6457 16.259C36.7473 16.2411 36.8667 16.2351 37.0041 16.2351H38.5093C38.8259 16.2172 39.1186 16.1874 39.3933 16.1455L40.8926 15.8947V14.3118C40.8687 13.0993 40.8508 12.048 40.8448 11.164C40.8329 10.2561 40.8209 9.48552 40.809 8.84639C40.797 8.20727 40.7851 7.68164 40.7731 7.28144V7.20976L42.6308 7.60399L42.8936 5.69856C42.9593 5.22071 42.9951 4.70105 42.9951 4.15153C43.0071 3.63186 42.9951 3.15999 42.9772 2.75382L42.9653 2.72992Z" fill="#5ECDFA"/>
<path d="M14.9155 5.16693C14.6945 4.96385 14.4138 4.8623 14.0793 4.8623C14.0435 4.8623 14.0136 4.8623 13.9778 4.8623C13.6015 4.87425 13.2132 4.95787 12.825 5.11318C12.8369 5.25653 12.8429 5.42378 12.8429 5.61492C12.8548 5.79411 12.8608 5.97928 12.8608 6.16444V6.71397C12.8727 6.89316 12.8907 7.04249 12.9086 7.16793H12.9265C13.1833 7.19182 13.4641 7.20974 13.7627 7.21571C13.8225 7.21571 13.8822 7.21571 13.9419 7.21571C14.1749 7.21571 14.4019 7.19779 14.6169 7.16195C14.8259 7.12014 14.9932 7.01263 15.1007 6.84538C15.2261 6.66619 15.2978 6.47505 15.3157 6.27793C15.3396 6.06887 15.3157 5.85982 15.25 5.65673C15.1843 5.44767 15.0708 5.28042 14.9155 5.15499V5.16693Z" fill="#5ECDFA"/>
<path d="M6.6726 5.53135C6.54119 5.4298 6.37992 5.35813 6.2067 5.31631C5.98569 5.2745 5.74677 5.25061 5.48992 5.25061C5.46006 5.25061 5.43616 5.25061 5.41227 5.25061C5.20321 5.25061 5.02402 5.29242 4.87469 5.37007C4.89858 5.62692 4.88664 5.93752 4.83885 6.30785C4.80301 6.67819 4.83885 7.05449 4.94039 7.44274C5.10764 7.46664 5.28684 7.48456 5.47798 7.49053C5.54368 7.49053 5.60341 7.49053 5.66314 7.49053C5.78858 7.49053 5.90804 7.48456 6.0275 7.46664C6.2067 7.44274 6.36797 7.39496 6.51132 7.31731C6.66663 7.22771 6.79206 7.10228 6.88166 6.93503C6.95931 6.80362 7.02501 6.64235 7.08474 6.46913C7.1385 6.28993 7.12656 6.11074 7.03696 5.93155C6.94736 5.75235 6.8279 5.62094 6.68454 5.53135H6.6726Z" fill="#5ECDFA"/>
<path d="M6.64273 10.1127C6.51132 9.99919 6.36797 9.92751 6.22461 9.89764C6.01555 9.84389 5.79455 9.81402 5.57354 9.81402C5.35254 9.80207 5.13153 9.78415 4.92247 9.76624C4.88066 9.93348 4.83885 10.1246 4.80301 10.3337C4.76717 10.5427 4.74925 10.7637 4.7373 10.9848C4.7373 11.1938 4.75522 11.4029 4.78509 11.606C4.82093 11.809 4.88066 11.9763 4.97026 12.1077L5.0061 12.1256C5.1614 12.1256 5.32267 12.1256 5.48992 12.1435C5.66911 12.1435 5.84233 12.1435 6.00958 12.1256C6.18877 12.1017 6.35005 12.0659 6.4934 12.0062C6.6487 11.9404 6.78608 11.8389 6.8936 11.7075C7.01904 11.5403 7.07279 11.3372 7.06085 11.1042C7.06085 10.8713 7.01904 10.6562 6.94139 10.4711C6.87568 10.3397 6.77414 10.2202 6.64273 10.1186V10.1127Z" fill="#5ECDFA"/>
<path d="M9.38447 10.28C9.27098 10.0351 9.13359 9.8081 8.96635 9.59307C8.81105 9.37206 8.6438 9.14508 8.46461 8.92408C8.41085 8.85837 8.36904 8.79864 8.34514 8.75683C8.32125 8.71502 8.3332 8.64931 8.38098 8.57166C8.60199 8.19536 8.79313 7.77724 8.94843 7.33523C9.11568 6.88724 9.1993 6.43329 9.1993 5.96141C9.1993 5.33423 9.09776 4.81457 8.90064 4.39048C8.69756 3.95444 8.42877 3.60203 8.08233 3.33921C7.73589 3.05848 7.33569 2.86136 6.87576 2.73593C6.42777 2.61049 5.96187 2.53882 5.47207 2.5209C4.98228 2.497 4.48651 2.5209 3.98477 2.5866C3.48303 2.6523 3.01115 2.74787 2.56317 2.87331L2.54525 2.89123C2.58109 4.83249 2.58109 6.75584 2.54525 8.66126C2.50941 10.5547 2.52733 12.4661 2.59303 14.3955C2.64679 14.4193 2.70652 14.4313 2.76028 14.4313H2.96336C3.36356 14.4432 3.79363 14.4671 4.25356 14.497C4.71946 14.5328 5.18536 14.5388 5.63932 14.5328C6.10522 14.5328 6.55918 14.503 6.99522 14.4492C7.43126 14.3835 7.82548 14.2581 8.18387 14.0789C8.54226 13.8997 8.84091 13.6488 9.08581 13.3263C9.34265 12.9918 9.51587 12.5617 9.60547 12.0361C9.67118 11.6777 9.68312 11.3551 9.64131 11.0684C9.5995 10.7757 9.51587 10.5189 9.39044 10.28H9.38447ZM6.89368 11.7016C6.78019 11.833 6.64878 11.9345 6.49348 12.0002C6.35012 12.054 6.18885 12.0958 6.00965 12.1197C5.84241 12.1316 5.66919 12.1376 5.48999 12.1376C5.32275 12.1257 5.16147 12.1197 5.00617 12.1197L4.97033 12.1018C4.88074 11.9704 4.821 11.8031 4.78517 11.6C4.74933 11.3969 4.73738 11.1939 4.73738 10.9788C4.74933 10.7578 4.77322 10.5368 4.80308 10.3278C4.83892 10.1187 4.87476 9.92756 4.92255 9.76031C5.13161 9.78421 5.35261 9.80213 5.57362 9.8081C5.79462 9.8081 6.01563 9.83796 6.22469 9.89172C6.36804 9.92756 6.5114 9.99924 6.6428 10.1068C6.77421 10.2083 6.87576 10.3218 6.94146 10.4592C7.01911 10.6503 7.06092 10.8594 7.06092 11.0923C7.07287 11.3253 7.01911 11.5284 6.89368 11.6956V11.7016ZM7.07884 6.46913C7.02508 6.64832 6.95341 6.80362 6.87576 6.93503C6.78616 7.10228 6.6667 7.22771 6.50542 7.31731C6.36207 7.39496 6.20079 7.44274 6.0216 7.46664C5.84241 7.49053 5.65724 7.4965 5.47207 7.48456C5.28691 7.47261 5.10174 7.45469 4.93449 7.43677C4.83295 7.04852 4.80308 6.66624 4.83295 6.30188C4.87476 5.93155 4.88671 5.62094 4.86879 5.3641C5.03604 5.2745 5.2451 5.23866 5.48999 5.24464C5.74684 5.24464 5.98576 5.26853 6.20677 5.31034C6.38596 5.35215 6.54126 5.4298 6.67267 5.52537C6.81602 5.61497 6.93549 5.74638 7.02508 5.92557C7.11468 6.10477 7.1326 6.28396 7.07287 6.46315L7.07884 6.46913Z" fill="white"/>
<path d="M17.8424 13.0933C17.5975 12.6572 17.3406 12.2332 17.0718 11.821C16.8031 11.4089 16.5283 11.0027 16.2535 10.6025C15.9728 10.1903 15.716 9.7782 15.483 9.36606V9.34814H15.5666C16.1042 9.3123 16.5402 9.16297 16.8867 8.89418C17.2451 8.62539 17.5258 8.2909 17.7408 7.8907C18.0873 7.31131 18.2486 6.71399 18.2247 6.09876C18.2127 5.47159 18.0634 4.90414 17.7707 4.39045C17.478 3.87676 17.0718 3.4467 16.5522 3.10026C16.0266 2.75382 15.4352 2.56268 14.7782 2.53281C13.9658 2.44322 13.1834 2.43724 12.4367 2.51489C11.6901 2.59254 11.0032 2.67617 10.382 2.76576C10.4059 2.90912 10.4238 3.18986 10.4297 3.602C10.4536 4.0022 10.4716 4.492 10.4775 5.07139C10.4895 5.63883 10.5014 6.27198 10.5134 6.95889C10.5373 7.63983 10.5492 8.33271 10.5492 9.03156C10.5612 9.72445 10.5671 10.3994 10.5671 11.0564V12.7767C10.5671 13.2785 10.5671 13.6846 10.5492 13.9952C10.5373 14.2939 10.5193 14.4492 10.5014 14.4492C10.5552 14.4372 10.7045 14.4372 10.9375 14.4492C11.1824 14.4611 11.4571 14.4611 11.7558 14.4492C12.0544 14.4492 12.3591 14.4372 12.6577 14.4133C12.9683 14.3895 13.2192 14.3417 13.4103 14.264C13.3984 14.055 13.3805 13.7682 13.3625 13.4099C13.3387 13.0515 13.3207 12.6811 13.2968 12.2869C13.2849 11.8867 13.2789 11.4985 13.2789 11.1341C13.2789 10.7697 13.2968 10.4352 13.3267 10.1784L13.3625 10.2262C13.5955 10.5189 13.8284 10.8534 14.0674 11.2297C14.3003 11.606 14.5213 11.9942 14.7184 12.3825C14.9215 12.7707 15.1007 13.147 15.268 13.5054C15.4352 13.8638 15.5726 14.1684 15.6861 14.4253H15.704C16.2057 14.4611 16.6955 14.4671 17.1734 14.4432C17.6512 14.4074 18.0873 14.3954 18.4755 14.3954H18.4576C18.2904 13.9355 18.0813 13.4995 17.8364 13.0754L17.8424 13.0933ZM15.0947 6.85138C14.9813 7.01862 14.82 7.12614 14.6109 7.16795C14.3421 7.20976 14.0614 7.22768 13.7568 7.21574C13.4581 7.20379 13.1774 7.18587 12.9205 7.16795H12.9026C12.8787 7.04252 12.8608 6.89319 12.8548 6.71399V6.16447C12.8548 5.97333 12.8548 5.78816 12.8369 5.61494C12.8369 5.4238 12.8369 5.25655 12.819 5.1132C13.2072 4.9579 13.5955 4.87427 13.9718 4.86233C14.3481 4.83844 14.6647 4.93998 14.9096 5.16098C15.0649 5.28642 15.1784 5.45367 15.2441 5.66273C15.3098 5.86581 15.3337 6.0689 15.3098 6.28393C15.2859 6.48702 15.2142 6.67218 15.0947 6.85138Z" fill="white"/>
<path d="M26.2287 12.1913C25.4701 12.2152 24.7354 12.2093 24.0187 12.1734C23.3079 12.1316 22.5791 12.1077 21.8444 12.1077L21.8265 12.0898C21.8026 11.821 21.7847 11.4865 21.7608 11.0863C21.7489 10.6861 21.7728 10.3218 21.8265 9.99921C21.8803 9.9574 21.9878 9.92753 22.1431 9.91559C22.2984 9.90364 22.4716 9.89767 22.6628 9.89767H23.284C23.493 9.88572 23.6842 9.85585 23.8514 9.81404C23.8395 9.4019 23.8514 9.00767 23.8693 8.62539C23.8932 8.24909 23.8693 7.86681 23.8215 7.4905V7.47258C23.4751 7.46063 23.1287 7.45466 22.7822 7.45466C22.4358 7.45466 22.0953 7.44271 21.7608 7.41882L21.7429 7.4009C21.6652 7.10225 21.6414 6.7797 21.6772 6.4452C21.719 6.09876 21.7369 5.76427 21.725 5.44172L21.7429 5.4238H21.7907C22.161 5.38796 22.5254 5.37602 22.8957 5.37602C23.266 5.37602 23.6304 5.37602 24.0007 5.39394C24.3711 5.39394 24.7295 5.39393 25.0878 5.37602C25.4582 5.35212 25.8166 5.30434 26.1749 5.22669V5.20877C26.1749 4.82052 26.1869 4.42032 26.2108 4.02012C26.2466 3.61992 26.2347 3.22569 26.1749 2.83147C26.1749 2.81952 26.0615 2.80758 25.8405 2.79563C25.6194 2.78368 25.3208 2.77771 24.9564 2.77771C24.5921 2.77771 24.162 2.77771 23.6842 2.79563C23.2063 2.80758 22.7105 2.81952 22.1969 2.83147C21.6832 2.84341 21.1695 2.86133 20.6558 2.87925C20.154 2.8912 19.6881 2.90912 19.2521 2.92704C19.1983 3.88871 19.1625 4.83844 19.1506 5.78816C19.1386 6.73789 19.1386 7.68164 19.1506 8.63136C19.1625 9.58109 19.1804 10.5308 19.1983 11.4925C19.2222 12.4422 19.2342 13.3979 19.2342 14.3715C20.3153 14.4611 21.4442 14.491 22.615 14.4552C23.7976 14.4133 24.9564 14.3954 26.0913 14.4074C26.1809 14.0729 26.2287 13.7145 26.2407 13.3382C26.2526 12.9499 26.2407 12.5736 26.2227 12.2152V12.1794L26.2287 12.1913Z" fill="white"/>
<path d="M30.2187 2.67029C29.0121 2.67029 27.8414 2.67029 26.7065 2.68821V2.70613C26.7065 2.70613 26.7244 2.70613 26.7244 2.72405C26.7005 2.99284 26.6886 3.2676 26.6886 3.56028V4.3786C26.7005 4.6235 26.7125 4.83853 26.7244 5.01175C26.7483 5.19094 26.7662 5.30443 26.7901 5.34624C26.8558 5.37014 26.9753 5.38208 27.1426 5.38208C27.3098 5.38208 27.495 5.38208 27.6921 5.4C27.8952 5.4 28.0923 5.41195 28.2954 5.43584C28.4985 5.44779 28.6657 5.48363 28.7971 5.5553L28.815 5.57322C28.8807 7.13221 28.9225 8.46421 28.9345 9.56924C28.9584 10.6743 28.9644 11.5822 28.9524 12.293C28.9524 12.9978 28.9524 13.5234 28.9345 13.8818C28.9225 14.2402 28.9225 14.4373 28.9345 14.4851C29.1376 14.4493 29.3526 14.4373 29.5856 14.4373H31.0072C31.2521 14.4254 31.4731 14.4015 31.6762 14.3716V14.3358C31.6523 13.1232 31.6343 12.066 31.6284 11.176C31.6164 10.2741 31.6045 9.50353 31.5925 8.87038C31.5806 8.22529 31.5686 7.69965 31.5567 7.29945V5.75839C31.5686 5.63295 31.5806 5.54933 31.5925 5.4896V5.47168C31.5925 5.47168 31.6104 5.44779 31.6104 5.43584H31.6582C32.1839 5.41195 32.602 5.39403 32.9126 5.38806C33.2232 5.37611 33.486 5.38806 33.701 5.43584C33.7548 5.03564 33.7847 4.59363 33.7847 4.11578C33.7966 3.63793 33.7847 3.21384 33.7667 2.84351C32.6199 2.71807 31.4372 2.66431 30.2187 2.67626V2.67029Z" fill="white"/>
<path d="M41.1793 2.83745C40.0325 2.71202 38.8498 2.65826 37.6313 2.6702C36.4247 2.6702 35.254 2.6702 34.1191 2.68812V2.70604C34.1191 2.70604 34.137 2.70604 34.137 2.72396C34.1131 2.99275 34.1012 3.26752 34.1012 3.5602V4.37852C34.1131 4.62341 34.1251 4.83845 34.137 5.01167C34.1609 5.19086 34.1788 5.30435 34.2027 5.34616C34.2684 5.37005 34.3879 5.382 34.5552 5.382C34.7224 5.382 34.9076 5.382 35.1047 5.39992C35.3078 5.39992 35.5049 5.41186 35.708 5.43576C35.911 5.4477 36.0783 5.48354 36.2097 5.55522L36.2276 5.57314C36.2933 7.13212 36.3351 8.46413 36.3471 9.56915C36.371 10.6742 36.377 11.5821 36.365 12.2929C36.365 12.9977 36.365 13.5234 36.3471 13.8817C36.3351 14.2401 36.3351 14.4372 36.3471 14.485C36.5502 14.4492 36.7652 14.4372 36.9982 14.4372H38.4198C38.6647 14.4253 38.8857 14.4014 39.0887 14.3715V14.3357C39.0649 13.1232 39.0469 12.0659 39.041 11.1759C39.029 10.274 39.0171 9.50345 39.0051 8.8703C38.9932 8.2252 38.9812 7.69957 38.9693 7.29937V5.75831C38.9812 5.63287 38.9932 5.54925 39.0051 5.48952V5.4716C39.0051 5.4716 39.023 5.4477 39.023 5.43576H39.0708C39.5965 5.41186 40.0146 5.39394 40.3252 5.38797C40.6358 5.37603 40.8986 5.38797 41.1136 5.43576C41.1674 5.03556 41.1973 4.59355 41.1973 4.1157C41.2092 3.63785 41.1973 3.21376 41.1793 2.84342V2.83745Z" fill="white"/>
</svg>
