<svg width="30" height="25" viewBox="0 0 30 25" fill="none" xmlns="http://www.w3.org/2000/svg">
<path d="M4.92521 15.3111L5.04025 17.4068C5.04777 17.5495 5.10128 17.6838 5.19155 17.7938C5.8226 18.5578 8.65181 21.2234 15.0274 21.2234C21.403 21.2234 24.198 18.5922 24.8525 17.8081C24.9511 17.6897 25.0079 17.5428 25.0171 17.3883L25.1312 15.3126C25.8902 14.8961 26.6738 14.4255 26.6738 14.4255C27.9057 13.758 29.2807 14.7168 29.2832 16.1231C29.2874 18.3983 27.5096 20.7365 25.1116 22.2099C22.4077 23.8714 18.3716 24.5607 15.0292 24.5607C11.6867 24.5607 7.65059 23.8714 4.94672 22.2099C2.54876 20.7365 0.770975 18.3991 0.775154 16.1231C0.777661 14.7168 2.15258 13.758 3.38457 14.4255C3.38457 14.4255 4.1668 14.8949 4.92521 15.3111Z" fill="#845EEE"/>
<path d="M15.0284 0.439209C20.2414 0.439209 21.6548 0.560945 23.7744 0.80442H23.7736C24.7506 0.91692 25.5338 1.64398 25.4611 2.62879L24.6803 13.2647C24.436 13.3355 24.1695 13.4249 23.8707 13.5252C22.3047 14.0508 19.8496 14.8747 15.0284 14.8747C10.2071 14.8747 7.75211 14.0508 6.18601 13.5252C5.88692 13.4248 5.62022 13.3353 5.37568 13.2645L4.59493 2.62879C4.52305 1.64398 5.3037 0.899289 6.28243 0.80442C8.37615 0.601244 10.556 0.439209 15.0284 0.439209ZM5.74979 18.3609L5.75254 18.3983L5.80641 18.4107C5.78714 18.3939 5.76827 18.3773 5.74979 18.3609ZM24.2549 18.4095L24.3035 18.3983L24.306 18.3643C24.2893 18.3792 24.2722 18.3943 24.2549 18.4095Z" fill="#845EEE"/>
</svg>
